# This file uses centimeters as units for non-parametric coordinates.

mtllib corpse_storage_door_open.mtl
g default
v 8.707462 2.807077 0.210564
v 8.716929 2.813951 0.218687
v 8.718042 2.821685 0.211023
v 8.708742 2.814982 0.201876
v 8.816120 2.797515 0.201272
v 8.809194 2.806806 0.210898
v 8.808094 2.799229 0.218687
v 8.814884 2.790193 0.210612
v 8.708735 2.814990 -0.201647
v 8.718184 2.821664 -0.210874
v 8.716810 2.814122 -0.218683
v 8.707495 2.807287 -0.210560
v 8.814884 2.790193 -0.210613
v 8.807929 2.799110 -0.218687
v 8.809332 2.806781 -0.211041
v 8.816120 2.797514 -0.201273
v 8.599388 2.134763 0.218687
v 8.608668 2.229000 0.212997
v 8.593764 2.135680 0.212987
v 8.700167 2.118308 0.212956
v 8.718010 2.225458 0.212998
v 8.694541 2.119226 0.218687
v 8.593764 2.135680 -0.212939
v 8.608670 2.229007 -0.212990
v 8.599388 2.134763 -0.218680
v 8.694541 2.119226 -0.218687
v 8.718011 2.225454 -0.212998
v 8.700167 2.118308 -0.212987
v 8.766701 2.523350 -0.151748
v 8.772828 2.514022 -0.155295
v 8.773730 2.521857 -0.167016
v 8.767646 2.531363 -0.159374
v 8.767635 2.531362 0.159375
v 8.773714 2.521865 0.167142
v 8.772769 2.513739 0.155111
v 8.766693 2.523353 0.151748
v 8.802697 2.744273 -0.159358
v 8.811207 2.751204 -0.168102
v 8.812536 2.759567 -0.160224
v 8.803959 2.752024 -0.151493
v 8.803957 2.751996 0.151558
v 8.812519 2.759486 0.160207
v 8.811197 2.751227 0.168196
v 8.802664 2.744228 0.159410
v 8.660685 2.542170 -0.145197
v 8.669834 2.548580 -0.142530
v 8.671482 2.556803 -0.150671
v 8.662495 2.550992 -0.157313
v 8.662485 2.550980 0.157317
v 8.671467 2.556800 0.150702
v 8.669653 2.548625 0.142695
v 8.660677 2.542170 0.145198
v 8.696838 2.758891 -0.158648
v 8.703236 2.749858 -0.150513
v 8.704556 2.758046 -0.142227
v 8.698238 2.767241 -0.150701
v 8.698208 2.766820 0.151402
v 8.704617 2.757653 0.142873
v 8.703135 2.749548 0.151193
v 8.696817 2.758496 0.159379
v 8.530012 2.565468 0.556808
v 8.530891 2.570848 0.562258
v 8.525514 2.571725 0.556808
v 8.633099 2.554158 0.556808
v 8.627720 2.555037 0.562258
v 8.626842 2.549660 0.556808
v 8.542809 2.677654 0.556808
v 8.548187 2.676778 0.562258
v 8.549066 2.682155 0.556808
v 8.645895 2.666345 0.556808
v 8.645017 2.660966 0.562258
v 8.650396 2.660089 0.556808
v 8.542809 2.677654 0.043246
v 8.549066 2.682155 0.043246
v 8.645895 2.666345 0.043246
v 8.650396 2.660089 0.043246
v 8.530012 2.565468 0.043246
v 8.525514 2.571725 0.043246
v 8.633099 2.554158 0.043246
v 8.626842 2.549660 0.043246
v 7.962376 2.401930 4.423899
v 8.045374 2.388380 4.507997
v 8.058927 2.471376 4.423899
v 19.567198 0.592311 4.423899
v 19.553646 0.509310 4.507997
v 19.636644 0.495759 4.423899
v 7.962376 2.401930 -4.423899
v 8.058927 2.471376 -4.423899
v 8.045374 2.388380 -4.507997
v 19.553646 0.509310 -4.507997
v 19.567198 0.592311 -4.423899
v 19.636644 0.495759 -4.423899
v 8.013748 2.194686 4.507997
v 7.930750 2.208241 4.423899
v 7.930750 2.208241 -4.423899
v 8.013748 2.194686 -4.507997
v 19.522020 0.315620 -4.507997
v 19.605019 0.302070 -4.423899
v 19.605019 0.302070 4.423899
v 19.522020 0.315620 4.507997
v 13.767885 1.255155 0.000000
v 8.244260 2.606603 0.147840
v 8.245220 2.612475 0.153792
v 8.239344 2.613437 0.147840
v 9.865499 2.347917 0.147840
v 9.859623 2.348877 0.153792
v 9.858665 2.343001 0.147840
v 8.258236 2.729135 0.147840
v 8.264112 2.728174 0.153792
v 8.265071 2.734049 0.147840
v 9.879474 2.470451 0.147840
v 9.878515 2.464575 0.153792
v 9.884390 2.463615 0.147840
v 8.258236 2.729135 -0.147840
v 8.265071 2.734049 -0.147840
v 8.264112 2.728174 -0.153792
v 9.878515 2.464575 -0.153792
v 9.879474 2.470451 -0.147840
v 9.884390 2.463615 -0.147840
v 8.239344 2.613437 -0.147840
v 8.245220 2.612475 -0.153792
v 8.244260 2.606603 -0.147840
v 9.858665 2.343001 -0.147840
v 9.859623 2.348877 -0.153792
v 9.865499 2.347917 -0.147840
v 19.841221 0.138876 -3.118292
v 19.834486 0.139186 -3.124817
v 19.910381 0.128496 -3.124570
v 19.903183 0.129146 -3.118292
v 19.036667 0.678427 -3.137575
v 19.027290 0.679956 -3.138805
v 19.037558 0.742838 -3.138805
v 19.046932 0.741305 -3.137575
v 19.047972 0.748018 -3.143411
v 19.038475 0.749572 -3.144983
v 19.027290 0.679956 -3.516933
v 19.036667 0.678427 -3.518163
v 19.038475 0.749572 -3.510755
v 19.047977 0.748019 -3.512320
v 19.046932 0.741305 -3.518163
v 19.037558 0.742838 -3.516933
v 19.841221 0.138876 -3.537446
v 19.834490 0.139143 -3.530966
v 19.910368 0.128592 -3.531090
v 19.903183 0.129146 -3.537446
v 19.776981 0.420769 -3.118292
v 19.771133 0.416769 -3.124714
v 19.808743 0.359967 -3.124727
v 19.815079 0.364177 -3.118292
v 19.865360 0.400275 -3.118292
v 19.871609 0.405135 -3.124699
v 19.833809 0.461777 -3.124676
v 19.828125 0.457561 -3.118292
v 19.581608 0.587631 -3.537446
v 19.579899 0.580216 -3.530998
v 19.571182 0.584269 -3.531032
v 19.572418 0.591006 -3.537446
v 19.582699 0.653805 -3.537446
v 19.583651 0.660556 -3.531021
v 19.592402 0.656646 -3.531045
v 19.591614 0.648485 -3.537446
v 19.572418 0.591006 -3.118292
v 19.571177 0.584270 -3.124717
v 19.579906 0.580210 -3.124754
v 19.581608 0.587631 -3.118292
v 19.776981 0.420770 -3.537446
v 19.815079 0.364177 -3.537446
v 19.808743 0.359966 -3.531011
v 19.771133 0.416769 -3.531024
v 19.833794 0.461792 -3.531036
v 19.871605 0.405155 -3.531067
v 19.865381 0.400314 -3.537446
v 19.828165 0.457569 -3.537446
v 19.583656 0.660553 -3.124708
v 19.582716 0.653824 -3.118292
v 19.591614 0.648485 -3.118292
v 19.592402 0.656646 -3.124693
v 18.767262 0.722474 -3.235554
v 18.761583 0.723401 -3.240354
v 18.771832 0.786167 -3.240354
v 18.777544 0.785183 -3.235547
v 18.779493 0.791858 -3.239666
v 18.771824 0.786116 -3.415357
v 18.779493 0.791858 -3.416072
v 18.777544 0.785183 -3.420192
v 18.761583 0.723401 -3.415385
v 18.767313 0.722517 -3.420192
v 19.841221 0.138876 3.456037
v 19.834486 0.139186 3.449512
v 19.910381 0.128496 3.449759
v 19.903183 0.129146 3.456037
v 19.036667 0.678427 3.436754
v 19.027290 0.679956 3.435524
v 19.037558 0.742838 3.435524
v 19.046932 0.741305 3.436754
v 19.047972 0.748018 3.430918
v 19.038475 0.749572 3.429346
v 19.027290 0.679956 3.057396
v 19.036667 0.678427 3.056166
v 19.038475 0.749572 3.063574
v 19.047977 0.748019 3.062010
v 19.046932 0.741305 3.056166
v 19.037558 0.742838 3.057396
v 19.841221 0.138876 3.036884
v 19.834490 0.139143 3.043363
v 19.910368 0.128592 3.043239
v 19.903183 0.129146 3.036884
v 19.776981 0.420769 3.456037
v 19.771133 0.416769 3.449615
v 19.808743 0.359967 3.449602
v 19.815079 0.364177 3.456037
v 19.865360 0.400275 3.456037
v 19.871609 0.405135 3.449630
v 19.833809 0.461777 3.449653
v 19.828125 0.457561 3.456037
v 19.581608 0.587631 3.036884
v 19.579899 0.580216 3.043331
v 19.571182 0.584269 3.043297
v 19.572418 0.591006 3.036884
v 19.582699 0.653805 3.036884
v 19.583651 0.660556 3.043308
v 19.592402 0.656646 3.043284
v 19.591614 0.648485 3.036884
v 19.572418 0.591006 3.456037
v 19.571177 0.584270 3.449612
v 19.579906 0.580210 3.449575
v 19.581608 0.587631 3.456037
v 19.776981 0.420770 3.036884
v 19.815079 0.364177 3.036884
v 19.808743 0.359966 3.043318
v 19.771133 0.416769 3.043305
v 19.833794 0.461792 3.043293
v 19.871605 0.405155 3.043262
v 19.865381 0.400314 3.036884
v 19.828165 0.457569 3.036884
v 19.583656 0.660553 3.449621
v 19.582716 0.653824 3.456037
v 19.591614 0.648485 3.456037
v 19.592402 0.656646 3.449636
v 18.767262 0.722474 3.338775
v 18.761583 0.723401 3.333976
v 18.771832 0.786167 3.333976
v 18.777544 0.785183 3.338783
v 18.779493 0.791858 3.334663
v 18.771824 0.786116 3.158972
v 18.779493 0.791858 3.158257
v 18.777544 0.785183 3.154138
v 18.761583 0.723401 3.158945
v 18.767313 0.722517 3.154138
vt 0.766741 0.951254
vt 0.765094 0.952083
vt 0.755855 0.943540
vt 0.757512 0.941903
vt 0.768802 0.952943
vt 0.766946 0.844613
vt 0.768517 0.827433
vt 0.766829 0.954008
vt 0.785528 0.953025
vt 0.767197 0.970668
vt 0.690370 0.955278
vt 0.691968 0.953173
vt 0.765517 0.972782
vt 0.787614 0.951609
vt 0.795318 0.944516
vt 0.758206 0.979834
vt 0.692462 0.974025
vt 0.690685 0.971989
vt 0.785960 0.827642
vt 0.787347 0.847405
vt 0.690111 0.951831
vt 0.699445 0.942595
vt 0.701128 0.944288
vt 0.883118 0.952472
vt 0.866399 0.952592
vt 0.885186 0.950966
vt 0.883295 0.827630
vt 0.884891 0.844734
vt 0.864294 0.951218
vt 0.700010 0.980812
vt 0.698528 0.982334
vt 0.690572 0.975158
vt 0.864473 0.847457
vt 0.865844 0.827778
vt 0.766986 0.827473
vt 0.756999 0.903834
vt 0.754672 0.902060
vt 0.787403 0.827685
vt 0.797808 0.900697
vt 0.795611 0.902233
vt 0.689608 0.844556
vt 0.689605 0.827410
vt 0.701985 0.902264
vt 0.699682 0.904074
vt 0.864407 0.827795
vt 0.856230 0.902092
vt 0.854087 0.900633
vt 0.748651 0.596894
vt 0.854317 0.903686
vt 0.731116 0.602001
vt 0.702715 0.904193
vt 0.734572 0.543809
vt 0.751965 0.637812
vt 0.733451 0.733494
vt 0.717452 0.550044
vt 0.716806 0.548050
vt 0.745198 0.696265
vt 0.701641 0.982850
vt 0.733837 0.639419
vt 0.701360 0.940970
vt 0.745631 0.694300
vt 0.727448 0.692735
vt 0.727925 0.690671
vt 0.755309 0.905332
vt 0.755588 0.940307
vt 0.884759 0.827621
vt 0.753976 0.903969
vt 0.754164 0.941642
vt 0.847779 0.716008
vt 0.849174 0.716008
vt 0.849177 0.808941
vt 0.847783 0.808941
vt 0.790058 0.695193
vt 0.790058 0.693798
vt 0.807813 0.693797
vt 0.807813 0.695192
vt 0.788664 0.695193
vt 0.790059 0.714615
vt 0.788851 0.715312
vt 0.828631 0.716009
vt 0.830025 0.716009
vt 0.830028 0.808942
vt 0.828634 0.808942
vt 0.809208 0.716009
vt 0.807813 0.714614
vt 0.788664 0.716010
vt 0.790059 0.716010
vt 0.790063 0.808943
vt 0.788668 0.808943
vt 0.807813 0.716009
vt 0.809211 0.808943
vt 0.807817 0.808942
vt 0.769245 0.808944
vt 0.015689 0.024618
vt 0.022018 0.024618
vt 0.021987 0.495502
vt 0.016505 0.498666
vt 0.022019 0.018288
vt 0.642605 0.018330
vt 0.642605 0.024659
vt 0.648934 0.024660
vt 0.648903 0.495544
vt 0.642573 0.495543
vt 0.021986 0.501832
vt 0.642573 0.501873
vt 0.016537 0.021453
vt 0.648935 0.018330
vt 0.005244 0.024617
vt 0.022019 0.007843
vt 0.005212 0.495501
vt 0.015657 0.501831
vt 0.021986 0.512277
vt 0.015656 0.512276
vt 0.642572 0.512318
vt 0.648902 0.501873
vt 0.648902 0.512318
vt 0.648935 0.007885
vt 0.659348 0.495544
vt 0.642606 0.007885
vt 0.630309 0.512321
vt 0.634785 0.516797
vt 0.319999 0.752216
vt 0.634750 0.987682
vt 0.630274 0.992157
vt 0.009688 0.992112
vt 0.005212 0.987635
vt 0.005247 0.516751
vt 0.009723 0.512276
vt 0.870836 0.339220
vt 0.870836 0.340779
vt 0.816092 0.340774
vt 0.816092 0.339216
vt 0.713262 0.339208
vt 0.711704 0.339208
vt 0.711725 0.036349
vt 0.713284 0.036349
vt 0.713263 0.340767
vt 0.734967 0.339210
vt 0.735747 0.340560
vt 0.870858 0.034801
vt 0.870858 0.036360
vt 0.816114 0.036356
vt 0.816114 0.034797
vt 0.736549 0.013087
vt 0.736547 0.034792
vt 0.734988 0.036350
vt 0.736526 0.340769
vt 0.736526 0.339210
vt 0.791270 0.339214
vt 0.792049 0.340564
vt 0.736547 0.036350
vt 0.791291 0.034795
vt 0.791291 0.036354
vt 0.792828 0.340773
vt 0.792829 0.339214
vt 0.814533 0.339215
vt 0.815313 0.340566
vt 0.792850 0.036354
vt 0.792850 0.034796
vt 0.815334 0.035006
vt 0.814555 0.036356
vt 0.791293 0.013091
vt 0.791268 0.362477
vt 0.791270 0.340772
vt 0.779170 0.397564
vt 0.780814 0.397172
vt 0.782355 0.438850
vt 0.780552 0.438742
vt 0.791596 0.392737
vt 0.793352 0.392253
vt 0.794446 0.441049
vt 0.792720 0.440774
vt 0.777580 0.610187
vt 0.777068 0.608503
vt 0.788335 0.604921
vt 0.788603 0.606745
vt 0.790250 0.606711
vt 0.805398 0.654925
vt 0.804032 0.655490
vt 0.789991 0.604979
vt 0.790697 0.506266
vt 0.792310 0.506662
vt 0.857356 0.608131
vt 0.856937 0.609834
vt 0.870546 0.609041
vt 0.869217 0.614507
vt 0.858571 0.610032
vt 0.859009 0.608241
vt 0.838589 0.657183
vt 0.837288 0.656488
vt 0.864975 0.510384
vt 0.866614 0.510178
vt 0.881445 0.396150
vt 0.705574 0.399179
vt 0.706419 0.439512
vt 0.879662 0.438827
vt 0.868851 0.391950
vt 0.870605 0.392327
vt 0.869603 0.441837
vt 0.867902 0.442230
vt 0.781857 0.452352
vt 0.792630 0.452126
vt 0.780192 0.452336
vt 0.780392 0.500793
vt 0.778716 0.499921
vt 0.706295 0.451857
vt 0.794306 0.452115
vt 0.867886 0.453962
vt 0.792279 0.505123
vt 0.790530 0.504562
vt 0.877426 0.506064
vt 0.877881 0.509014
vt 0.866984 0.508487
vt 0.705592 0.497518
vt 0.704587 0.451573
vt 0.705527 0.499261
vt 0.778639 0.501687
vt 0.865196 0.508835
vt 0.869581 0.454150
vt 0.779687 0.503723
vt 0.880540 0.455812
vt 0.804603 0.667870
vt 0.803246 0.667761
vt 0.805362 0.656440
vt 0.837191 0.658005
vt 0.849213 0.661654
vt 0.836807 0.669506
vt 0.779168 0.397556
vt 0.780813 0.397163
vt 0.782356 0.438842
vt 0.780552 0.438734
vt 0.791598 0.392729
vt 0.793355 0.392245
vt 0.794447 0.441041
vt 0.792721 0.440766
vt 0.777565 0.610191
vt 0.777052 0.608507
vt 0.788318 0.604919
vt 0.788586 0.606743
vt 0.790233 0.606709
vt 0.805394 0.654923
vt 0.804028 0.655489
vt 0.789974 0.604977
vt 0.790697 0.506259
vt 0.792309 0.506655
vt 0.857340 0.608127
vt 0.856921 0.609830
vt 0.870530 0.609039
vt 0.869203 0.614499
vt 0.858555 0.610028
vt 0.858993 0.608238
vt 0.838584 0.657179
vt 0.837284 0.656483
vt 0.864969 0.510388
vt 0.866608 0.510182
vt 0.881457 0.396161
vt 0.705561 0.399192
vt 0.706419 0.439524
vt 0.879663 0.438836
vt 0.868864 0.391955
vt 0.870617 0.392333
vt 0.869603 0.441842
vt 0.867903 0.442235
vt 0.781858 0.452344
vt 0.792631 0.452118
vt 0.780194 0.452328
vt 0.780394 0.500785
vt 0.778719 0.499913
vt 0.706298 0.451868
vt 0.794307 0.452108
vt 0.867884 0.453967
vt 0.792279 0.505116
vt 0.790530 0.504555
vt 0.877420 0.506069
vt 0.877875 0.509019
vt 0.866979 0.508491
vt 0.705605 0.497527
vt 0.704590 0.451585
vt 0.705541 0.499270
vt 0.778642 0.501679
vt 0.865190 0.508838
vt 0.869580 0.454155
vt 0.779688 0.503715
vt 0.880538 0.455819
vt 0.804600 0.667869
vt 0.803244 0.667761
vt 0.805357 0.656439
vt 0.837187 0.658001
vt 0.849210 0.661646
vt 0.836805 0.669501
vt 0.659379 0.024660
vt 0.648086 0.021495
vt 0.015689 0.018288
vt 0.015690 0.007843
vt 0.648055 0.498709
vt 0.015657 0.495502
vt 0.702786 0.942328
vt 0.716814 0.726444
vt 0.733875 0.637298
vt 0.701377 0.905576
vt 0.730715 0.599924
vt 0.756661 0.981918
vt 0.797390 0.943018
vt 0.758171 0.983205
vt 0.751930 0.639823
vt 0.700178 0.984185
vt 0.854503 0.942705
vt 0.759759 0.981284
vt 0.733814 0.541949
vt 0.797543 0.903827
vt 0.798462 0.902733
vt 0.748914 0.598885
vt 0.856569 0.944180
vt 0.853408 0.902630
vt 0.688783 0.972238
vt 0.688483 0.955034
vt 0.767442 0.973848
vt 0.769086 0.970867
vt 0.809020 0.694495
vt 0.809208 0.714615
vt 0.769242 0.716011
vt 0.809021 0.715312
vt 0.809207 0.695192
vt 0.788664 0.714615
vt 0.788851 0.694495
vt 0.704714 0.440017
vt 0.703888 0.399027
vt 0.838221 0.669508
vt 0.793030 0.658961
vt 0.869891 0.612904
vt 0.776648 0.604564
vt 0.879299 0.508090
vt 0.879397 0.506203
vt 0.703888 0.498130
vt 0.838219 0.669503
vt 0.793027 0.658964
vt 0.869876 0.612895
vt 0.776631 0.604558
vt 0.704714 0.440029
vt 0.703876 0.399041
vt 0.879293 0.508095
vt 0.879391 0.506208
vt 0.703902 0.498140
vt 0.712504 0.034999
vt 0.734988 0.034792
vt 0.736524 0.362473
vt 0.735768 0.035000
vt 0.713284 0.034790
vt 0.734967 0.340769
vt 0.712483 0.340558
vt 0.814555 0.034797
vt 0.814533 0.340774
vt 0.792071 0.035005
vn -0.985285 0.168452 0.028922
vn -0.977313 0.211785 0.002439
vn -0.976973 0.213362 0.000896
vn -0.985435 0.167548 0.029071
vn -0.663062 0.115523 0.739597
vn -0.663062 0.115523 0.739597
vn -0.663121 0.115517 0.739545
vn -0.680211 0.113605 0.724159
vn 0.113741 0.697556 0.707446
vn 0.113741 0.697556 0.707446
vn 0.113741 0.697555 0.707446
vn 0.113741 0.697556 0.707446
vn -0.586292 0.810052 0.008812
vn -0.595098 0.803313 0.023397
vn -0.594578 0.803717 -0.022732
vn -0.585990 0.810273 -0.008528
vn 0.995230 -0.097503 0.003139
vn 0.982330 -0.163671 0.090768
vn 0.981906 -0.164983 0.092960
vn 0.995462 -0.095160 0.000966
vn 0.814304 0.579978 0.023142
vn 0.807773 0.589439 0.008003
vn 0.807833 0.589358 -0.007912
vn 0.814729 0.579348 -0.023936
vn 0.695879 -0.116283 0.708683
vn 0.695879 -0.116283 0.708683
vn 0.697941 -0.116557 0.706607
vn 0.695885 -0.116283 0.708677
vn -0.977320 0.211757 -0.002342
vn -0.985293 0.168401 -0.028953
vn -0.985439 0.167523 -0.029094
vn -0.976969 0.213382 -0.000702
vn 0.113777 0.697743 -0.707255
vn 0.113777 0.697743 -0.707255
vn 0.113777 0.697743 -0.707255
vn 0.113777 0.697743 -0.707255
vn -0.666808 0.116076 -0.736135
vn -0.666808 0.116076 -0.736135
vn -0.683491 0.113927 -0.721014
vn -0.666865 0.116068 -0.736083
vn 0.982321 -0.163664 -0.090878
vn 0.995232 -0.097490 -0.003124
vn 0.995461 -0.095162 -0.000949
vn 0.981895 -0.164982 -0.093073
vn 0.691868 -0.115516 -0.712724
vn 0.691868 -0.115516 -0.712724
vn 0.691877 -0.115517 -0.712714
vn 0.695173 -0.115939 -0.709432
vn -0.986720 0.162433 -0.000041
vn -0.986597 0.163175 -0.000687
vn -0.985678 0.166621 0.026009
vn -0.986720 0.162429 -0.000308
vn 0.981760 -0.168645 0.087787
vn 0.983565 -0.180555 0.000314
vn 0.983630 -0.180165 0.003439
vn 0.981619 -0.166239 0.093752
vn -0.986596 0.163182 0.000690
vn -0.986720 0.162433 0.000020
vn -0.986720 0.162430 0.000290
vn -0.985683 0.166585 -0.026043
vn 0.983565 -0.180556 -0.000292
vn 0.981709 -0.168532 -0.088573
vn 0.981605 -0.166219 -0.093936
vn 0.983630 -0.180166 -0.003410
vn 0.238782 0.656614 0.715430
vn 0.238782 0.656614 0.715430
vn 0.238782 0.656614 0.715430
vn 0.238782 0.656614 0.715430
vn 0.845178 0.534183 0.017963
vn 0.844774 0.534873 0.016338
vn 0.845075 0.534399 -0.016331
vn 0.845247 0.534105 -0.017004
vn 0.732163 -0.118445 0.670752
vn 0.732163 -0.118445 0.670752
vn 0.745571 -0.156265 0.647847
vn 0.738508 -0.135828 0.660422
vn 0.237489 0.653652 -0.718567
vn 0.237489 0.653652 -0.718566
vn 0.237489 0.653652 -0.718566
vn 0.237489 0.653652 -0.718567
vn 0.735410 -0.118944 -0.667101
vn 0.735410 -0.118944 -0.667101
vn 0.741548 -0.136293 -0.656910
vn 0.748384 -0.156732 -0.644482
vn 0.022150 -0.713376 0.700432
vn 0.022150 -0.713376 0.700432
vn 0.022150 -0.713376 0.700432
vn 0.022150 -0.713376 0.700432
vn 0.665740 -0.746097 0.011411
vn 0.673626 -0.738611 0.026119
vn 0.673517 -0.738707 -0.026204
vn 0.665699 -0.746131 -0.011588
vn 0.019890 -0.715231 -0.698605
vn 0.019890 -0.715231 -0.698605
vn 0.019890 -0.715231 -0.698605
vn 0.019890 -0.715231 -0.698605
vn -0.585096 0.810693 0.020968
vn -0.584723 0.810994 0.019690
vn -0.584581 0.811105 -0.019340
vn -0.585198 0.810608 -0.021410
vn -0.675790 0.113542 0.728297
vn -0.675790 0.113542 0.728297
vn -0.675790 0.113542 0.728297
vn -0.675790 0.113542 0.728297
vn -0.678169 0.116452 -0.725621
vn -0.678169 0.116452 -0.725621
vn -0.678169 0.116452 -0.725621
vn -0.678169 0.116452 -0.725621
vn -0.821912 -0.569614 -0.000746
vn -0.821912 -0.569614 -0.000746
vn -0.821912 -0.569614 -0.000746
vn -0.821912 -0.569614 -0.000746
vn 0.000000 0.000000 1.000000
vn 0.000000 0.000000 1.000000
vn 0.000000 0.000000 1.000000
vn 0.000000 0.000000 1.000000
vn -0.000055 0.000008 -1.000000
vn -0.000055 0.000008 -1.000000
vn -0.000055 0.000008 -1.000000
vn -0.000055 0.000008 -1.000000
vn 0.252037 0.967718 0.000003
vn 0.252037 0.967718 0.000003
vn 0.252037 0.967718 0.000003
vn 0.252037 0.967718 0.000003
vn 0.087016 -0.014744 0.996098
vn 0.087016 -0.014744 0.996098
vn 0.087016 -0.014744 0.996098
vn 0.087016 -0.014744 0.996098
vn -0.058672 -0.998277 -0.000709
vn -0.058672 -0.998277 -0.000709
vn -0.058672 -0.998277 -0.000709
vn -0.058672 -0.998277 -0.000709
vn 0.084027 -0.012525 -0.996385
vn 0.084027 -0.012525 -0.996385
vn 0.084027 -0.012525 -0.996385
vn 0.084027 -0.012525 -0.996385
vn 0.161128 0.986934 -0.000001
vn 0.161128 0.986934 -0.000001
vn 0.161128 0.986934 -0.000001
vn 0.161128 0.986934 -0.000001
vn -0.749141 0.530012 0.397336
vn -0.749141 0.530012 0.397336
vn 0.878593 0.294541 0.375924
vn 0.878594 0.294541 0.375924
vn -0.745804 0.546186 -0.381389
vn -0.745804 0.546186 -0.381389
vn 0.877463 0.283718 -0.386734
vn 0.877463 0.283718 -0.386734
vn -0.698377 0.111459 0.706998
vn 0.699343 -0.116744 0.705188
vn -0.700980 0.111560 -0.704401
vn 0.697441 -0.116229 -0.707154
vn 0.865172 0.344234 0.364665
vn 0.865172 0.344234 0.364665
vn 0.867468 0.340456 -0.362751
vn 0.867468 0.340456 -0.362751
vn -0.645615 0.635037 0.424158
vn -0.645615 0.635037 0.424158
vn -0.647739 0.635697 -0.419909
vn -0.647739 0.635697 -0.419909
vn -0.881387 -0.249062 0.401405
vn -0.881387 -0.249062 0.401405
vn -0.881387 -0.249062 0.401405
vn -0.881387 -0.249062 0.401405
vn -0.881048 -0.246490 -0.403729
vn -0.881048 -0.246490 -0.403729
vn -0.881048 -0.246490 -0.403729
vn -0.881048 -0.246490 -0.403729
vn -0.811948 -0.583730 0.000000
vn -0.811948 -0.583730 0.000000
vn -0.811948 -0.583730 0.000000
vn -0.811948 -0.583730 0.000000
vn -0.113945 -0.697873 0.707100
vn -0.113945 -0.697873 0.707100
vn -0.113945 -0.697873 0.707100
vn -0.113945 -0.697873 0.707100
vn -0.697922 0.113953 0.707050
vn -0.697922 0.113953 0.707050
vn -0.697922 0.113953 0.707050
vn -0.697922 0.113953 0.707050
vn 0.583775 -0.811916 0.000000
vn 0.583775 -0.811916 0.000000
vn 0.583775 -0.811916 0.000000
vn 0.583775 -0.811916 0.000000
vn 0.697843 -0.113953 0.707128
vn 0.697843 -0.113953 0.707128
vn 0.697843 -0.113953 0.707128
vn 0.697843 -0.113953 0.707128
vn -0.584003 0.811751 0.000000
vn -0.584003 0.811751 0.000000
vn -0.584003 0.811751 0.000000
vn -0.584003 0.811751 0.000000
vn 0.113957 0.697904 0.707067
vn 0.113957 0.697904 0.707067
vn 0.113957 0.697904 0.707067
vn 0.113957 0.697904 0.707067
vn 0.811702 0.584071 0.000000
vn 0.811702 0.584071 0.000000
vn 0.811702 0.584071 0.000000
vn 0.811702 0.584071 0.000000
vn 0.000000 0.000000 1.000000
vn 0.000000 0.000000 1.000000
vn 0.000000 0.000000 1.000000
vn 0.000000 0.000000 1.000000
vn 0.161145 0.986931 0.000000
vn 0.161145 0.986931 0.000000
vn 0.161145 0.986931 0.000000
vn 0.161145 0.986931 0.000000
vn -0.161120 -0.986935 0.000000
vn -0.161120 -0.986935 0.000000
vn -0.161120 -0.986935 0.000000
vn -0.161120 -0.986935 0.000000
vn 0.986929 -0.161158 0.000000
vn 0.986929 -0.161158 0.000000
vn 0.986929 -0.161158 0.000000
vn 0.986929 -0.161158 0.000000
vn -0.986932 0.161137 0.000000
vn -0.986932 0.161137 0.000000
vn -0.986932 0.161137 0.000000
vn -0.986932 0.161137 0.000000
vn -0.662886 -0.476622 0.577420
vn -0.662886 -0.476622 0.577420
vn -0.662886 -0.476622 0.577420
vn 0.476617 -0.662987 0.577307
vn 0.476617 -0.662987 0.577307
vn 0.476617 -0.662987 0.577307
vn -0.476890 0.662876 0.577210
vn -0.476890 0.662876 0.577210
vn -0.476890 0.662876 0.577210
vn 0.662698 0.476900 0.577407
vn 0.662698 0.476900 0.577407
vn 0.662698 0.476900 0.577406
vn -0.583914 0.811816 0.000000
vn -0.583914 0.811816 0.000000
vn -0.583914 0.811816 0.000000
vn -0.583914 0.811816 0.000000
vn 0.113947 0.697864 0.707108
vn 0.113947 0.697864 0.707108
vn 0.113947 0.697864 0.707108
vn 0.113947 0.697864 0.707108
vn 0.811815 0.583915 0.000000
vn 0.811815 0.583915 0.000000
vn 0.811815 0.583915 0.000000
vn 0.811815 0.583915 0.000000
vn 0.113947 0.697864 -0.707108
vn 0.113947 0.697864 -0.707108
vn 0.113947 0.697864 -0.707108
vn 0.113947 0.697864 -0.707108
vn 0.161146 0.986931 0.000000
vn 0.161146 0.986931 0.000000
vn 0.161146 0.986931 0.000000
vn 0.161146 0.986931 0.000000
vn -0.476766 0.662859 0.577332
vn -0.476766 0.662859 0.577332
vn -0.476766 0.662859 0.577332
vn 0.662836 0.476774 0.577352
vn 0.662836 0.476774 0.577352
vn 0.662836 0.476774 0.577352
vn -0.476766 0.662858 -0.577332
vn -0.476766 0.662858 -0.577332
vn -0.476766 0.662858 -0.577332
vn 0.662837 0.476773 -0.577351
vn 0.662837 0.476773 -0.577351
vn 0.662837 0.476773 -0.577351
vn -0.697870 0.113948 0.707103
vn -0.697870 0.113948 0.707103
vn -0.697870 0.113948 0.707103
vn -0.697870 0.113948 0.707103
vn -0.986931 0.161146 0.000000
vn -0.986931 0.161146 0.000000
vn -0.986931 0.161146 0.000000
vn -0.986931 0.161146 0.000000
vn -0.697869 0.113948 -0.707103
vn -0.697869 0.113948 -0.707103
vn -0.697869 0.113948 -0.707103
vn -0.697869 0.113948 -0.707103
vn 0.000000 0.000000 -1.000000
vn 0.000000 0.000000 -1.000000
vn 0.000000 0.000000 -1.000000
vn 0.000000 0.000000 -1.000000
vn 0.697867 -0.113955 -0.707104
vn 0.697867 -0.113954 -0.707104
vn 0.697867 -0.113954 -0.707104
vn 0.697867 -0.113955 -0.707104
vn 0.986931 -0.161145 0.000000
vn 0.986931 -0.161145 0.000000
vn 0.986931 -0.161145 0.000000
vn 0.986931 -0.161145 0.000000
vn 0.697868 -0.113954 0.707103
vn 0.697868 -0.113954 0.707103
vn 0.697868 -0.113954 0.707103
vn 0.697868 -0.113954 0.707103
vn 0.000000 0.000000 1.000000
vn 0.000000 0.000000 1.000000
vn 0.000000 0.000000 1.000000
vn 0.000000 0.000000 1.000000
vn -0.161162 -0.986928 -0.000022
vn -0.161162 -0.986928 -0.000022
vn -0.161162 -0.986928 -0.000022
vn -0.161146 -0.986931 0.000000
vn -0.161146 -0.986931 0.000000
vn -0.161146 -0.986931 0.000000
vn -0.161162 -0.986928 0.000022
vn -0.161162 -0.986928 0.000022
vn -0.161162 -0.986928 0.000022
vn -0.161146 -0.986931 0.000000
vn -0.161146 -0.986931 0.000000
vn -0.161146 -0.986931 0.000000
vn -0.161143 -0.986931 0.000007
vn -0.161143 -0.986931 0.000007
vn -0.161143 -0.986931 0.000007
vn -0.161146 -0.986931 0.000000
vn -0.161146 -0.986931 0.000000
vn -0.161146 -0.986931 0.000000
vn -0.161143 -0.986931 -0.000007
vn -0.161143 -0.986931 -0.000007
vn -0.161143 -0.986931 -0.000007
vn -0.161146 -0.986931 -0.000000
vn -0.161146 -0.986931 -0.000000
vn -0.161146 -0.986931 -0.000000
vn -0.811764 -0.583986 0.000000
vn -0.811764 -0.583986 0.000000
vn -0.811764 -0.583986 0.000000
vn -0.811764 -0.583986 0.000000
vn -0.113955 -0.697911 0.707060
vn -0.113955 -0.697911 0.707060
vn -0.113955 -0.697911 0.707060
vn -0.113955 -0.697911 0.707060
vn -0.697773 0.113937 0.707200
vn -0.697773 0.113937 0.707200
vn -0.697773 0.113937 0.707200
vn -0.697773 0.113937 0.707200
vn 0.583928 -0.811806 0.000000
vn 0.583928 -0.811806 0.000000
vn 0.583928 -0.811806 0.000000
vn 0.583928 -0.811806 0.000000
vn 0.697841 -0.113948 0.707131
vn 0.697841 -0.113948 0.707131
vn 0.697841 -0.113948 0.707131
vn 0.697841 -0.113948 0.707131
vn -0.583771 0.811919 0.000000
vn -0.583771 0.811919 0.000000
vn -0.583771 0.811919 0.000000
vn -0.583771 0.811919 0.000000
vn 0.113942 0.697834 0.707138
vn 0.113942 0.697834 0.707138
vn 0.113942 0.697834 0.707138
vn 0.113942 0.697834 0.707138
vn 0.811841 0.583879 0.000000
vn 0.811841 0.583879 0.000000
vn 0.811841 0.583879 0.000000
vn 0.811841 0.583879 0.000000
vn -0.697775 0.113937 -0.707198
vn -0.697775 0.113937 -0.707198
vn -0.697775 0.113937 -0.707198
vn -0.697775 0.113937 -0.707198
vn 0.113942 0.697834 -0.707138
vn 0.113942 0.697834 -0.707138
vn 0.113942 0.697834 -0.707138
vn 0.113942 0.697834 -0.707138
vn 0.697841 -0.113948 -0.707131
vn 0.697841 -0.113948 -0.707131
vn 0.697841 -0.113948 -0.707131
vn 0.697841 -0.113948 -0.707131
vn -0.113952 -0.697894 -0.707077
vn -0.113952 -0.697894 -0.707077
vn -0.113952 -0.697894 -0.707077
vn -0.113952 -0.697894 -0.707077
vn 0.000000 0.000000 1.000000
vn 0.000000 0.000000 1.000000
vn 0.000000 0.000000 1.000000
vn 0.000000 0.000000 1.000000
vn 0.161145 0.986931 0.000000
vn 0.161145 0.986931 0.000000
vn 0.161145 0.986931 0.000000
vn 0.161145 0.986931 0.000000
vn 0.000000 0.000000 -1.000000
vn 0.000000 0.000000 -1.000000
vn 0.000000 0.000000 -1.000000
vn 0.000000 0.000000 -1.000000
vn -0.161147 -0.986930 0.000000
vn -0.161147 -0.986930 0.000000
vn -0.161147 -0.986930 0.000000
vn -0.161147 -0.986930 0.000000
vn 0.986930 -0.161150 0.000000
vn 0.986930 -0.161150 0.000000
vn 0.986930 -0.161150 0.000000
vn 0.986930 -0.161150 0.000000
vn -0.986929 0.161157 0.000000
vn -0.986929 0.161157 0.000000
vn -0.986929 0.161157 0.000000
vn -0.986929 0.161157 0.000000
vn -0.662827 -0.476745 0.577387
vn -0.662827 -0.476745 0.577387
vn -0.662827 -0.476745 0.577387
vn 0.476756 -0.662721 0.577499
vn 0.476756 -0.662721 0.577499
vn 0.476756 -0.662721 0.577499
vn -0.476590 0.662924 0.577403
vn -0.476590 0.662924 0.577403
vn -0.476590 0.662924 0.577403
vn 0.662881 0.476771 0.577302
vn 0.662881 0.476771 0.577302
vn 0.662881 0.476771 0.577302
vn -0.476591 0.662924 -0.577403
vn -0.476591 0.662924 -0.577403
vn -0.476591 0.662924 -0.577403
vn 0.662881 0.476772 -0.577303
vn 0.662881 0.476772 -0.577303
vn 0.662881 0.476772 -0.577303
vn -0.662827 -0.476745 -0.577387
vn -0.662827 -0.476745 -0.577387
vn -0.662827 -0.476745 -0.577387
vn 0.476756 -0.662721 -0.577499
vn 0.476756 -0.662721 -0.577499
vn 0.476756 -0.662721 -0.577499
vn -0.689602 -0.080355 0.719716
vn -0.689602 -0.080355 0.719716
vn -0.655382 -0.164889 0.737080
vn -0.666010 -0.140230 0.732643
vn 0.667514 0.093510 0.738702
vn 0.667514 0.093510 0.738702
vn 0.639994 0.164434 0.750579
vn 0.650826 0.137783 0.746620
vn -0.333401 0.054494 0.941209
vn -0.036626 0.005991 0.999311
vn -0.036626 0.005991 0.999311
vn -0.333400 0.054493 0.941209
vn -0.171418 0.625430 0.761218
vn -0.174286 0.624560 0.761281
vn -0.393243 0.774477 0.495525
vn -0.182254 0.622704 0.760936
vn 0.080636 0.664795 0.742661
vn 0.080871 0.664785 0.742645
vn 0.087478 0.663646 0.742914
vn 0.085910 0.663968 0.742809
vn 0.161161 0.986928 0.000000
vn 0.161146 0.986931 0.000004
vn 0.161146 0.986931 0.000004
vn 0.161161 0.986928 0.000000
vn -0.036625 0.005987 -0.999311
vn -0.333418 0.054447 -0.941206
vn -0.333418 0.054447 -0.941206
vn -0.036625 0.005987 -0.999311
vn -0.174259 0.624571 -0.761278
vn -0.171385 0.625446 -0.761213
vn -0.182315 0.622710 -0.760916
vn -0.393035 0.774329 -0.495922
vn 0.080861 0.664623 -0.742791
vn 0.080630 0.664635 -0.742805
vn 0.085876 0.663798 -0.742965
vn 0.087424 0.663478 -0.743071
vn -0.688314 -0.080139 -0.720973
vn -0.688314 -0.080139 -0.720973
vn -0.664921 -0.140125 -0.733652
vn -0.654383 -0.164820 -0.737982
vn 0.669673 0.093652 -0.736727
vn 0.669673 0.093652 -0.736727
vn 0.652944 0.137970 -0.744734
vn 0.642068 0.164684 -0.748751
vn 0.000000 0.000000 1.000000
vn 0.000000 0.000000 1.000000
vn 0.000000 0.000000 1.000000
vn 0.000000 0.000000 1.000000
vn -0.468483 -0.492966 0.733149
vn -0.472804 -0.486713 0.734553
vn -0.437716 -0.528690 0.727249
vn -0.441963 -0.526134 0.726533
vn -0.974923 -0.222543 0.000001
vn -0.693448 -0.720507 -0.000000
vn -0.693447 -0.720508 -0.000000
vn -0.974925 -0.222532 0.000001
vn 0.669281 0.743009 0.000002
vn 0.974608 0.223920 -0.000000
vn 0.974610 0.223910 -0.000000
vn 0.669292 0.743000 0.000002
vn 0.450220 0.501917 0.738500
vn 0.453710 0.497083 0.739632
vn 0.422914 0.534620 0.731659
vn 0.426410 0.532378 0.731265
vn 0.000000 0.000000 -1.000000
vn -0.034362 0.005618 -0.999394
vn -0.034575 0.005652 -0.999386
vn 0.000000 0.000000 -1.000000
vn -0.441689 -0.525818 -0.726929
vn -0.437462 -0.528354 -0.727646
vn -0.472591 -0.486459 -0.734858
vn -0.468262 -0.492700 -0.733470
vn -0.421698 -0.906736 -0.000005
vn -0.642139 -0.766588 -0.000000
vn -0.642138 -0.766589 -0.000000
vn -0.421698 -0.906736 -0.000005
vn 0.622129 0.782915 0.000002
vn 0.165832 0.986154 0.000004
vn 0.165830 0.986154 0.000004
vn 0.622126 0.782917 0.000002
vn 0.427295 0.533528 -0.729909
vn 0.423725 0.535740 -0.730370
vn 0.454533 0.498525 -0.738155
vn 0.451252 0.503053 -0.737095
vn -0.034361 0.005621 0.999394
vn 0.000000 0.000000 1.000000
vn 0.000000 0.000000 1.000000
vn -0.034574 0.005656 0.999386
vn 0.000000 0.000000 -1.000000
vn 0.000000 0.000000 -1.000000
vn 0.000000 0.000000 -1.000000
vn 0.000000 0.000000 -1.000000
vn -0.631073 0.103213 0.768826
vn -0.631073 0.103213 0.768826
vn -0.631073 0.103213 0.768826
vn -0.631073 0.103213 0.768826
vn -0.598152 0.801354 0.006790
vn -0.598185 0.801328 -0.006951
vn -0.631039 0.103205 -0.768855
vn -0.631039 0.103205 -0.768855
vn -0.631039 0.103205 -0.768855
vn -0.631039 0.103205 -0.768855
vn 0.000000 0.000000 1.000000
vn 0.000000 0.000000 1.000000
vn -0.986931 0.161144 -0.000002
vn -0.986931 0.161144 -0.000002
vn -0.986931 0.161144 -0.000002
vn -0.986931 0.161144 -0.000002
vn 0.000000 0.000000 -1.000000
vn 0.000000 0.000000 -1.000000
vn 0.990321 0.138796 -0.000001
vn 0.990321 0.138796 -0.000001
vn -0.993272 -0.115809 0.000002
vn -0.993272 -0.115809 0.000002
vn -0.340189 0.055604 0.938712
vn -0.340189 0.055604 0.938712
vn 0.161143 0.986931 0.000000
vn 0.161143 0.986931 0.000000
vn -0.340215 0.055557 -0.938705
vn -0.340215 0.055557 -0.938705
vn -0.255951 -0.620415 -0.741333
vn -0.255951 -0.620415 -0.741333
vn -0.256142 -0.621037 0.740746
vn -0.256142 -0.621037 0.740746
vn -0.689602 -0.080355 0.719716
vn -0.689602 -0.080355 0.719716
vn -0.655378 -0.164890 0.737083
vn -0.666007 -0.140231 0.732646
vn 0.667514 0.093510 0.738702
vn 0.667514 0.093510 0.738702
vn 0.639994 0.164434 0.750579
vn 0.650826 0.137783 0.746620
vn -0.333400 0.054494 0.941209
vn -0.036627 0.005991 0.999311
vn -0.036627 0.005991 0.999311
vn -0.333399 0.054493 0.941209
vn -0.171405 0.625432 0.761220
vn -0.174273 0.624562 0.761283
vn -0.393236 0.774480 0.495527
vn -0.182240 0.622706 0.760938
vn 0.080642 0.664795 0.742660
vn 0.080877 0.664784 0.742644
vn 0.087484 0.663646 0.742913
vn 0.085916 0.663968 0.742809
vn 0.161161 0.986928 0.000000
vn 0.161146 0.986931 0.000004
vn 0.161146 0.986931 0.000004
vn 0.161161 0.986928 0.000000
vn -0.036626 0.005987 -0.999311
vn -0.333419 0.054447 -0.941205
vn -0.333419 0.054447 -0.941205
vn -0.036626 0.005987 -0.999311
vn -0.174259 0.624571 -0.761278
vn -0.171385 0.625446 -0.761213
vn -0.182316 0.622710 -0.760916
vn -0.393036 0.774328 -0.495922
vn 0.080861 0.664623 -0.742791
vn 0.080630 0.664635 -0.742805
vn 0.085876 0.663798 -0.742965
vn 0.087425 0.663478 -0.743071
vn -0.688329 -0.080137 -0.720959
vn -0.688329 -0.080137 -0.720959
vn -0.664936 -0.140122 -0.733639
vn -0.654397 -0.164817 -0.737970
vn 0.669711 0.093648 -0.736693
vn 0.669711 0.093648 -0.736693
vn 0.652978 0.137965 -0.744705
vn 0.642100 0.164678 -0.748725
vn 0.000003 0.000000 1.000000
vn 0.000000 0.000000 1.000000
vn 0.000000 0.000000 1.000000
vn 0.000003 0.000000 1.000000
vn -0.468495 -0.492962 0.733144
vn -0.472814 -0.486709 0.734548
vn -0.437736 -0.528685 0.727241
vn -0.441983 -0.526129 0.726526
vn -0.974923 -0.222544 0.000001
vn -0.693448 -0.720507 -0.000000
vn -0.693447 -0.720508 -0.000000
vn -0.974925 -0.222533 0.000001
vn 0.669281 0.743009 0.000002
vn 0.974607 0.223920 -0.000000
vn 0.974610 0.223910 -0.000000
vn 0.669292 0.743000 0.000002
vn 0.450220 0.501917 0.738500
vn 0.453710 0.497083 0.739632
vn 0.422915 0.534620 0.731658
vn 0.426411 0.532377 0.731265
vn 0.000000 0.000000 -1.000000
vn -0.034362 0.005618 -0.999394
vn -0.034575 0.005652 -0.999386
vn 0.000000 0.000000 -1.000000
vn -0.441699 -0.525815 -0.726925
vn -0.437473 -0.528351 -0.727642
vn -0.472600 -0.486456 -0.734853
vn -0.468272 -0.492697 -0.733465
vn -0.421698 -0.906736 -0.000005
vn -0.642139 -0.766588 -0.000000
vn -0.642138 -0.766589 -0.000000
vn -0.421698 -0.906736 -0.000005
vn 0.622129 0.782915 0.000002
vn 0.165832 0.986154 0.000004
vn 0.165830 0.986154 0.000004
vn 0.622126 0.782917 0.000002
vn 0.427295 0.533528 -0.729909
vn 0.423726 0.535739 -0.730370
vn 0.454536 0.498524 -0.738154
vn 0.451254 0.503052 -0.737095
vn -0.034364 0.005621 0.999394
vn 0.000003 0.000000 1.000000
vn 0.000002 0.000000 1.000000
vn -0.034577 0.005656 0.999386
vn -0.000003 0.000000 -1.000000
vn 0.000000 0.000000 -1.000000
vn 0.000000 0.000000 -1.000000
vn -0.000002 0.000000 -1.000000
vn -0.631036 0.103217 0.768856
vn -0.631036 0.103217 0.768856
vn -0.631036 0.103217 0.768856
vn -0.631036 0.103217 0.768856
vn -0.598152 0.801354 0.006790
vn -0.598186 0.801327 -0.006951
vn -0.631058 0.103203 -0.768840
vn -0.631058 0.103203 -0.768840
vn -0.631058 0.103203 -0.768840
vn -0.631058 0.103203 -0.768840
vn 0.000000 0.000000 1.000000
vn 0.000000 0.000000 1.000000
vn -0.986931 0.161144 -0.000002
vn -0.986931 0.161144 -0.000002
vn -0.986931 0.161144 -0.000002
vn -0.986931 0.161144 -0.000002
vn -0.000004 0.000000 -1.000000
vn -0.000004 0.000000 -1.000000
vn 0.990321 0.138797 -0.000001
vn 0.990321 0.138797 -0.000001
vn -0.993271 -0.115809 0.000002
vn -0.993271 -0.115809 0.000002
vn -0.340189 0.055604 0.938712
vn -0.340189 0.055604 0.938712
vn 0.161143 0.986931 0.000000
vn 0.161143 0.986931 0.000000
vn -0.340215 0.055557 -0.938705
vn -0.340215 0.055557 -0.938705
vn -0.255961 -0.620413 -0.741331
vn -0.255961 -0.620413 -0.741331
vn -0.256151 -0.621035 0.740744
vn -0.256151 -0.621035 0.740744
s 1
g opendoor group4
usemtl lambert2SG
f 1/1/1 4/2/2 57/3/3 60/4/4
s 2
f 2/5/5 1/1/6 18/6/7 17/7/8
s off
f 3/8/9 2/5/10 7/318/11 6/10/12
s 3
f 4/2/13 3/8/14 10/11/15 9/12/16
s 4
f 5/13/17 8/317/18 43/308/19 42/16/20
s 5
f 6/10/21 5/13/22 16/17/23 15/18/24
s 6
f 8/14/25 7/9/26 22/19/27 21/20/28
s 1
f 9/12/29 12/21/30 53/22/31 56/23/32
s off
f 11/316/33 10/11/34 15/18/35 14/315/36
s 8
f 12/26/37 11/24/38 25/27/39 24/28/40
s 4
f 13/32/41 16/17/42 39/30/43 38/31/44
s 9
f 14/25/45 13/29/46 27/33/47 26/34/48
s 1
f 19/35/49 18/6/50 49/36/51 52/37/52
s 4
f 21/20/53 20/38/54 35/39/55 34/40/56
s 1
f 24/41/57 23/42/58 45/43/59 48/44/60
s 4
f 28/45/61 27/33/62 31/46/63 30/47/64
s off
f 29/48/65 32/312/66 47/50/67 46/301/68
s 11
f 30/47/69 29/314/70 36/311/71 35/39/72
s 12
f 32/49/73 31/46/74 38/313/75 37/307/76
s off
f 33/309/77 36/52/78 51/55/79 50/56/80
s 12
f 34/40/81 33/310/82 44/303/83 43/15/84
s off
f 37/53/85 40/305/86 55/59/87 54/299/88
s 12
f 40/58/89 39/30/90 42/16/91 41/302/92
s off
f 41/61/93 44/57/94 59/62/95 58/63/96
s 14
f 46/51/97 45/43/98 52/37/99 51/67/100
s off
f 48/44/101 47/300/102 54/60/103 53/22/104
f 50/64/105 49/36/106 60/4/107 59/65/108
f 56/23/109 55/297/110 58/68/111 57/3/112
f 2/5/113 17/7/114 22/19/115 7/9/116
f 11/24/117 14/25/118 26/34/119 25/27/120
s 1
f 49/36/51 18/6/50 1/1/1 60/4/4
s 4
f 35/39/55 20/38/54 28/45/61 30/47/64
f 31/46/63 27/33/62 13/29/41 38/313/44
f 16/17/42 5/13/17 42/16/20 39/30/43
f 8/14/18 21/20/53 34/40/56 43/15/19
s off
f 36/52/121 29/48/122 46/301/123 51/55/124
f 32/312/125 37/53/126 54/299/127 47/50/128
f 40/305/129 41/61/130 58/63/131 55/59/132
f 44/57/133 33/54/134 50/298/135 59/62/136
s 1
f 9/12/29 56/23/32 57/3/3 4/2/2
s off
f 3/8/137 6/10/138 15/18/139 10/11/140
s 1
f 12/21/30 24/41/57 48/44/60 53/22/31
f 45/43/59 23/42/58 19/35/49 52/37/52
s 3
f 1/1/141 2/5/142 3/8/14 4/2/13
s 5
f 5/13/22 6/10/21 7/318/143 8/317/144
s 3
f 9/12/16 10/11/15 11/316/145 12/21/146
s 5
f 13/32/147 14/315/148 15/18/24 16/17/23
s 2
f 17/7/8 18/6/7 19/35/149
s 6
f 20/38/150 21/20/28 22/19/27
s 8
f 23/66/151 24/28/40 25/27/39
s 9
f 26/34/48 27/33/47 28/45/152
s 11
f 29/314/70 30/47/69 31/46/153 32/49/154
f 33/310/155 34/40/156 35/39/72 36/311/71
s 12
f 37/306/76 38/31/75 39/30/90 40/58/89
f 41/302/92 42/16/91 43/308/84 44/304/83
s 14
f 45/43/98 46/51/97 47/300/157 48/44/158
f 49/36/159 50/64/160 51/67/100 52/37/99
s off
f 53/22/161 54/60/162 55/297/163 56/23/164
f 57/3/165 58/68/166 59/65/167 60/4/168
f 61/69/169 63/70/170 78/71/171 77/72/172
f 62/73/173 61/74/174 66/75/175 65/76/176
f 63/77/177 62/73/178 68/78/179 67/324/180
f 64/80/181 66/81/182 80/82/183 79/83/184
f 65/76/185 64/323/186 72/320/187 71/85/188
f 67/86/189 69/87/190 74/88/191 73/89/192
f 69/87/193 68/78/194 71/85/195 70/90/196
f 70/90/197 72/84/198 76/91/199 75/92/200
f 62/73/201 65/76/202 71/85/203 68/78/204
f 69/87/205 70/90/206 75/92/207 74/88/208
f 61/69/209 77/72/210 80/82/211 66/81/212
f 64/80/213 79/83/214 76/91/215 72/84/216
f 78/93/217 63/321/218 67/86/219 73/89/220
f 61/74/221 62/73/222 63/325/223
f 64/319/224 65/76/225 66/75/226
f 67/79/227 68/78/228 69/87/229
f 70/90/230 71/85/231 72/322/232
f 81/94/233 83/95/234 88/96/235 87/296/236
f 83/95/237 82/98/238 85/99/239 84/100/240
f 84/100/241 86/101/242 92/102/243 91/103/244
f 89/104/245 88/96/246 91/103/247 90/105/248
f 83/95/249 84/100/250 91/103/251 88/96/252
f 81/106/253 82/98/254 83/95/255
f 84/100/256 85/99/257 86/292/258
f 87/97/259 88/96/260 89/104/261
f 90/105/262 91/103/263 92/295/264
f 94/294/265 93/109/266 82/98/267 81/293/268
f 95/110/269 94/108/270 81/94/271 87/296/272
f 87/111/273 89/104/274 96/112/275 95/113/276
f 89/104/277 90/105/278 97/114/279 96/112/280
f 90/105/281 92/115/282 98/116/283 97/114/284
f 99/291/285 98/118/286 92/102/287 86/101/288
f 100/119/289 99/117/290 86/107/291 85/99/292
f 93/109/293 100/119/294 85/99/295 82/98/296
f 93/120/297 94/121/298 101/122/299
f 94/121/300 95/123/301 101/122/302
f 95/123/303 96/124/304 101/122/305
f 96/124/306 97/125/307 101/122/308
f 97/125/309 98/126/310 101/122/311
f 98/126/312 99/127/313 101/122/314
f 99/127/315 100/128/316 101/122/317
f 100/128/318 93/120/319 101/122/320
f 102/129/321 104/130/322 120/131/323 122/132/324
f 103/133/325 102/134/326 107/135/327 106/136/328
f 104/137/329 103/133/330 109/138/331 108/349/332
f 105/140/333 107/141/334 123/142/335 125/143/336
f 106/136/337 105/348/338 113/345/339 112/146/340
f 108/147/341 110/148/342 115/149/343 114/164/344
f 110/148/345 109/138/346 112/146/347 111/151/348
f 111/151/349 113/145/350 119/152/351 118/153/352
f 114/154/353 116/155/354 121/156/355 120/352/356
f 116/155/357 115/149/358 118/153/359 117/158/360
f 117/158/361 119/159/362 125/351/363 124/161/364
f 122/132/365 121/156/366 124/161/367 123/142/368
f 103/133/369 106/136/370 112/146/371 109/138/372
f 110/148/373 111/151/374 118/153/375 115/149/376
f 116/155/377 117/158/378 124/161/379 121/156/380
f 122/132/381 123/142/382 107/141/383 102/129/384
f 105/144/385 125/162/386 119/152/387 113/145/388
f 120/163/389 104/346/390 108/147/391 114/164/392
f 102/134/393 103/133/394 104/350/395
f 105/344/396 106/136/397 107/135/398
f 108/139/399 109/138/400 110/148/401
f 111/151/402 112/146/403 113/347/404
f 114/150/405 115/149/406 116/155/407
f 117/158/408 118/153/409 119/353/410
f 120/157/411 121/156/412 122/132/413
f 123/142/414 124/161/415 125/160/416
s 15
f 127/165/417 126/166/418 149/167/419 148/168/420
s 16
f 129/169/421 128/170/422 151/171/423 150/172/424
s 17
f 131/173/425 130/174/426 133/175/427 132/176/428
s 16
f 132/176/429 135/177/430 182/178/431 181/179/432
f 134/180/433 133/175/434 175/181/435 174/182/436
s 19
f 135/177/437 134/180/438 139/183/439 138/184/440
s 20
f 137/330/441 136/186/442 141/187/443 140/188/444
s 16
f 138/184/445 141/187/446 185/189/447 184/190/448
f 140/188/449 139/183/450 159/191/451 158/192/452
s 22
f 142/327/453 143/194/454 168/195/455 167/326/456
s 16
f 144/197/457 145/198/458 172/199/459 171/200/460
s 17
f 146/201/461 149/167/462 150/172/463 153/202/464
s 15
f 147/203/465 146/201/466 165/204/467 164/205/468
s 25
f 148/168/469 147/203/470 169/206/471 168/195/472
s 19
f 152/207/473 151/171/474 171/200/475 170/208/476
s 16
f 153/202/477 152/207/478 177/209/479 176/210/480
s 20
f 154/211/481 157/212/482 158/192/483 161/213/484
s 22
f 155/214/485 154/334/486 166/215/487 169/206/488
s 25
f 156/216/489 155/214/490 164/205/491 163/217/492
s 19
f 160/218/493 159/191/494 174/182/495 177/209/496
s 16
f 161/213/497 160/218/498 170/208/499 173/219/500
s 17
f 162/220/501 165/204/502 176/210/503 175/181/504
s 20
f 167/196/505 166/221/506 173/219/507 172/199/508
s off
f 179/222/509 178/223/510 181/179/511 180/224/512
s 16
f 180/224/513 182/178/431 184/190/448 183/225/514
s off
f 183/225/515 185/189/516 187/328/517 186/227/518
s 17
f 126/166/519 129/169/520 150/172/463 149/167/462
s off
f 179/222/521 180/224/522 183/225/523 186/227/524
s 20
f 167/196/505 172/199/508 145/198/525 142/193/526
s 19
f 128/170/527 144/197/528 171/200/475 151/171/474
s 25
f 143/194/529 127/165/530 148/168/469 168/195/472
s 20
f 137/185/441 140/188/444 158/192/483 157/212/482
s 19
f 174/182/495 159/191/494 139/183/439 134/180/438
s 17
f 162/220/501 175/181/504 133/175/427 130/331/426
s 25
f 169/206/471 147/203/470 164/205/491 155/214/490
s 17
f 146/201/461 153/202/464 176/210/503 165/204/502
s 19
f 152/207/473 170/208/476 160/218/493 177/209/496
s 20
f 154/211/481 161/213/484 173/219/507 166/221/506
s 17
f 131/173/425 132/176/428 181/179/531 178/329/532
s 19
f 135/177/437 138/184/440 184/190/533 182/178/534
s 20
f 141/187/443 136/186/442 187/226/535 185/189/536
s 16
f 132/176/429 133/175/434 134/180/433 135/177/430
f 138/184/445 139/183/450 140/188/449 141/187/446
s 15
f 146/201/466 147/203/465 148/168/420 149/167/419
s 16
f 150/172/424 151/171/423 152/207/478 153/202/477
s 22
f 154/211/486 155/333/485 156/332/537 157/212/538
s 16
f 158/192/452 159/191/451 160/218/498 161/213/497
s 15
f 162/220/539 163/217/540 164/205/468 165/204/467
s 22
f 166/215/487 167/326/456 168/195/455 169/206/488
s 16
f 170/208/499 171/200/460 172/199/459 173/219/500
f 174/182/436 175/181/435 176/210/480 177/209/479
f 180/224/513 181/179/432 182/178/431
f 183/225/514 184/190/448 185/189/447
s 28
f 189/228/541 188/229/542 211/230/543 210/231/544
s 29
f 191/232/545 190/233/546 213/234/547 212/235/548
s 30
f 193/236/549 192/237/550 195/238/551 194/239/552
s 29
f 194/239/553 197/240/554 244/241/555 243/242/556
f 196/243/557 195/238/558 237/244/559 236/245/560
s 32
f 197/240/561 196/243/562 201/246/563 200/247/564
s 33
f 199/337/565 198/249/566 203/250/567 202/251/568
s 29
f 200/247/569 203/250/570 247/252/571 246/253/572
f 202/251/573 201/246/574 221/254/575 220/255/576
s 35
f 204/340/577 205/257/578 230/258/579 229/339/580
s 29
f 206/260/581 207/261/582 234/262/583 233/263/584
s 30
f 208/264/585 211/230/586 212/235/587 215/265/588
s 28
f 209/266/589 208/264/590 227/267/591 226/268/592
s 38
f 210/231/593 209/266/594 231/269/595 230/258/596
s 32
f 214/270/597 213/234/598 233/263/599 232/271/600
s 29
f 215/265/601 214/270/602 239/272/603 238/273/604
s 33
f 216/274/605 219/275/606 220/255/607 223/276/608
s 35
f 217/277/609 216/343/610 228/278/611 231/269/612
s 38
f 218/279/613 217/277/614 226/268/615 225/280/616
s 32
f 222/281/617 221/254/618 236/245/619 239/272/620
s 29
f 223/276/621 222/281/622 232/271/623 235/282/624
s 30
f 224/283/625 227/267/626 238/273/627 237/244/628
s 33
f 229/259/629 228/284/630 235/282/631 234/262/632
s off
f 241/285/633 240/286/634 243/242/635 242/287/636
s 29
f 242/287/637 244/241/555 246/253/572 245/288/638
s off
f 245/288/639 247/252/640 249/335/641 248/290/642
s 30
f 188/229/643 191/232/644 212/235/587 211/230/586
s off
f 241/285/645 242/287/646 245/288/647 248/290/648
s 33
f 229/259/629 234/262/632 207/261/649 204/256/650
s 32
f 190/233/651 206/260/652 233/263/599 213/234/598
s 38
f 205/257/653 189/228/654 210/231/593 230/258/596
s 33
f 199/248/565 202/251/568 220/255/607 219/275/606
s 32
f 236/245/619 221/254/618 201/246/563 196/243/562
s 30
f 224/283/625 237/244/628 195/238/551 192/338/550
s 38
f 231/269/595 209/266/594 226/268/615 217/277/614
s 30
f 208/264/585 215/265/588 238/273/627 227/267/626
s 32
f 214/270/597 232/271/600 222/281/617 239/272/620
s 33
f 216/274/605 223/276/608 235/282/631 228/284/630
s 30
f 193/236/549 194/239/552 243/242/655 240/336/656
s 32
f 197/240/561 200/247/564 246/253/657 244/241/658
s 33
f 203/250/567 198/249/566 249/289/659 247/252/660
s 29
f 194/239/553 195/238/558 196/243/557 197/240/554
f 200/247/569 201/246/574 202/251/573 203/250/570
s 28
f 208/264/590 209/266/589 210/231/544 211/230/543
s 29
f 212/235/548 213/234/547 214/270/602 215/265/601
s 35
f 216/274/610 217/342/609 218/341/661 219/275/662
s 29
f 220/255/576 221/254/575 222/281/622 223/276/621
s 28
f 224/283/663 225/280/664 226/268/592 227/267/591
s 35
f 228/278/611 229/339/580 230/258/579 231/269/612
s 29
f 232/271/623 233/263/584 234/262/583 235/282/624
f 236/245/560 237/244/559 238/273/604 239/272/603
f 242/287/637 243/242/556 244/241/555
f 245/288/638 246/253/572 247/252/571
