# This file uses centimeters as units for non-parametric coordinates.

mtllib corpse_storage_wall.mtl
g default
v 36.988460 0.015951 18.441979
v 36.911548 0.015951 18.365065
v 36.911548 0.092864 18.441979
v -9.222555 0.092864 18.441979
v -9.222555 0.015951 18.365065
v -9.299470 0.015951 18.441979
v 36.988460 0.015951 42.523831
v 36.911548 0.092864 42.523831
v 36.911548 0.015951 42.600745
v -9.222555 0.015951 42.600745
v -9.222555 0.092864 42.523831
v -9.299470 0.015951 42.523831
v 36.911548 -0.291740 18.365065
v 36.988460 -0.291740 18.441979
v -9.299470 -0.291740 18.441979
v -9.222555 -0.291740 18.365065
v 36.988460 -0.291740 42.523831
v 36.911548 -0.291740 42.600745
v -9.222555 -0.291740 42.600745
v -9.299470 -0.291740 42.523831
vt 0.010498 0.010878
vt 0.010421 0.521853
vt 0.003999 0.010877
vt 0.012796 0.008580
vt 0.989579 0.011027
vt 0.987282 0.008729
vt 0.987283 0.002230
vt 0.012717 0.528353
vt 0.010420 0.528353
vt 0.012718 0.519556
vt 0.987204 0.519705
vt 0.989501 0.519705
vt 0.989500 0.528502
vt 0.012797 0.002081
vt 0.012796 0.010878
vt 0.987281 0.011027
vt 0.012718 0.521854
vt 0.987204 0.522002
vt 0.987203 0.528502
vt 0.989579 0.008729
vt 0.989580 0.002230
vt 0.996001 0.519706
vt 0.003922 0.519555
vt 0.996078 0.011028
vt 0.010806 0.009729
vt 0.010500 0.002081
vt 0.989194 0.520854
vt 0.010421 0.519556
vt 0.010729 0.520705
vt 0.989501 0.522003
vt 0.989271 0.009878
vt 0.010499 0.008580
vn 0.707112 0.707101 -0.000000
vn 0.707112 0.707101 -0.000000
vn 0.707112 0.707101 -0.000000
vn 0.707112 0.707101 -0.000000
vn 0.707119 0.000000 -0.707095
vn 0.707119 0.000000 -0.707095
vn 0.707119 0.000000 -0.707095
vn 0.707119 0.000000 -0.707095
vn 0.000000 0.707112 -0.707101
vn 0.000000 0.707112 -0.707101
vn 0.000000 0.707112 -0.707101
vn 0.000000 0.707112 -0.707101
vn -0.707099 0.707114 0.000000
vn -0.707099 0.707114 0.000000
vn -0.707099 0.707114 0.000000
vn -0.707099 0.707114 0.000000
vn -0.707106 0.000000 -0.707108
vn -0.707106 0.000000 -0.707108
vn -0.707106 0.000000 -0.707108
vn -0.707106 0.000000 -0.707108
vn 0.707114 0.000000 0.707099
vn 0.707114 0.000000 0.707099
vn 0.707114 0.000000 0.707099
vn 0.707114 0.000000 0.707099
vn -0.000000 0.707112 0.707101
vn -0.000000 0.707112 0.707101
vn -0.000000 0.707112 0.707101
vn -0.000000 0.707112 0.707101
vn -0.707102 0.000000 0.707112
vn -0.707102 0.000000 0.707112
vn -0.707102 0.000000 0.707112
vn -0.707102 0.000000 0.707112
vn 0.000000 0.000000 -1.000000
vn 0.000000 0.000000 -1.000000
vn 0.000000 0.000000 -1.000000
vn 0.000000 0.000000 -1.000000
vn 0.000000 1.000000 0.000000
vn 0.000000 1.000000 0.000000
vn 0.000000 1.000000 0.000000
vn 0.000000 1.000000 0.000000
vn -0.000000 0.000000 1.000000
vn -0.000000 0.000000 1.000000
vn -0.000000 0.000000 1.000000
vn -0.000000 0.000000 1.000000
vn -1.000000 0.000000 0.000000
vn -1.000000 0.000000 0.000000
vn -1.000000 0.000000 0.000000
vn -1.000000 0.000000 0.000000
vn 1.000000 0.000000 -0.000000
vn 1.000000 0.000000 -0.000000
vn 1.000000 0.000000 -0.000000
vn 1.000000 0.000000 -0.000000
vn 0.577353 0.577361 -0.577336
vn 0.577353 0.577361 -0.577336
vn 0.577353 0.577361 -0.577336
vn -0.577346 0.577354 -0.577350
vn -0.577346 0.577354 -0.577350
vn -0.577346 0.577354 -0.577350
vn 0.577353 0.577361 0.577336
vn 0.577353 0.577361 0.577336
vn 0.577353 0.577361 0.577336
vn -0.577346 0.577354 0.577350
vn -0.577346 0.577354 0.577350
vn -0.577346 0.577354 0.577350
s off
g wall group4
usemtl lambert2SG
f 1/1/1 3/15/2 8/10/3 7/28/4
f 2/4/5 1/32/6 14/26/7 13/14/8
f 3/15/9 2/4/10 5/6/11 4/16/12
f 4/16/13 6/5/14 12/12/15 11/11/16
f 6/20/17 5/6/18 16/7/19 15/21/20
f 7/2/21 9/17/22 18/8/23 17/9/24
f 9/17/25 8/10/26 11/11/27 10/18/28
f 10/18/29 12/30/30 20/13/31 19/19/32
f 2/4/33 13/14/34 16/7/35 5/6/36
f 3/15/37 4/16/38 11/11/39 8/10/40
f 9/17/41 10/18/42 19/19/43 18/8/44
f 6/5/45 15/24/46 20/22/47 12/12/48
f 7/28/49 17/23/50 14/3/51 1/1/52
f 1/25/53 2/4/54 3/15/55
f 4/16/56 5/6/57 6/31/58
f 7/29/59 8/10/60 9/17/61
f 10/18/62 11/11/63 12/27/64
