# This file uses centimeters as units for non-parametric coordinates.

mtllib corpse_storage_wall_hole.mtl
g default
v 36.988460 0.015951 -6.379474
v 36.911548 0.015951 -6.456388
v 36.911548 0.092864 -6.379474
v -9.222555 0.092864 -6.379474
v -9.222555 0.015951 -6.456388
v -9.299470 0.015951 -6.379474
v 36.988460 0.015951 17.702377
v 36.911548 0.092864 17.702377
v 36.911548 0.015951 17.779291
v -9.222555 0.015951 17.779291
v -9.222555 0.092864 17.702377
v -9.299470 0.015951 17.702377
v 36.911548 -0.291740 -6.456388
v 36.988460 -0.291740 -6.379474
v -9.299470 -0.291740 -6.379474
v -9.222555 -0.291740 -6.456388
v 36.988460 -0.291740 17.702377
v 36.911548 -0.291740 17.779291
v -9.222555 -0.291740 17.779291
v -9.299470 -0.291740 17.702377
v 8.116265 0.092864 -4.227705
v 19.113060 0.092864 -4.227705
v 8.116265 0.092864 4.170494
v 19.113060 0.092864 4.170494
v 8.116265 -4.394883 -4.227705
v 19.113060 -4.394883 -4.227705
v 8.116265 -4.394883 4.170494
v 19.113060 -4.394883 4.170494
vt 0.010138 0.016409
vt 0.010518 0.526320
vt 0.003638 0.016410
vt 0.012436 0.014110
vt 0.989380 0.016271
vt 0.987082 0.013973
vt 0.987081 0.007473
vt 0.010210 0.527469
vt 0.012509 0.533969
vt 0.010211 0.533969
vt 0.012508 0.525171
vt 0.987154 0.525033
vt 0.989452 0.527331
vt 0.989453 0.533831
vt 0.012435 0.007610
vt 0.012436 0.016408
vt 0.987082 0.016271
vt 0.012508 0.527469
vt 0.987154 0.527331
vt 0.987155 0.533831
vt 0.989380 0.013973
vt 0.989379 0.007472
vt 0.995952 0.525032
vt 0.989452 0.525033
vt 0.010210 0.525171
vt 0.003709 0.525172
vt 0.388460 0.061814
vt 0.620782 0.061782
vt 0.620807 0.239205
vt 0.388485 0.239238
vt 0.860646 0.931920
vt 0.628323 0.931936
vt 0.628317 0.837126
vt 0.860640 0.837110
vt 0.533507 0.837133
vt 0.533495 0.659709
vt 0.628305 0.659703
vt 0.628299 0.564893
vt 0.860621 0.564877
vt 0.860627 0.659687
vt 0.955437 0.659680
vt 0.955449 0.837104
vt 0.989072 0.015122
vt 0.995881 0.016270
vt 0.010446 0.015260
vt 0.010138 0.014111
vt 0.010137 0.007610
vt 0.989144 0.526182
vn 0.707112 0.707101 -0.000000
vn 0.707112 0.707101 -0.000000
vn 0.707112 0.707101 -0.000000
vn 0.707112 0.707101 -0.000000
vn 0.707119 0.000000 -0.707095
vn 0.707119 0.000000 -0.707095
vn 0.707119 0.000000 -0.707095
vn 0.707119 0.000000 -0.707095
vn 0.000000 0.707112 -0.707101
vn 0.000000 0.707112 -0.707101
vn 0.000000 0.707112 -0.707101
vn 0.000000 0.707112 -0.707101
vn -0.707099 0.707114 0.000000
vn -0.707099 0.707114 0.000000
vn -0.707099 0.707114 0.000000
vn -0.707099 0.707114 0.000000
vn -0.707106 0.000000 -0.707108
vn -0.707106 0.000000 -0.707108
vn -0.707106 0.000000 -0.707108
vn -0.707106 0.000000 -0.707108
vn 0.707114 0.000000 0.707099
vn 0.707114 0.000000 0.707099
vn 0.707114 0.000000 0.707099
vn 0.707114 0.000000 0.707099
vn -0.000000 0.707112 0.707101
vn -0.000000 0.707112 0.707101
vn -0.000000 0.707112 0.707101
vn -0.000000 0.707112 0.707101
vn -0.707102 0.000000 0.707112
vn -0.707102 0.000000 0.707112
vn -0.707102 0.000000 0.707112
vn -0.707102 0.000000 0.707112
vn 0.000000 0.000000 -1.000000
vn 0.000000 0.000000 -1.000000
vn 0.000000 0.000000 -1.000000
vn 0.000000 0.000000 -1.000000
vn -0.000000 0.000000 1.000000
vn -0.000000 0.000000 1.000000
vn -0.000000 0.000000 1.000000
vn -0.000000 0.000000 1.000000
vn -1.000000 0.000000 0.000000
vn -1.000000 0.000000 0.000000
vn -1.000000 0.000000 0.000000
vn -1.000000 0.000000 0.000000
vn 1.000000 0.000000 -0.000000
vn 1.000000 0.000000 -0.000000
vn 1.000000 0.000000 -0.000000
vn 1.000000 0.000000 -0.000000
vn 0.577353 0.577361 -0.577336
vn 0.577353 0.577361 -0.577336
vn 0.577353 0.577361 -0.577336
vn -0.577346 0.577354 -0.577350
vn -0.577346 0.577354 -0.577350
vn -0.577346 0.577354 -0.577350
vn 0.577353 0.577361 0.577336
vn 0.577353 0.577361 0.577336
vn 0.577353 0.577361 0.577336
vn -0.577346 0.577354 0.577350
vn -0.577346 0.577354 0.577350
vn -0.577346 0.577354 0.577350
vn 0.000000 1.000000 0.000000
vn 0.000000 1.000000 0.000000
vn 0.000000 1.000000 0.000000
vn 0.000000 1.000000 0.000000
vn 0.000000 1.000000 0.000000
vn 0.000000 1.000000 0.000000
vn 0.000000 1.000000 0.000000
vn 0.000000 1.000000 0.000000
vn 0.000000 1.000000 0.000000
vn 0.000000 1.000000 0.000000
vn 0.000000 1.000000 0.000000
vn 0.000000 1.000000 0.000000
vn 0.000000 1.000000 0.000000
vn 0.000000 1.000000 0.000000
vn 0.000000 1.000000 0.000000
vn 0.000000 1.000000 0.000000
vn -0.000000 0.000000 1.000000
vn -0.000000 0.000000 1.000000
vn -0.000000 0.000000 1.000000
vn -0.000000 0.000000 1.000000
vn 1.000000 0.000000 -0.000000
vn 1.000000 0.000000 -0.000000
vn 1.000000 0.000000 -0.000000
vn 1.000000 0.000000 -0.000000
vn 0.000000 0.000000 -1.000000
vn 0.000000 0.000000 -1.000000
vn 0.000000 0.000000 -1.000000
vn 0.000000 0.000000 -1.000000
vn -1.000000 0.000000 0.000000
vn -1.000000 0.000000 0.000000
vn -1.000000 0.000000 0.000000
vn -1.000000 0.000000 0.000000
vn 0.000000 1.000000 0.000000
vn 0.000000 1.000000 0.000000
vn 0.000000 1.000000 0.000000
vn 0.000000 1.000000 0.000000
s off
g wallhole group4
usemtl lambert2SG
f 1/1/1 3/16/2 8/11/3 7/25/4
f 2/4/5 1/46/6 14/47/7 13/15/8
f 3/16/9 2/4/10 5/6/11 4/17/12
f 4/17/13 6/5/14 12/24/15 11/12/16
f 6/21/17 5/6/18 16/7/19 15/22/20
f 7/8/21 9/18/22 18/9/23 17/10/24
f 9/18/25 8/11/26 11/12/27 10/19/28
f 10/19/29 12/13/30 20/14/31 19/20/32
f 2/4/33 13/15/34 16/7/35 5/6/36
f 9/18/37 10/19/38 19/20/39 18/9/40
f 6/5/41 15/44/42 20/23/43 12/24/44
f 7/25/45 17/26/46 14/3/47 1/1/48
f 1/45/49 2/4/50 3/16/51
f 4/17/52 5/6/53 6/43/54
f 7/2/55 8/11/56 9/18/57
f 10/19/58 11/12/59 12/48/60
f 3/16/61 4/17/62 21/28/63 22/27/64
f 4/17/65 11/12/66 23/29/67 21/28/68
f 11/12/69 8/11/70 24/30/71 23/29/72
f 8/11/73 3/16/74 22/27/75 24/30/76
f 22/31/77 21/32/78 25/33/79 26/34/80
f 21/35/81 23/36/82 27/37/83 25/33/84
f 23/38/85 24/39/86 28/40/87 27/37/88
f 24/41/89 22/42/90 26/34/91 28/40/92
f 28/40/93 26/34/94 25/33/95 27/37/96
