# This file uses centimeters as units for non-parametric coordinates.

mtllib corpse_storage_door_frame.mtl
g default
v 7.783695 0.232011 4.507998
v 19.444365 0.232011 4.507997
v 7.699598 0.232011 4.423899
v 7.789013 0.243026 4.327299
v 19.408535 0.243026 4.327299
v 19.528462 0.232011 4.423899
v 7.699598 0.232011 -4.423899
v 7.789013 0.243026 -4.384544
v 19.408535 0.243026 -4.384544
v 19.528464 0.232011 -4.423899
v 7.783695 0.232011 -4.507997
v 19.444365 0.232011 -4.507997
v 7.783696 0.079945 4.507997
v 7.699599 0.079945 4.423899
v 19.528464 0.079945 4.423899
v 19.444365 0.079945 4.507997
v 7.699599 0.079945 -4.423899
v 7.783696 0.079945 -4.507997
v 19.444365 0.079945 -4.507997
v 19.528464 0.079945 -4.423899
v 19.907086 0.182536 -3.708062
v 19.872208 0.217747 -3.708060
v 19.823294 0.225734 -3.708060
v 19.779024 0.203445 -3.708061
v 19.756315 0.159392 -3.708061
v 19.763832 0.110405 -3.708061
v 19.798714 0.075192 -3.708060
v 19.847630 0.067205 -3.708060
v 19.891894 0.089495 -3.708062
v 19.914604 0.133547 -3.708061
v 19.907084 0.182536 -2.897959
v 19.872206 0.217747 -2.897961
v 19.823292 0.225734 -2.897960
v 19.779026 0.203446 -2.897960
v 19.756314 0.159392 -2.897960
v 19.763834 0.110404 -2.897960
v 19.798712 0.075192 -2.897960
v 19.847626 0.067205 -2.897961
v 19.891892 0.089495 -2.897959
v 19.914603 0.133547 -2.897960
v 19.835457 0.146469 -3.708062
v 19.835459 0.146469 -2.897960
v 19.446858 0.085634 -2.899554
v 19.792311 0.085634 -2.899554
v 19.446858 0.194567 -2.899554
v 19.792311 0.194567 -2.899554
v 19.446858 0.194567 -3.705906
v 19.792311 0.194567 -3.705906
v 19.446858 0.085634 -3.705906
v 19.792311 0.085634 -3.705906
v 19.907084 0.182536 2.866270
v 19.872206 0.217747 2.866268
v 19.823292 0.225734 2.866268
v 19.779026 0.203445 2.866266
v 19.756314 0.159392 2.866268
v 19.763834 0.110405 2.866266
v 19.798712 0.075192 2.866268
v 19.847626 0.067205 2.866268
v 19.891892 0.089495 2.866270
v 19.914603 0.133547 2.866271
v 19.907084 0.182536 3.676369
v 19.872206 0.217747 3.676369
v 19.823292 0.225734 3.676370
v 19.779026 0.203444 3.676368
v 19.756314 0.159392 3.676371
v 19.763836 0.110405 3.676368
v 19.798712 0.075192 3.676370
v 19.847626 0.067205 3.676369
v 19.891892 0.089495 3.676369
v 19.914604 0.133547 3.676371
v 19.835459 0.146469 2.866267
v 19.835459 0.146469 3.676369
v 19.446858 0.085634 3.674774
v 19.792311 0.085634 3.674774
v 19.446858 0.194567 3.674774
v 19.792311 0.194567 3.674774
v 19.446858 0.194567 2.868423
v 19.792311 0.194567 2.868423
v 19.446858 0.085634 2.868423
v 19.792311 0.085634 2.868423
v 7.102402 0.081273 0.500000
v 7.079063 0.081273 0.476662
v 7.845120 0.081273 0.500000
v 7.079063 0.190200 0.476662
v 7.102402 0.190200 0.500000
v 7.102402 0.213538 0.476662
v 7.845120 0.213538 0.476662
v 7.845120 0.190200 0.500000
v 7.079063 0.190200 -0.476662
v 7.102402 0.213538 -0.476662
v 7.102402 0.190200 -0.500000
v 7.845120 0.190200 -0.500000
v 7.845120 0.213538 -0.476662
v 7.079063 0.081273 -0.476662
v 7.102402 0.081273 -0.500000
v 7.845120 0.081273 -0.500000
v 7.077575 0.992376 0.210564
v 7.085811 1.000688 0.218687
v 7.085662 1.008501 0.211023
v 7.077564 1.000385 0.201876
v 7.186354 1.000450 0.201272
v 7.178022 1.008501 0.210898
v 7.178157 1.000848 0.218687
v 7.186314 0.993023 0.210612
v 7.077555 1.000390 -0.201647
v 7.085807 1.008501 -0.210874
v 7.085665 1.000835 -0.218683
v 7.077575 0.992588 -0.210560
v 7.186314 0.993024 -0.210613
v 7.178013 1.000704 -0.218687
v 7.178163 1.008501 -0.211041
v 7.186355 1.000450 -0.201273
v 7.083697 0.163217 0.218687
v 7.077669 0.257717 0.212997
v 7.077998 0.163217 0.212987
v 7.185810 0.163217 0.212956
v 7.186153 0.271840 0.212998
v 7.180110 0.163217 0.218687
v 7.077998 0.163217 -0.212939
v 7.077670 0.257725 -0.212990
v 7.083697 0.163217 -0.218680
v 7.180110 0.163217 -0.218687
v 7.186154 0.271838 -0.212998
v 7.185810 0.163217 -0.212987
v 7.181761 0.721905 -0.151748
v 7.189310 0.713687 -0.155295
v 7.188938 0.721562 -0.167016
v 7.181402 0.729964 -0.159374
v 7.181392 0.729963 0.159375
v 7.188922 0.721569 0.167142
v 7.189299 0.713397 0.155111
v 7.181752 0.721905 0.151748
v 7.181686 0.945739 -0.159358
v 7.188968 0.953952 -0.168102
v 7.188931 0.962422 -0.160224
v 7.181682 0.953594 -0.151493
v 7.181683 0.953565 0.151558
v 7.188928 0.962336 0.160207
v 7.188954 0.953972 0.168196
v 7.181660 0.945691 0.159410
v 7.074098 0.723393 -0.145197
v 7.082095 0.731194 -0.142530
v 7.082394 0.739575 -0.150671
v 7.074463 0.732392 -0.157313
v 7.074455 0.732379 0.157317
v 7.082380 0.739569 0.150702
v 7.081908 0.731210 0.142695
v 7.074090 0.723393 0.145198
v 7.074854 0.943109 -0.158648
v 7.082624 0.935225 -0.150513
v 7.082608 0.943517 -0.142227
v 7.074890 0.951574 -0.150701
v 7.074929 0.951153 0.151402
v 7.082732 0.943139 0.142873
v 7.082574 0.934901 0.151193
v 7.074898 0.942715 0.159379
v 8.175305 0.243026 4.037673
v 8.175305 0.243026 -4.094919
v 19.022244 0.243026 4.037673
v 19.022244 0.243026 -4.094919
v 8.203713 -0.080513 4.016374
v 8.203713 -0.080513 -4.073619
v 18.993836 -0.080513 4.016374
v 18.993836 -0.080513 -4.073619
vt 0.028571 0.018275
vt 0.976572 0.017504
vt 0.020213 0.024291
vt 0.027363 0.032512
vt 0.970673 0.032594
vt 0.980217 0.025665
vt 0.019800 0.753098
vt 0.026897 0.750721
vt 0.970209 0.750539
vt 0.979716 0.752925
vt 0.026581 0.760562
vt 0.976007 0.760647
vt 0.008121 0.024179
vt 0.026907 0.006353
vt 0.973325 0.006108
vt 0.992157 0.024177
vt 0.026716 0.772632
vt 0.007843 0.754481
vt 0.991695 0.754451
vt 0.988385 0.764222
vt 0.823606 0.129956
vt 0.834336 0.129957
vt 0.834332 0.305337
vt 0.823603 0.305337
vt 0.845066 0.129957
vt 0.845062 0.305337
vt 0.855796 0.129957
vt 0.855791 0.305337
vt 0.866526 0.129958
vt 0.866521 0.305338
vt 0.877255 0.129958
vt 0.877251 0.305338
vt 0.887986 0.129958
vt 0.887981 0.305338
vt 0.791418 0.129956
vt 0.802147 0.129956
vt 0.802143 0.305336
vt 0.791413 0.305336
vt 0.812877 0.129956
vt 0.812873 0.305337
vt 0.458456 0.273619
vt 0.467137 0.279925
vt 0.453091 0.290130
vt 0.447726 0.273619
vt 0.439045 0.279925
vt 0.435730 0.290130
vt 0.439045 0.300335
vt 0.447727 0.306641
vt 0.458457 0.306641
vt 0.467137 0.300335
vt 0.470452 0.290130
vt 0.470452 0.290130
vt 0.467137 0.300334
vt 0.453091 0.290130
vt 0.458457 0.306641
vt 0.447727 0.306642
vt 0.439046 0.300335
vt 0.435730 0.290130
vt 0.439045 0.279926
vt 0.447726 0.273619
vt 0.458455 0.273618
vt 0.467136 0.279925
vt 0.694580 0.116932
vt 0.769362 0.115994
vt 0.769658 0.139575
vt 0.694876 0.140514
vt 0.771849 0.314129
vt 0.697068 0.315068
vt 0.772146 0.337710
vt 0.697364 0.338649
vt 0.823602 0.129958
vt 0.834331 0.129957
vt 0.834338 0.305337
vt 0.823609 0.305338
vt 0.845061 0.129957
vt 0.845068 0.305337
vt 0.855790 0.129956
vt 0.855797 0.305336
vt 0.866521 0.129956
vt 0.866527 0.305336
vt 0.877250 0.129955
vt 0.877257 0.305335
vt 0.887980 0.129955
vt 0.887986 0.305336
vt 0.791413 0.129959
vt 0.802142 0.129959
vt 0.802149 0.305339
vt 0.791419 0.305339
vt 0.812872 0.129959
vt 0.812879 0.305339
vt 0.458456 0.273619
vt 0.467137 0.279925
vt 0.453091 0.290130
vt 0.447726 0.273619
vt 0.439046 0.279925
vt 0.435730 0.290130
vt 0.439046 0.300335
vt 0.447726 0.306642
vt 0.458456 0.306641
vt 0.467137 0.300335
vt 0.470452 0.290130
vt 0.470452 0.290130
vt 0.467136 0.300335
vt 0.453091 0.290130
vt 0.458456 0.306642
vt 0.447726 0.306641
vt 0.439045 0.300334
vt 0.435730 0.290130
vt 0.439046 0.279925
vt 0.447726 0.273618
vt 0.458456 0.273619
vt 0.467137 0.279925
vt 0.694580 0.116933
vt 0.769362 0.115994
vt 0.769658 0.139575
vt 0.694876 0.140514
vt 0.771850 0.314130
vt 0.697068 0.315068
vt 0.772146 0.337710
vt 0.697364 0.338649
vt 0.344812 0.130596
vt 0.375560 0.161303
vt 0.351978 0.161319
vt 0.348401 0.155133
vt 0.344828 0.154178
vt 0.344833 0.161323
vt 0.138446 0.161460
vt 0.134869 0.155275
vt 0.352085 0.322111
vt 0.344939 0.322116
vt 0.131296 0.154320
vt 0.131301 0.161465
vt 0.107719 0.161481
vt 0.107714 0.154335
vt 0.138553 0.322253
vt 0.131407 0.322257
vt 0.375666 0.322095
vt 0.107826 0.322273
vt 0.138426 0.130733
vt 0.138441 0.154315
vt 0.428404 0.221318
vt 0.427405 0.219351
vt 0.437709 0.208346
vt 0.439652 0.210325
vt 0.426417 0.223790
vt 0.588187 0.221747
vt 0.608741 0.223547
vt 0.425086 0.221408
vt 0.426427 0.243774
vt 0.405140 0.221587
vt 0.424728 0.129854
vt 0.427085 0.131929
vt 0.402639 0.219537
vt 0.428131 0.246263
vt 0.436604 0.255484
vt 0.394319 0.210659
vt 0.402318 0.131911
vt 0.404782 0.129812
vt 0.608614 0.244446
vt 0.584982 0.246190
vt 0.428033 0.129929
vt 0.439323 0.141033
vt 0.437390 0.143019
vt 0.426048 0.127488
vt 0.426024 0.107492
vt 0.608759 0.127277
vt 0.588166 0.129125
vt 0.428145 0.337502
vt 0.394078 0.140860
vt 0.392278 0.139063
vt 0.401000 0.129622
vt 0.584523 0.338496
vt 0.608065 0.340320
vt 0.608685 0.221750
vt 0.485165 0.209775
vt 0.487267 0.207045
vt 0.608575 0.246244
vt 0.488993 0.258490
vt 0.487175 0.255865
vt 0.608694 0.129085
vt 0.487113 0.144045
vt 0.484991 0.141326
vt 0.608068 0.338574
vt 0.487039 0.328217
vt 0.488789 0.325668
vt 0.657462 0.340695
vt 0.485146 0.325916
vt 0.630649 0.122789
vt 0.484831 0.144934
vt 0.672584 0.276754
vt 0.665547 0.158000
vt 0.672835 0.274364
vt 0.651007 0.273665
vt 0.651451 0.271196
vt 0.675261 0.227724
vt 0.391613 0.142784
vt 0.645036 0.165304
vt 0.441274 0.143317
vt 0.675173 0.225318
vt 0.653646 0.228966
vt 0.653579 0.226432
vt 0.483368 0.207772
vt 0.441575 0.208034
vt 0.484993 0.206195
vt 0.439993 0.206332
vt 0.058003 0.727763
vt 0.058135 0.055603
vt 0.939567 0.055536
vt 0.939437 0.727464
vt 0.074904 0.708614
vt 0.076409 0.073534
vt 0.922666 0.074676
vt 0.921164 0.709541
vt 0.023033 0.761243
vt 0.011001 0.764011
vt 0.020878 0.022114
vt 0.017611 0.009851
vt 0.973474 0.018197
vt 0.988718 0.014634
vt 0.973345 0.772438
vt 0.973216 0.760371
vt 0.608626 0.106391
vt 0.439683 0.145018
vt 0.644442 0.162836
vt 0.483201 0.143342
vt 0.629562 0.120504
vt 0.636833 0.333765
vt 0.391851 0.208774
vt 0.438392 0.257964
vt 0.390288 0.210562
vt 0.666111 0.160339
vt 0.390039 0.141011
vt 0.438426 0.325849
vt 0.392559 0.212494
vt 0.485264 0.258175
vt 0.486555 0.259258
vt 0.650325 0.113836
vt 0.436642 0.328309
vt 0.649423 0.111608
vt 0.486404 0.324843
vt 0.404563 0.127489
vt 0.401334 0.221826
vt 0.404878 0.223843
vt 0.351973 0.154173
vt 0.375555 0.154158
vt 0.427686 0.104977
vt 0.584933 0.104693
vn -0.120955 0.992657 0.001229
vn -0.000116 0.998147 0.060841
vn -0.044045 0.998265 0.039086
vn 0.000157 0.998149 0.060814
vn 0.035702 0.998670 0.037206
vn 0.090897 0.995860 0.000707
vn -0.049402 0.997356 -0.053296
vn -0.122002 0.992530 -0.000603
vn 0.091337 0.995820 -0.000383
vn 0.039213 0.997928 -0.051011
vn 0.000265 0.996050 -0.088794
vn -0.000174 0.996044 -0.088863
vn -0.707111 0.000000 0.707103
vn -0.707111 0.000000 0.707103
vn -0.707111 0.000000 0.707103
vn -0.707111 0.000000 0.707103
vn 0.707106 0.000005 0.707108
vn 0.707106 0.000005 0.707108
vn 0.707106 0.000005 0.707108
vn 0.707106 0.000005 0.707108
vn -0.707108 0.000000 -0.707105
vn -0.707108 0.000000 -0.707105
vn -0.707108 0.000000 -0.707105
vn -0.707108 0.000000 -0.707105
vn 0.707103 0.000000 -0.707110
vn 0.707103 0.000000 -0.707110
vn 0.707103 0.000000 -0.707110
vn 0.707103 0.000000 -0.707110
vn 0.000000 0.000000 1.000000
vn 0.000000 0.000000 1.000000
vn 0.000000 0.000000 1.000000
vn 0.000000 0.000000 1.000000
vn 0.000000 0.000000 -1.000000
vn 0.000000 0.000000 -1.000000
vn 0.000000 0.000000 -1.000000
vn 0.000000 0.000000 -1.000000
vn 1.000000 0.000006 0.000000
vn 1.000000 0.000006 0.000000
vn 1.000000 0.000006 0.000000
vn 1.000000 0.000006 0.000000
vn -1.000000 -0.000006 0.000000
vn -1.000000 -0.000006 0.000000
vn -1.000000 -0.000006 0.000000
vn -1.000000 -0.000006 0.000000
vn 0.710467 0.703731 0.000002
vn 0.710467 0.703731 0.000002
vn 0.710467 0.703731 0.000002
vn 0.710467 0.703731 0.000002
vn 0.161139 0.986932 0.000000
vn 0.161139 0.986932 0.000000
vn 0.161139 0.986932 0.000000
vn 0.161139 0.986932 0.000000
vn -0.449703 0.893178 -0.000000
vn -0.449703 0.893178 -0.000000
vn -0.449703 0.893178 -0.000000
vn -0.449703 0.893178 -0.000000
vn -0.888838 0.458221 -0.000000
vn -0.888838 0.458221 -0.000000
vn -0.888838 0.458221 -0.000000
vn -0.888838 0.458221 -0.000000
vn -0.988426 -0.151706 -0.000000
vn -0.988426 -0.151706 -0.000000
vn -0.988426 -0.151706 -0.000000
vn -0.988426 -0.151706 -0.000000
vn -0.710458 -0.703740 -0.000000
vn -0.710458 -0.703740 -0.000000
vn -0.710458 -0.703740 -0.000000
vn -0.710458 -0.703740 -0.000000
vn 0.449744 -0.893158 0.000002
vn 0.449744 -0.893158 0.000002
vn 0.449744 -0.893158 0.000002
vn 0.449744 -0.893158 0.000002
vn 0.888834 -0.458229 0.000002
vn 0.888834 -0.458229 0.000002
vn 0.888834 -0.458229 0.000002
vn 0.888834 -0.458229 0.000002
vn 0.988427 0.151701 0.000002
vn 0.988426 0.151701 0.000002
vn 0.988426 0.151701 0.000002
vn 0.988426 0.151701 0.000002
vn -0.000008 0.000025 -1.000000
vn -0.000008 0.000004 -1.000000
vn -0.000007 0.000001 -1.000000
vn 0.000000 0.000018 -1.000000
vn -0.000006 0.000012 -1.000000
vn -0.000014 0.000002 -1.000000
vn -0.000008 -0.000010 -1.000000
vn -0.000008 -0.000018 -1.000000
vn -0.000020 -0.000021 -1.000000
vn -0.000006 -0.000001 -1.000000
vn 0.000006 -0.000001 -1.000000
vn -0.000014 0.000006 1.000000
vn -0.000002 0.000016 1.000000
vn -0.000002 0.000001 1.000000
vn 0.000012 0.000004 1.000000
vn 0.000000 0.000004 1.000000
vn -0.000001 0.000000 1.000000
vn -0.000001 -0.000004 1.000000
vn 0.000008 -0.000006 1.000000
vn -0.000008 -0.000014 1.000000
vn -0.000016 -0.000000 1.000000
vn 0.000000 0.000000 1.000000
vn 0.000000 0.000000 1.000000
vn 0.000000 0.000000 1.000000
vn 0.000000 0.000000 1.000000
vn 0.000000 0.000000 1.000000
vn 0.000000 1.000000 0.000000
vn 0.000000 1.000000 0.000000
vn 0.000000 1.000000 0.000000
vn 0.000000 1.000000 0.000000
vn 0.000000 0.000000 -1.000000
vn 0.000000 0.000000 -1.000000
vn 0.000000 0.000000 -1.000000
vn 0.000000 0.000000 -1.000000
vn 0.710469 0.703729 0.000000
vn 0.710469 0.703728 0.000000
vn 0.710469 0.703728 0.000000
vn 0.710469 0.703728 0.000000
vn 0.161146 0.986931 -0.000000
vn 0.161146 0.986931 -0.000000
vn 0.161146 0.986931 -0.000000
vn 0.161146 0.986931 -0.000000
vn -0.449742 0.893159 0.000000
vn -0.449742 0.893159 0.000000
vn -0.449742 0.893159 0.000000
vn -0.449742 0.893159 0.000000
vn -0.888820 0.458257 0.000000
vn -0.888820 0.458257 0.000000
vn -0.888820 0.458257 0.000000
vn -0.888820 0.458257 0.000000
vn -0.988417 -0.151764 0.000001
vn -0.988417 -0.151764 0.000001
vn -0.988417 -0.151764 0.000001
vn -0.988417 -0.151764 0.000001
vn -0.710493 -0.703705 0.000001
vn -0.710493 -0.703705 0.000001
vn -0.710493 -0.703705 0.000001
vn -0.710493 -0.703705 0.000001
vn 0.449740 -0.893160 0.000000
vn 0.449740 -0.893160 0.000000
vn 0.449740 -0.893160 0.000000
vn 0.449740 -0.893160 0.000000
vn 0.888824 -0.458249 -0.000001
vn 0.888824 -0.458249 -0.000001
vn 0.888824 -0.458249 -0.000001
vn 0.888824 -0.458249 -0.000001
vn 0.988423 0.151724 -0.000001
vn 0.988423 0.151724 -0.000001
vn 0.988423 0.151724 -0.000001
vn 0.988423 0.151724 -0.000001
vn 0.000028 -0.000001 -1.000000
vn 0.000041 -0.000007 -1.000000
vn 0.000023 -0.000004 -1.000000
vn 0.000020 0.000009 -1.000000
vn 0.000012 -0.000008 -1.000000
vn -0.000002 0.000001 -1.000000
vn 0.000010 0.000005 -1.000000
vn 0.000012 -0.000015 -1.000000
vn 0.000028 -0.000008 -1.000000
vn 0.000046 -0.000008 -1.000000
vn 0.000040 -0.000007 -1.000000
vn -0.000007 0.000018 1.000000
vn 0.000016 -0.000008 1.000000
vn 0.000001 -0.000000 1.000000
vn -0.000008 -0.000021 1.000000
vn -0.000004 0.000008 1.000000
vn 0.000032 -0.000004 1.000000
vn -0.000004 -0.000007 1.000000
vn 0.000000 0.000021 1.000000
vn 0.000016 0.000003 1.000000
vn -0.000012 -0.000014 1.000000
vn -0.000019 0.000004 1.000000
vn 0.000000 0.000000 1.000000
vn 0.000000 0.000000 1.000000
vn 0.000000 0.000000 1.000000
vn 0.000000 0.000000 1.000000
vn 0.000000 1.000000 0.000000
vn 0.000000 1.000000 0.000000
vn 0.000000 1.000000 0.000000
vn 0.000000 1.000000 0.000000
vn 0.000000 0.000000 -1.000000
vn 0.000000 0.000000 -1.000000
vn 0.000000 0.000000 -1.000000
vn 0.000000 0.000000 -1.000000
vn -0.707103 0.000000 0.707110
vn -0.707103 0.000000 0.707110
vn -0.707103 0.000000 0.707110
vn -0.707103 0.000000 0.707110
vn -0.707099 0.707115 0.000000
vn -0.707099 0.707115 0.000000
vn -0.707099 0.707115 0.000000
vn -0.707099 0.707115 0.000000
vn 0.000000 0.707107 0.707106
vn 0.000000 0.707107 0.707106
vn 0.000000 0.707107 0.707106
vn 0.000000 0.707107 0.707106
vn -0.707103 0.000000 -0.707110
vn -0.707103 0.000000 -0.707110
vn -0.707103 0.000000 -0.707110
vn -0.707103 0.000000 -0.707110
vn 0.000000 0.707107 -0.707106
vn 0.000000 0.707107 -0.707106
vn 0.000000 0.707107 -0.707106
vn 0.000000 0.707107 -0.707106
vn 0.000000 0.000000 1.000000
vn 0.000000 0.000000 1.000000
vn 0.000000 0.000000 1.000000
vn 0.000000 0.000000 1.000000
vn 0.000000 1.000000 0.000000
vn 0.000000 1.000000 0.000000
vn 0.000000 1.000000 0.000000
vn 0.000000 1.000000 0.000000
vn 0.000000 0.000000 -1.000000
vn 0.000000 0.000000 -1.000000
vn 0.000000 0.000000 -1.000000
vn 0.000000 0.000000 -1.000000
vn -1.000000 0.000000 0.000000
vn -1.000000 0.000000 0.000000
vn -1.000000 0.000000 0.000000
vn -1.000000 0.000000 0.000000
vn -0.577337 0.577370 0.577344
vn -0.577337 0.577370 0.577344
vn -0.577337 0.577370 0.577344
vn -0.577337 0.577370 -0.577344
vn -0.577337 0.577370 -0.577344
vn -0.577337 0.577370 -0.577344
vn -0.998495 0.001959 0.054801
vn -0.998668 0.051544 0.002441
vn -0.998586 0.053153 0.000898
vn -0.998434 0.000964 0.055943
vn -0.689403 0.002007 0.724376
vn -0.689403 0.002007 0.724376
vn -0.689427 0.002000 0.724352
vn -0.697414 -0.000026 0.716669
vn -0.000133 0.706786 0.707428
vn -0.000133 0.706786 0.707428
vn -0.000133 0.706786 0.707428
vn -0.000133 0.706786 0.707428
vn -0.709226 0.704926 0.008808
vn -0.716828 0.696858 0.023391
vn -0.716378 0.697342 -0.022726
vn -0.708964 0.705193 -0.008532
vn 0.997938 0.064114 0.003140
vn 0.998249 0.001611 0.059126
vn 0.998198 0.000599 0.060002
vn 0.997789 0.066458 0.000967
vn 0.710143 0.703676 0.023152
vn 0.702164 0.711970 0.008007
vn 0.702236 0.711900 -0.007910
vn 0.710663 0.703125 -0.023942
vn 0.689008 0.001902 0.724751
vn 0.689008 0.001902 0.724751
vn 0.699529 -0.000399 0.714604
vn 0.689036 0.001896 0.724725
vn -0.998670 0.051513 -0.002347
vn -0.998497 0.001923 -0.054776
vn -0.998439 0.000965 -0.055847
vn -0.998585 0.053173 -0.000702
vn -0.000155 0.706911 -0.707302
vn -0.000155 0.706911 -0.707302
vn -0.000155 0.706911 -0.707302
vn -0.000155 0.706911 -0.707302
vn -0.693311 0.001937 -0.720636
vn -0.693311 0.001937 -0.720636
vn -0.700764 -0.000217 -0.713393
vn -0.693333 0.001931 -0.720614
vn 0.998239 0.001613 -0.059307
vn 0.997937 0.064121 -0.003123
vn 0.997789 0.066455 -0.000948
vn 0.998187 0.000597 -0.060188
vn 0.685073 0.001966 -0.728472
vn 0.685073 0.001966 -0.728472
vn 0.685103 0.001960 -0.728443
vn 0.696584 -0.000259 -0.717475
vn -0.999976 -0.006960 0.000069
vn -0.999419 -0.002764 0.033961
vn -0.998513 0.000099 0.054511
vn -0.999976 -0.006829 0.001136
vn 0.999400 -0.002688 0.034533
vn 0.999980 -0.006342 0.000081
vn 0.999980 -0.006230 0.001132
vn 0.998321 -0.000384 0.057930
vn -0.999421 -0.002757 -0.033903
vn -0.999976 -0.006960 -0.000092
vn -0.999976 -0.006829 -0.001158
vn -0.998518 0.000088 -0.054427
vn 0.999980 -0.006342 -0.000054
vn 0.999388 -0.002674 -0.034883
vn 0.998307 -0.000378 -0.058156
vn 0.999980 -0.006232 -0.001100
vn 0.129844 0.686555 0.715390
vn 0.129844 0.686555 0.715390
vn 0.129844 0.686555 0.715390
vn 0.129844 0.686555 0.715390
vn 0.747952 0.663510 0.017960
vn 0.747441 0.664128 0.016333
vn 0.747818 0.663703 -0.016332
vn 0.748036 0.663440 -0.017007
vn 0.741697 0.001084 0.670734
vn 0.741697 0.001084 0.670734
vn 0.761024 -0.034077 0.647828
vn 0.750759 -0.015043 0.660405
vn 0.129045 0.683356 -0.718591
vn 0.129045 0.683356 -0.718591
vn 0.129045 0.683356 -0.718591
vn 0.129045 0.683356 -0.718591
vn 0.744960 0.001122 -0.667108
vn 0.744960 0.001122 -0.667108
vn 0.753813 -0.015011 -0.656918
vn 0.763846 -0.034071 -0.644499
vn 0.136822 -0.700467 0.700447
vn 0.136822 -0.700467 0.700447
vn 0.136822 -0.700467 0.700447
vn 0.136822 -0.700467 0.700447
vn 0.777231 -0.629112 0.011412
vn 0.783811 -0.620450 0.026121
vn 0.783714 -0.620569 -0.026212
vn 0.777192 -0.629157 -0.011593
vn 0.134904 -0.702708 -0.698572
vn 0.134904 -0.702708 -0.698572
vn 0.134904 -0.702708 -0.698572
vn 0.134904 -0.702708 -0.698572
vn -0.708115 0.705786 0.020963
vn -0.707796 0.706143 0.019686
vn -0.707671 0.706277 -0.019342
vn -0.708200 0.705687 -0.021412
vn -0.685289 0.003159 0.728265
vn -0.685289 0.003159 0.728265
vn -0.685289 0.003159 0.728265
vn -0.685289 0.003159 0.728265
vn -0.688123 0.005642 -0.725572
vn -0.688123 0.005642 -0.725572
vn -0.688123 0.005642 -0.725572
vn -0.688123 0.005642 -0.725572
vn -0.719333 -0.694665 -0.000746
vn -0.719333 -0.694665 -0.000746
vn -0.719333 -0.694665 -0.000746
vn -0.719333 -0.694665 -0.000746
vn -0.000000 0.000000 1.000000
vn -0.000000 0.000000 1.000000
vn -0.000000 0.000000 1.000000
vn -0.000000 0.000000 1.000000
vn -0.000056 -0.000001 -1.000000
vn -0.000056 -0.000001 -1.000000
vn -0.000056 -0.000001 -1.000000
vn -0.000056 -0.000001 -1.000000
vn 0.092800 0.995685 0.000003
vn 0.092800 0.995685 0.000003
vn 0.092800 0.995685 0.000003
vn 0.092800 0.995685 0.000003
vn 0.088254 -0.000529 0.996098
vn 0.088254 -0.000529 0.996098
vn 0.088254 -0.000529 0.996098
vn 0.088254 -0.000529 0.996098
vn 0.102983 -0.994683 -0.000712
vn 0.102983 -0.994683 -0.000712
vn 0.102983 -0.994683 -0.000712
vn 0.102983 -0.994683 -0.000712
vn 0.084946 0.001179 -0.996385
vn 0.084946 0.001179 -0.996385
vn 0.084946 0.001179 -0.996385
vn 0.084946 0.001179 -0.996385
vn 0.000000 1.000000 -0.000000
vn 0.000000 1.000000 -0.000000
vn 0.000000 1.000000 -0.000000
vn 0.000000 1.000000 -0.000000
vn -0.824776 0.402315 0.397351
vn -0.824776 0.402315 0.397351
vn 0.819709 0.432126 0.375959
vn 0.819709 0.432126 0.375959
vn -0.824123 0.418785 -0.381368
vn -0.824123 0.418785 -0.381368
vn 0.820285 0.421307 -0.386824
vn 0.820285 0.421307 -0.386824
vn -0.707173 -0.002534 0.707036
vn 0.709019 -0.002503 0.705185
vn -0.709752 -0.002846 -0.704446
vn 0.707062 -0.002315 -0.707148
vn 0.798368 0.479282 0.364552
vn 0.798368 0.479282 0.364552
vn 0.801236 0.475800 -0.362816
vn 0.801236 0.475800 -0.362816
vn -0.739541 0.522629 0.424191
vn -0.739541 0.522629 0.424191
vn -0.741728 0.523015 -0.419874
vn -0.741728 0.523015 -0.419874
vn -0.829705 -0.387862 0.401439
vn -0.829705 -0.387862 0.401439
vn -0.829705 -0.387862 0.401439
vn -0.829705 -0.387862 0.401440
vn -0.829848 -0.385111 -0.403784
vn -0.829848 -0.385111 -0.403784
vn -0.829848 -0.385111 -0.403784
vn -0.829848 -0.385111 -0.403784
vn 0.000000 1.000000 0.000000
vn 0.000000 1.000000 0.000000
vn 0.000000 1.000000 0.000000
vn 0.000000 1.000000 0.000000
vn 0.000000 1.000000 -0.000000
vn 0.000000 1.000000 -0.000000
vn 0.000000 1.000000 -0.000000
vn 0.000000 1.000000 -0.000000
vn 0.000000 1.000000 0.000000
vn 0.000000 1.000000 0.000000
vn 0.000000 1.000000 0.000000
vn 0.000000 1.000000 0.000000
vn 0.000000 1.000000 0.000000
vn 0.000000 1.000000 0.000000
vn 0.000000 1.000000 0.000000
vn 0.000000 1.000000 0.000000
vn 0.996167 0.087467 0.000000
vn 0.996167 0.087467 0.000000
vn 0.996167 0.087467 0.000000
vn 0.996167 0.087467 0.000000
vn 0.000000 0.065690 -0.997840
vn 0.000000 0.065690 -0.997840
vn 0.000000 0.065690 -0.997840
vn 0.000000 0.065690 -0.997840
vn -0.996167 0.087467 0.000000
vn -0.996167 0.087467 0.000000
vn -0.996167 0.087467 0.000000
vn -0.996167 0.087467 0.000000
vn 0.000000 0.065690 0.997840
vn 0.000000 0.065690 0.997840
vn 0.000000 0.065690 0.997840
vn 0.000000 0.065690 0.997840
s 1
g openframe group4
usemtl lambert2SG
f 3/216/1 1/1/2 4/4/3
f 4/4/3 1/1/2 2/218/4 5/5/5
f 2/2/4 6/6/6 5/5/5
f 4/4/3 8/8/7 7/7/8 3/3/1
f 6/6/6 10/10/9 9/9/10 5/5/5
f 12/221/11 11/11/12 8/8/7 9/9/10
f 9/9/10 10/10/9 12/12/11
f 7/7/8 8/8/7 11/214/12
s off
f 14/217/13 13/14/14 1/1/15 3/216/16
f 16/219/17 15/16/18 6/6/19 2/2/20
f 7/7/21 11/214/22 18/215/23 17/18/24
f 12/12/25 10/10/26 20/19/27 19/20/28
f 13/14/29 16/15/30 2/218/31 1/1/32
f 11/11/33 12/221/34 19/220/35 18/17/36
f 15/16/37 20/19/38 10/10/39 6/6/40
f 17/18/41 14/13/42 3/3/43 7/7/44
f 21/21/45 22/22/46 32/23/47 31/24/48
f 22/22/49 23/25/50 33/26/51 32/23/52
f 23/25/53 24/27/54 34/28/55 33/26/56
f 24/27/57 25/29/58 35/30/59 34/28/60
f 25/29/61 26/31/62 36/32/63 35/30/64
f 26/31/65 27/33/66 37/34/67 36/32/68
f 28/35/69 29/36/70 39/37/71 38/38/72
f 29/36/73 30/39/74 40/40/75 39/37/76
f 30/39/77 21/21/78 31/24/79 40/40/80
s 2
f 22/41/81 21/42/82 41/43/83
f 23/44/84 22/41/81 41/43/83
f 24/45/85 23/44/84 41/43/83
f 25/46/86 24/45/85 41/43/83
f 26/47/87 25/46/86 41/43/83
f 27/48/88 26/47/87 41/43/83
f 28/49/89 27/48/88 41/43/83
f 29/50/90 28/49/89 41/43/83
f 30/51/91 29/50/90 41/43/83
f 21/42/82 30/51/91 41/43/83
s 3
f 31/52/92 32/53/93 42/54/94
f 32/53/93 33/55/95 42/54/94
f 33/55/95 34/56/96 42/54/94
f 34/56/96 35/57/97 42/54/94
f 35/57/97 36/58/98 42/54/94
f 36/58/98 37/59/99 42/54/94
f 37/59/99 38/60/100 42/54/94
f 38/60/100 39/61/101 42/54/94
f 39/61/101 40/62/102 42/54/94
f 40/62/102 31/52/92 42/54/94
s off
f 43/63/103 44/64/104 46/65/105 45/66/106
f 45/66/107 46/65/108 48/67/109 47/68/110
f 47/68/111 48/67/112 50/69/113 49/70/114
f 51/71/115 52/72/116 62/73/117 61/74/118
f 52/72/119 53/75/120 63/76/121 62/73/122
f 53/75/123 54/77/124 64/78/125 63/76/126
f 54/77/127 55/79/128 65/80/129 64/78/130
f 55/79/131 56/81/132 66/82/133 65/80/134
f 56/81/135 57/83/136 67/84/137 66/82/138
f 58/85/139 59/86/140 69/87/141 68/88/142
f 59/86/143 60/89/144 70/90/145 69/87/146
f 60/89/147 51/71/148 61/74/149 70/90/150
s 4
f 52/91/151 51/92/152 71/93/153
f 53/94/154 52/91/151 71/93/153
f 54/95/155 53/94/154 71/93/153
f 55/96/156 54/95/155 71/93/153
f 56/97/157 55/96/156 71/93/153
f 57/98/158 56/97/157 71/93/153
f 58/99/159 57/98/158 71/93/153
f 59/100/160 58/99/159 71/93/153
f 60/101/161 59/100/160 71/93/153
f 51/92/152 60/101/161 71/93/153
s 5
f 61/102/162 62/103/163 72/104/164
f 62/103/163 63/105/165 72/104/164
f 63/105/165 64/106/166 72/104/164
f 64/106/166 65/107/167 72/104/164
f 65/107/167 66/108/168 72/104/164
f 66/108/168 67/109/169 72/104/164
f 67/109/169 68/110/170 72/104/164
f 68/110/170 69/111/171 72/104/164
f 69/111/171 70/112/172 72/104/164
f 70/112/172 61/102/162 72/104/164
s off
f 73/113/173 74/114/174 76/115/175 75/116/176
f 75/116/177 76/115/178 78/117/179 77/118/180
f 77/118/181 78/117/182 80/119/183 79/120/184
f 82/245/185 81/122/186 85/123/187 84/244/188
f 84/125/189 86/126/190 90/127/191 89/140/192
f 86/126/193 85/123/194 88/129/195 87/130/196
f 89/131/197 91/132/198 95/133/199 94/134/200
f 91/132/201 90/127/202 93/135/203 92/136/204
f 81/122/205 83/137/206 88/129/207 85/123/208
f 86/126/209 87/130/210 93/135/211 90/127/212
f 91/132/213 92/136/214 96/138/215 95/133/216
f 94/139/217 82/121/218 84/125/219 89/140/220
f 84/124/221 85/123/222 86/126/223
f 89/128/224 90/127/225 91/132/226
s 6
f 97/141/227 100/142/228 153/143/229 156/144/230
s 7
f 98/145/231 97/141/232 114/146/233 113/147/234
s off
f 99/148/235 98/145/236 103/243/237 102/150/238
s 8
f 100/142/239 99/148/240 106/151/241 105/152/242
s 9
f 101/153/243 104/242/244 139/234/245 138/156/246
s 10
f 102/150/247 101/153/248 112/157/249 111/158/250
s 11
f 104/154/251 103/149/252 118/159/253 117/160/254
s 6
f 105/152/255 108/161/256 149/162/257 152/163/258
s off
f 107/164/259 106/151/260 111/158/261 110/241/262
s 13
f 108/161/263 107/164/264 121/166/265 120/167/266
s 9
f 109/171/267 112/157/268 135/169/269 134/170/270
s 14
f 110/165/271 109/246/272 123/247/273 122/222/274
s 6
f 115/174/275 114/146/276 145/175/277 148/176/278
s 9
f 117/160/279 116/177/280 131/178/281 130/179/282
s 6
f 120/167/283 119/180/284 141/181/285 144/182/286
s 9
f 124/183/287 123/172/288 127/184/289 126/185/290
s off
f 125/239/291 128/237/292 143/188/293 142/226/294
s 16
f 126/185/295 125/240/296 132/236/297 131/178/298
s 17
f 128/187/299 127/184/300 134/238/301 133/233/302
s off
f 129/192/303 132/190/304 147/193/305 146/194/306
s 17
f 130/179/307 129/235/308 140/229/309 139/155/310
s off
f 133/191/311 136/231/312 151/197/313 150/224/314
s 17
f 136/196/315 135/169/316 138/156/317 137/228/318
s off
f 137/199/319 140/195/320 155/200/321 154/201/322
s 19
f 142/189/323 141/181/324 148/176/325 147/204/326
s off
f 144/182/327 143/225/328 150/198/329 149/162/330
f 146/202/331 145/175/332 156/144/333 155/203/334
f 152/163/335 151/223/336 154/205/337 153/143/338
f 98/145/339 113/147/340 118/159/341 103/149/342
f 107/164/343 110/165/344 122/222/345 121/166/346
s 6
f 145/175/277 114/146/276 97/141/227 156/144/230
s 9
f 131/178/281 116/177/280 124/183/287 126/185/290
f 127/184/289 123/172/288 109/168/267 134/238/270
f 112/157/268 101/153/243 138/156/246 135/169/269
f 104/154/244 117/160/279 130/179/282 139/155/245
s off
f 132/190/347 125/186/348 142/227/349 147/193/350
f 128/237/351 133/191/352 150/224/353 143/188/354
f 136/231/355 137/199/356 154/201/357 151/197/358
f 140/195/359 129/192/360 146/194/361 155/200/362
s 6
f 105/152/255 152/163/258 153/143/229 100/142/228
s off
f 99/148/363 102/150/364 111/158/365 106/151/366
s 6
f 108/161/256 120/167/283 144/182/286 149/162/257
f 141/181/285 119/180/284 115/174/275 148/176/278
s 8
f 97/141/367 98/145/368 99/148/240 100/142/239
s 10
f 101/153/248 102/150/247 103/243/369 104/242/370
s 8
f 105/152/242 106/151/241 107/164/371 108/161/372
s 10
f 109/171/373 110/241/374 111/158/250 112/157/249
s 7
f 113/147/234 114/146/233 115/174/375
s 11
f 116/177/376 117/160/254 118/159/253
s 13
f 119/180/377 120/167/266 121/166/265
s 14
f 122/173/274 123/172/273 124/183/378
s 16
f 125/240/296 126/185/295 127/184/379 128/187/380
f 129/235/381 130/179/382 131/178/298 132/236/297
s 17
f 133/232/302 134/170/301 135/169/316 136/196/315
f 137/228/318 138/156/317 139/234/310 140/230/309
s 19
f 141/181/324 142/189/323 143/225/383 144/182/384
f 145/175/385 146/202/386 147/204/326 148/176/325
s off
f 149/162/387 150/198/388 151/223/389 152/163/390
f 153/143/391 154/205/392 155/203/393 156/144/394
f 8/8/395 4/4/396 157/207/397 158/206/398
f 4/4/399 5/5/400 159/208/401 157/207/402
f 5/5/403 9/9/404 160/209/405 159/208/406
f 9/9/407 8/8/408 158/206/409 160/209/410
f 158/206/411 157/207/412 161/211/413 162/210/414
f 157/207/415 159/208/416 163/212/417 161/211/418
f 159/208/419 160/209/420 164/213/421 163/212/422
f 160/209/423 158/206/424 162/210/425 164/213/426
