# This file uses centimeters as units for non-parametric coordinates.

mtllib corpse_storage_door.mtl
g default
v -7.918065 0.081273 0.500000
v -7.941403 0.081273 0.476662
v -7.175346 0.081273 0.500000
v -7.941403 0.190200 0.476662
v -7.918065 0.190200 0.500000
v -7.918065 0.213538 0.476662
v -7.175346 0.213538 0.476662
v -7.175346 0.190200 0.500000
v -7.941403 0.190200 -0.476662
v -7.918065 0.213538 -0.476662
v -7.918065 0.190200 -0.500000
v -7.175346 0.190200 -0.500000
v -7.175346 0.213538 -0.476662
v -7.941403 0.081273 -0.476662
v -7.918065 0.081273 -0.500000
v -7.175346 0.081273 -0.500000
v -7.807570 0.726251 0.552852
v -7.807570 0.731616 0.558217
v -7.812934 0.731616 0.552852
v -7.705621 0.731616 0.552852
v -7.710986 0.731616 0.558217
v -7.710986 0.726251 0.552852
v -7.812934 0.837278 0.552852
v -7.807570 0.837278 0.558217
v -7.807570 0.842643 0.552852
v -7.710986 0.842643 0.552852
v -7.710986 0.837278 0.558217
v -7.705621 0.837278 0.552852
v -7.812934 0.837278 0.047287
v -7.807570 0.842643 0.047287
v -7.710986 0.842643 0.047287
v -7.705621 0.837278 0.047287
v -7.807570 0.726251 0.047287
v -7.812934 0.731616 0.047287
v -7.705621 0.731616 0.047287
v -7.710986 0.726251 0.047287
v -8.096980 0.719878 0.147840
v -8.096980 0.725831 0.153792
v -8.102933 0.725831 0.147840
v -6.455245 0.725831 0.147840
v -6.461197 0.725831 0.153792
v -6.461197 0.719878 0.147840
v -8.102933 0.843062 0.147840
v -8.096980 0.843062 0.153792
v -8.096980 0.849015 0.147840
v -6.461197 0.849015 0.147840
v -6.461197 0.843062 0.153792
v -6.455245 0.843062 0.147840
v -8.102933 0.843062 -0.147840
v -8.096980 0.849015 -0.147840
v -8.096980 0.843062 -0.153792
v -6.461197 0.843062 -0.153792
v -6.461197 0.849015 -0.147840
v -6.455245 0.843062 -0.147840
v -8.102933 0.725831 -0.147840
v -8.096980 0.725831 -0.153792
v -8.096980 0.719878 -0.147840
v -6.461197 0.719878 -0.147840
v -6.461197 0.725831 -0.153792
v -6.455245 0.725831 -0.147840
v 4.426392 0.085634 3.674774
v 4.771845 0.085634 3.674774
v 4.426392 0.194567 3.674774
v 4.771845 0.194567 3.674774
v 4.426392 0.194567 2.868423
v 4.771845 0.194567 2.868423
v 4.426392 0.085634 2.868423
v 4.771845 0.085634 2.868423
v 4.825377 0.206908 2.866268
v 4.785280 0.236040 2.866268
v 4.735719 0.236040 2.866268
v 4.695622 0.206908 2.866268
v 4.680307 0.159772 2.866268
v 4.695622 0.112636 2.866268
v 4.735719 0.083504 2.866268
v 4.785280 0.083504 2.866268
v 4.825377 0.112636 2.866268
v 4.840692 0.159772 2.866268
v 4.825377 0.206908 3.676369
v 4.785280 0.236040 3.676369
v 4.735719 0.236040 3.676369
v 4.695622 0.206908 3.676369
v 4.680307 0.159772 3.676369
v 4.695622 0.112636 3.676369
v 4.735719 0.083504 3.676369
v 4.785280 0.083504 3.676369
v 4.825377 0.112636 3.676369
v 4.840692 0.159772 3.676369
v 4.760499 0.159772 2.866268
v 4.760499 0.159772 3.676369
v 4.767409 0.153205 3.456037
v 4.760714 0.152426 3.449512
v 4.837339 0.154106 3.449759
v 4.830130 0.153590 3.456037
v 3.886423 0.556056 3.436754
v 3.876924 0.556054 3.435524
v 3.876924 0.619768 3.435524
v 3.886423 0.619766 3.436754
v 3.886368 0.626560 3.430918
v 3.876744 0.626560 3.429346
v 3.876924 0.556054 3.057396
v 3.886423 0.556056 3.056166
v 3.876744 0.626560 3.063574
v 3.886374 0.626560 3.062010
v 3.886423 0.619766 3.056166
v 3.876924 0.619768 3.057396
v 4.767409 0.153205 3.036884
v 4.760725 0.152385 3.043363
v 4.837311 0.154201 3.043239
v 4.830130 0.153590 3.036884
v 4.658586 0.421064 3.456037
v 4.653456 0.416173 3.449615
v 4.699727 0.366173 3.449602
v 4.705303 0.371351 3.456037
v 4.749111 0.415080 3.456037
v 4.754494 0.420881 3.449630
v 4.708062 0.470693 3.449653
v 4.703131 0.465617 3.456037
v 4.438875 0.554259 3.036884
v 4.438384 0.546667 3.043331
v 4.429129 0.549262 3.043297
v 4.429264 0.556110 3.036884
v 4.429289 0.619748 3.036884
v 4.429140 0.626560 3.043308
v 4.438406 0.624113 3.043284
v 4.438945 0.615932 3.036884
v 4.429264 0.556110 3.456037
v 4.429121 0.549262 3.449612
v 4.438392 0.546661 3.449575
v 4.438875 0.554259 3.456037
v 4.658586 0.421065 3.036884
v 4.705303 0.371351 3.036884
v 4.699727 0.366173 3.043318
v 4.653456 0.416173 3.043305
v 4.708044 0.470703 3.043293
v 4.754487 0.420903 3.043262
v 4.749125 0.415121 3.036884
v 4.703170 0.465628 3.036884
v 4.429147 0.626560 3.449621
v 4.429301 0.619766 3.456037
v 4.438945 0.615932 3.456037
v 4.438406 0.624113 3.449636
v 3.613443 0.556113 3.338775
v 3.607690 0.556113 3.333976
v 3.607690 0.619709 3.333976
v 3.613485 0.619658 3.338783
v 3.614334 0.626560 3.334663
v 3.607690 0.619658 3.158972
v 3.614334 0.626560 3.158257
v 3.613485 0.619658 3.154138
v 3.607690 0.556113 3.158945
v 3.613485 0.556164 3.154138
v 4.825377 0.206908 -3.708061
v 4.785280 0.236040 -3.708061
v 4.735719 0.236040 -3.708061
v 4.695622 0.206908 -3.708061
v 4.680307 0.159772 -3.708061
v 4.695622 0.112636 -3.708061
v 4.735719 0.083504 -3.708061
v 4.785280 0.083504 -3.708061
v 4.825377 0.112636 -3.708061
v 4.840692 0.159772 -3.708061
v 4.825377 0.206908 -2.897960
v 4.785280 0.236040 -2.897960
v 4.735719 0.236040 -2.897960
v 4.695622 0.206908 -2.897960
v 4.680307 0.159772 -2.897960
v 4.695622 0.112636 -2.897960
v 4.735719 0.083504 -2.897960
v 4.785280 0.083504 -2.897960
v 4.825377 0.112636 -2.897960
v 4.840692 0.159772 -2.897960
v 4.760499 0.159772 -3.708061
v 4.760499 0.159772 -2.897960
v -7.236770 0.079945 4.507997
v -7.320868 0.079945 4.423899
v 4.507997 0.079945 4.423899
v 4.423899 0.079945 4.507997
v -7.320868 0.472459 4.423899
v -7.236770 0.472459 4.507997
v -7.236770 0.556557 4.423899
v 4.423899 0.556557 4.423899
v 4.423899 0.472459 4.507997
v 4.507997 0.472459 4.423899
v -7.320868 0.472459 -4.423899
v -7.236770 0.556557 -4.423899
v -7.236770 0.472459 -4.507997
v 4.423899 0.472459 -4.507997
v 4.423899 0.556557 -4.423899
v 4.507997 0.472459 -4.423899
v -7.320868 0.079945 -4.423899
v -7.236770 0.079945 -4.507997
v 4.423899 0.079945 -4.507997
v 4.507997 0.079945 -4.423899
v -7.942891 0.992376 0.210564
v -7.934655 1.000688 0.218687
v -7.934804 1.008501 0.211023
v -7.942902 1.000385 0.201876
v -7.834112 1.000450 0.201272
v -7.842444 1.008501 0.210898
v -7.842309 1.000848 0.218687
v -7.834152 0.993023 0.210612
v -7.942911 1.000390 -0.201647
v -7.934659 1.008501 -0.210874
v -7.934802 1.000835 -0.218683
v -7.942891 0.992588 -0.210560
v -7.834152 0.993024 -0.210613
v -7.842453 1.000704 -0.218687
v -7.842303 1.008501 -0.211041
v -7.834111 1.000450 -0.201273
v -7.936769 0.163217 0.218687
v -7.942797 0.257717 0.212997
v -7.942468 0.163217 0.212987
v -7.834656 0.163217 0.212956
v -7.834313 0.271840 0.212998
v -7.840356 0.163217 0.218687
v -7.942468 0.163217 -0.212939
v -7.942796 0.257725 -0.212990
v -7.936769 0.163217 -0.218680
v -7.840356 0.163217 -0.218687
v -7.834312 0.271838 -0.212998
v -7.834656 0.163217 -0.212987
v -7.838705 0.721905 -0.151748
v -7.831156 0.713687 -0.155295
v -7.831528 0.721562 -0.167016
v -7.839064 0.729964 -0.159374
v -7.839074 0.729963 0.159375
v -7.831544 0.721569 0.167142
v -7.831167 0.713397 0.155111
v -7.838714 0.721905 0.151748
v -7.838780 0.945739 -0.159358
v -7.831498 0.953952 -0.168102
v -7.831535 0.962422 -0.160224
v -7.838784 0.953594 -0.151493
v -7.838783 0.953565 0.151558
v -7.831538 0.962336 0.160207
v -7.831512 0.953972 0.168196
v -7.838806 0.945691 0.159410
v -7.946368 0.723393 -0.145197
v -7.938371 0.731194 -0.142530
v -7.938072 0.739575 -0.150671
v -7.946003 0.732392 -0.157313
v -7.946011 0.732379 0.157317
v -7.938086 0.739569 0.150702
v -7.938558 0.731210 0.142695
v -7.946376 0.723393 0.145198
v -7.945612 0.943109 -0.158648
v -7.937842 0.935225 -0.150513
v -7.937858 0.943517 -0.142227
v -7.945576 0.951574 -0.150701
v -7.945537 0.951153 0.151402
v -7.937734 0.943139 0.142873
v -7.937892 0.934901 0.151193
v -7.945569 0.942715 0.159379
v 4.767409 0.153205 -3.118292
v 4.760714 0.152426 -3.124817
v 4.837339 0.154106 -3.124570
v 4.830130 0.153590 -3.118292
v 3.886423 0.556056 -3.137575
v 3.876924 0.556054 -3.138805
v 3.876924 0.619768 -3.138805
v 3.886423 0.619766 -3.137575
v 3.886368 0.626560 -3.143411
v 3.876744 0.626560 -3.144983
v 3.876924 0.556054 -3.516933
v 3.886423 0.556056 -3.518163
v 3.876744 0.626560 -3.510755
v 3.886374 0.626560 -3.512320
v 3.886423 0.619766 -3.518163
v 3.876924 0.619768 -3.516933
v 4.767409 0.153205 -3.537446
v 4.760725 0.152385 -3.530966
v 4.837311 0.154201 -3.531090
v 4.830130 0.153590 -3.537446
v 4.658586 0.421064 -3.118292
v 4.653456 0.416173 -3.124714
v 4.699727 0.366173 -3.124727
v 4.705303 0.371351 -3.118292
v 4.749111 0.415080 -3.118292
v 4.754494 0.420881 -3.124699
v 4.708062 0.470693 -3.124676
v 4.703131 0.465617 -3.118292
v 4.438875 0.554259 -3.537446
v 4.438384 0.546667 -3.530998
v 4.429129 0.549262 -3.531032
v 4.429264 0.556110 -3.537446
v 4.429289 0.619748 -3.537446
v 4.429140 0.626560 -3.531021
v 4.438406 0.624113 -3.531045
v 4.438945 0.615932 -3.537446
v 4.429264 0.556110 -3.118292
v 4.429121 0.549262 -3.124717
v 4.438392 0.546661 -3.124754
v 4.438875 0.554259 -3.118292
v 4.658586 0.421065 -3.537446
v 4.705303 0.371351 -3.537446
v 4.699727 0.366173 -3.531011
v 4.653456 0.416173 -3.531024
v 4.708044 0.470703 -3.531036
v 4.754487 0.420903 -3.531067
v 4.749125 0.415121 -3.537446
v 4.703170 0.465628 -3.537446
v 4.429147 0.626560 -3.124708
v 4.429301 0.619766 -3.118292
v 4.438945 0.615932 -3.118292
v 4.438406 0.624113 -3.124693
v 3.613443 0.556113 -3.235554
v 3.607690 0.556113 -3.240354
v 3.607690 0.619709 -3.240354
v 3.613485 0.619658 -3.235547
v 3.614334 0.626560 -3.239666
v 3.607690 0.619658 -3.415357
v 3.614334 0.626560 -3.416072
v 3.613485 0.619658 -3.420192
v 3.607690 0.556113 -3.415385
v 3.613485 0.556164 -3.420192
v 4.426392 0.085634 -2.899554
v 4.771845 0.085634 -2.899554
v 4.426392 0.194567 -2.899554
v 4.771845 0.194567 -2.899554
v 4.426392 0.194567 -3.705906
v 4.771845 0.194567 -3.705906
v 4.426392 0.085634 -3.705906
v 4.771845 0.085634 -3.705906
v -6.650806 0.992376 0.210564
v -6.642570 1.000688 0.218687
v -6.642719 1.008501 0.211023
v -6.650817 1.000385 0.201876
v -6.542027 1.000450 0.201272
v -6.550360 1.008501 0.210898
v -6.550225 1.000848 0.218687
v -6.542068 0.993023 0.210612
v -6.650826 1.000390 -0.201647
v -6.642575 1.008501 -0.210874
v -6.642717 1.000835 -0.218683
v -6.650806 0.992588 -0.210560
v -6.542068 0.993024 -0.210613
v -6.550369 1.000704 -0.218687
v -6.550218 1.008501 -0.211041
v -6.542027 1.000450 -0.201273
v -6.644684 0.163217 0.218687
v -6.650712 0.257717 0.212997
v -6.650383 0.163217 0.212987
v -6.542571 0.163217 0.212956
v -6.542228 0.271840 0.212998
v -6.548271 0.163217 0.218687
v -6.650383 0.163217 -0.212939
v -6.650711 0.257725 -0.212990
v -6.644684 0.163217 -0.218680
v -6.548271 0.163217 -0.218687
v -6.542227 0.271838 -0.212998
v -6.542571 0.163217 -0.212987
v -6.546620 0.721905 -0.151748
v -6.539071 0.713687 -0.155295
v -6.539443 0.721562 -0.167016
v -6.546979 0.729964 -0.159374
v -6.546989 0.729963 0.159375
v -6.539459 0.721569 0.167142
v -6.539083 0.713397 0.155111
v -6.546629 0.721905 0.151748
v -6.546695 0.945739 -0.159358
v -6.539413 0.953952 -0.168102
v -6.539450 0.962422 -0.160224
v -6.546700 0.953594 -0.151493
v -6.546699 0.953565 0.151558
v -6.539454 0.962336 0.160207
v -6.539427 0.953972 0.168196
v -6.546721 0.945691 0.159410
v -6.654284 0.723393 -0.145197
v -6.646286 0.731194 -0.142530
v -6.645988 0.739575 -0.150671
v -6.653918 0.732392 -0.157313
v -6.653926 0.732379 0.157317
v -6.646001 0.739569 0.150702
v -6.646473 0.731210 0.142695
v -6.654292 0.723393 0.145198
v -6.653528 0.943109 -0.158648
v -6.645757 0.935225 -0.150513
v -6.645773 0.943517 -0.142227
v -6.653491 0.951574 -0.150701
v -6.653452 0.951153 0.151402
v -6.645649 0.943139 0.142873
v -6.645807 0.934901 0.151193
v -6.653484 0.942715 0.159379
vt 0.565097 0.847129
vt 0.548302 0.843224
vt 0.433542 0.843749
vt 0.552207 0.847129
vt 0.552209 0.935015
vt 0.431590 0.843226
vt 0.418701 0.843226
vt 0.435495 0.847131
vt 0.435497 0.935017
vt 0.418701 0.847131
vt 0.418702 0.935017
vt 0.565098 0.935015
vt 0.548302 0.847129
vt 0.548303 0.935015
vt 0.431590 0.847131
vt 0.431591 0.935017
vt 0.435495 0.830336
vt 0.548302 0.830334
vt 0.550255 0.843747
vt 0.435495 0.843225
vt 0.758356 0.879569
vt 0.759254 0.879569
vt 0.759258 0.939392
vt 0.758360 0.939393
vt 0.721199 0.866171
vt 0.721199 0.865273
vt 0.732628 0.865272
vt 0.732628 0.866170
vt 0.720301 0.866171
vt 0.721200 0.878674
vt 0.720423 0.879123
vt 0.746030 0.879570
vt 0.746927 0.879570
vt 0.746932 0.939393
vt 0.746034 0.939393
vt 0.733527 0.879571
vt 0.732629 0.878673
vt 0.720302 0.879571
vt 0.721200 0.879571
vt 0.721204 0.939395
vt 0.720307 0.939395
vt 0.732629 0.879571
vt 0.733531 0.939394
vt 0.732633 0.939394
vt 0.036746 0.928481
vt 0.035750 0.928481
vt 0.035745 0.893494
vt 0.036741 0.893493
vt 0.036731 0.827773
vt 0.036731 0.826777
vt 0.230293 0.826748
vt 0.230293 0.827744
vt 0.035735 0.827773
vt 0.036733 0.841645
vt 0.035871 0.842144
vt 0.231304 0.928452
vt 0.230308 0.928452
vt 0.230303 0.893464
vt 0.231299 0.893464
vt 0.245163 0.842610
vt 0.231292 0.842612
vt 0.230295 0.841616
vt 0.035737 0.842641
vt 0.036733 0.842641
vt 0.036739 0.877629
vt 0.035876 0.878127
vt 0.230295 0.842612
vt 0.231297 0.877600
vt 0.230301 0.877600
vt 0.035743 0.878625
vt 0.036739 0.878625
vt 0.036741 0.892497
vt 0.035878 0.892995
vt 0.230301 0.878596
vt 0.231297 0.878596
vt 0.231165 0.892966
vt 0.230303 0.892468
vt 0.707803 0.939396
vt 0.245169 0.877598
vt 0.021871 0.877631
vt 0.581860 0.867933
vt 0.581853 0.827055
vt 0.594743 0.827053
vt 0.594750 0.867931
vt 0.690158 0.827037
vt 0.690166 0.867914
vt 0.703048 0.827034
vt 0.703056 0.867912
vt 0.595047 0.922031
vt 0.595047 0.916166
vt 0.690906 0.916178
vt 0.690906 0.922042
vt 0.595048 0.910302
vt 0.690907 0.910313
vt 0.595049 0.904437
vt 0.690908 0.904448
vt 0.595049 0.898573
vt 0.690908 0.898584
vt 0.595050 0.892708
vt 0.690909 0.892719
vt 0.595051 0.886843
vt 0.690910 0.886854
vt 0.595045 0.939625
vt 0.595045 0.933760
vt 0.690904 0.933771
vt 0.690904 0.939636
vt 0.595046 0.927896
vt 0.690905 0.927907
vt 0.879773 0.846726
vt 0.884518 0.850173
vt 0.876841 0.855750
vt 0.873908 0.846726
vt 0.869164 0.850173
vt 0.867351 0.855750
vt 0.869164 0.861328
vt 0.873908 0.864775
vt 0.879773 0.864775
vt 0.884518 0.861328
vt 0.886330 0.855750
vt 0.886330 0.855750
vt 0.884518 0.861328
vt 0.876841 0.855750
vt 0.879773 0.864775
vt 0.873908 0.864775
vt 0.869164 0.861328
vt 0.867351 0.855750
vt 0.869164 0.850173
vt 0.873908 0.846726
vt 0.879773 0.846726
vt 0.884517 0.850173
vt 0.595049 0.922045
vt 0.595048 0.916180
vt 0.690907 0.916164
vt 0.690908 0.922028
vt 0.595047 0.910316
vt 0.690906 0.910299
vt 0.595046 0.904451
vt 0.690905 0.904434
vt 0.595045 0.898586
vt 0.690904 0.898570
vt 0.595044 0.892722
vt 0.690903 0.892705
vt 0.595043 0.886857
vt 0.690902 0.886841
vt 0.595052 0.939639
vt 0.595051 0.933774
vt 0.690910 0.933758
vt 0.690911 0.939622
vt 0.595050 0.927909
vt 0.690909 0.927893
vt 0.879773 0.846726
vt 0.884517 0.850173
vt 0.876841 0.855751
vt 0.873908 0.846726
vt 0.869164 0.850173
vt 0.867351 0.855751
vt 0.869164 0.861328
vt 0.873908 0.864775
vt 0.879773 0.864775
vt 0.884517 0.861328
vt 0.886330 0.855751
vt 0.886330 0.855750
vt 0.884518 0.861328
vt 0.876841 0.855751
vt 0.879773 0.864775
vt 0.873909 0.864775
vt 0.869164 0.861328
vt 0.867351 0.855751
vt 0.869164 0.850173
vt 0.873908 0.846726
vt 0.879773 0.846726
vt 0.884517 0.850173
vt 0.000129 0.040313
vt 0.040455 0.000002
vt 0.040449 0.030944
vt 0.032329 0.035631
vt 0.959689 0.000172
vt 0.969065 0.000174
vt 0.969057 0.040492
vt 0.959683 0.031115
vt 0.031072 0.040318
vt 0.040448 0.040320
vt 0.040318 0.737810
vt 0.032198 0.742496
vt 0.959682 0.040491
vt 0.968928 0.737982
vt 0.959552 0.737980
vt 0.030941 0.747184
vt 0.040317 0.747185
vt 0.040311 0.778128
vt 0.030935 0.778126
vt 0.959550 0.747356
vt 0.968926 0.747358
vt 0.968920 0.778300
vt 0.959545 0.778299
vt 0.999871 0.737988
vt 0.000000 0.737802
vt 0.030943 0.737808
vt 0.330719 0.921661
vt 0.329684 0.922392
vt 0.323646 0.916983
vt 0.324661 0.915887
vt 0.332053 0.922932
vt 0.329482 0.835044
vt 0.330286 0.823749
vt 0.330803 0.923634
vt 0.342877 0.923096
vt 0.331467 0.934620
vt 0.281686 0.925496
vt 0.282755 0.924161
vt 0.330479 0.936023
vt 0.344215 0.922186
vt 0.349140 0.917765
vt 0.325853 0.940715
vt 0.282734 0.937628
vt 0.281657 0.936317
vt 0.341829 0.823986
vt 0.342971 0.836867
vt 0.281649 0.923565
vt 0.287456 0.917318
vt 0.288527 0.918319
vt 0.280400 0.924911
vt 0.269555 0.925781
vt 0.276603 0.825003
vt 0.278033 0.836362
vt 0.394919 0.922120
vt 0.287605 0.942007
vt 0.286602 0.942982
vt 0.281471 0.938320
vt 0.393196 0.836369
vt 0.265155 0.825958
vt 0.329272 0.823785
vt 0.323946 0.891499
vt 0.322443 0.890290
vt 0.342829 0.824027
vt 0.350429 0.889355
vt 0.349013 0.890381
vt 0.277598 0.824948
vt 0.288175 0.891738
vt 0.286738 0.893006
vt 0.392921 0.823472
vt 0.388953 0.890320
vt 0.387524 0.889367
vt 0.776522 0.908967
vt 0.387729 0.891461
vt 0.788141 0.906205
vt 0.288706 0.892946
vt 0.783983 0.944097
vt 0.775694 0.882136
vt 0.790912 0.820252
vt 0.795367 0.940584
vt 0.795724 0.941907
vt 0.782024 0.844181
vt 0.288713 0.943324
vt 0.787586 0.881678
vt 0.288658 0.916192
vt 0.781677 0.845451
vt 0.793501 0.847067
vt 0.793122 0.848400
vt 0.322875 0.892484
vt 0.323398 0.914870
vt 0.322004 0.891538
vt 0.322485 0.915782
vt 0.581859 0.867929
vt 0.581854 0.827052
vt 0.594744 0.827050
vt 0.594749 0.867928
vt 0.690160 0.827040
vt 0.690164 0.867917
vt 0.703050 0.827038
vt 0.703054 0.867916
vt 0.330666 0.921675
vt 0.329632 0.922405
vt 0.323596 0.916993
vt 0.324611 0.915896
vt 0.332000 0.922944
vt 0.329469 0.835047
vt 0.330278 0.823750
vt 0.330750 0.923643
vt 0.342821 0.923110
vt 0.331413 0.934632
vt 0.281639 0.925501
vt 0.282708 0.924165
vt 0.330424 0.936036
vt 0.344157 0.922202
vt 0.349084 0.917789
vt 0.325799 0.940727
vt 0.282683 0.937630
vt 0.281607 0.936321
vt 0.341824 0.823987
vt 0.342967 0.836866
vt 0.281603 0.923566
vt 0.287410 0.917321
vt 0.288481 0.918323
vt 0.280353 0.924912
vt 0.269508 0.925782
vt 0.276583 0.825001
vt 0.278011 0.836362
vt 0.394836 0.922201
vt 0.287554 0.942011
vt 0.286550 0.942987
vt 0.281421 0.938320
vt 0.264699 0.838982
vt 0.265136 0.825951
vt 0.329262 0.823788
vt 0.323908 0.891508
vt 0.322405 0.890297
vt 0.342856 0.824078
vt 0.350376 0.889399
vt 0.348963 0.890426
vt 0.277579 0.824943
vt 0.288137 0.891737
vt 0.286700 0.893005
vt 0.392942 0.823562
vt 0.393204 0.836459
vt 0.388904 0.890399
vt 0.387475 0.889446
vt 0.781745 0.845470
vt 0.387679 0.891539
vt 0.793573 0.847124
vt 0.288667 0.892948
vt 0.775914 0.880907
vt 0.784238 0.945394
vt 0.775868 0.882220
vt 0.787797 0.881776
vt 0.322835 0.892492
vt 0.776307 0.907743
vt 0.288662 0.943328
vt 0.795146 0.940637
vt 0.288613 0.916198
vt 0.776446 0.909051
vt 0.788046 0.906249
vt 0.788179 0.907628
vt 0.323349 0.914880
vt 0.342784 0.824006
vt 0.264181 0.826030
vt 0.322436 0.915791
vt 0.289569 0.917035
vt 0.787648 0.883139
vt 0.795563 0.941960
vt 0.324776 0.942109
vt 0.350425 0.916853
vt 0.325803 0.942925
vt 0.783842 0.944140
vt 0.287676 0.944200
vt 0.388349 0.916926
vt 0.326860 0.941634
vt 0.350232 0.891547
vt 0.350866 0.890740
vt 0.782122 0.844212
vt 0.389720 0.917832
vt 0.386972 0.890753
vt 0.280342 0.936530
vt 0.268103 0.924981
vt 0.331717 0.936652
vt 0.332649 0.934791
vt 0.793255 0.848470
vt 0.321966 0.891546
vt 0.287832 0.893933
vt 0.289614 0.917030
vt 0.787493 0.883063
vt 0.287871 0.893929
vt 0.788335 0.907575
vt 0.324831 0.942096
vt 0.350482 0.916831
vt 0.325859 0.942912
vt 0.775783 0.880823
vt 0.287728 0.944195
vt 0.388426 0.916848
vt 0.326915 0.941624
vt 0.350281 0.891501
vt 0.350919 0.890693
vt 0.776415 0.907658
vt 0.389798 0.917758
vt 0.387021 0.890675
vt 0.280392 0.936530
vt 0.331772 0.936643
vt 0.332703 0.934780
vt 0.801548 0.825400
vt 0.784417 0.945336
vt 1.000000 0.040498
vt 0.969059 0.031117
vt 0.031080 0.000000
vt 0.967671 0.742670
vt 0.967802 0.035804
vt 0.031074 0.030943
vt 0.268150 0.924979
vt 0.264201 0.826038
vt 0.264722 0.838989
vt 0.733406 0.865721
vt 0.733527 0.878673
vt 0.707799 0.879572
vt 0.733406 0.879122
vt 0.720302 0.878674
vt 0.733526 0.866170
vt 0.720422 0.865722
vt 0.021865 0.842644
vt 0.231156 0.827246
vt 0.231291 0.841616
vt 0.231299 0.892468
vt 0.231163 0.878098
vt 0.231158 0.842114
vt 0.231289 0.827744
vt 0.035745 0.892497
vt 0.035743 0.877629
vt 0.035737 0.841645
vt 0.035868 0.827275
vt 0.565097 0.843223
vt 0.552207 0.843224
vt 0.840030 0.934638
vt 0.976086 0.834019
vt 0.982131 0.943620
vt 0.940935 0.833307
vt 0.905689 0.939373
vt 0.941000 0.940600
vt 0.978313 0.882455
vt 0.981656 0.889695
vt 0.951797 0.884636
vt 0.801603 0.900532
vt 0.809138 0.900900
vt 0.808188 0.921833
vt 0.804690 0.928615
vt 0.949862 0.947460
vt 0.948897 0.940794
vt 0.981653 0.944766
vt 0.977706 0.951585
vt 0.982066 0.890881
vt 0.948763 0.939684
vt 0.950931 0.892614
vt 0.977952 0.881353
vt 0.951838 0.883438
vt 0.949059 0.834040
vt 0.841004 0.943594
vt 0.841094 0.935996
vt 0.905970 0.946489
vt 0.904368 0.938130
vt 0.841152 0.934902
vt 0.842222 0.889974
vt 0.909500 0.883470
vt 0.907427 0.890483
vt 0.842247 0.888880
vt 0.839841 0.881618
vt 0.940895 0.834429
vt 0.943051 0.883198
vt 0.911192 0.835903
vt 0.943093 0.884291
vt 0.943404 0.891319
vt 0.911262 0.883920
vt 0.943435 0.892410
vt 0.941160 0.939505
vt 0.905403 0.938222
vt 0.908230 0.891514
vt 0.907672 0.946158
vt 0.939748 0.947702
vt 0.838727 0.881923
vt 0.841035 0.889076
vt 0.806736 0.893355
vt 0.841103 0.890168
vt 0.810230 0.901097
vt 0.839891 0.935720
vt 0.837072 0.942873
vt 0.805460 0.929087
vt 0.808936 0.922549
vt 0.951050 0.891479
vt 0.910049 0.835917
vt 0.904509 0.939195
vt 0.910540 0.882819
vt 0.911700 0.882856
vt 0.907199 0.891528
vt 0.908618 0.890404
vt 0.809907 0.900251
vt 0.809311 0.921726
vt 0.839835 0.881625
vt 0.976257 0.832921
vt 0.910669 0.834823
vt 0.910046 0.835918
vt 0.805936 0.893802
vt 0.804692 0.928630
vt 0.978311 0.882455
vt 0.981654 0.889695
vt 0.951795 0.884636
vt 0.801600 0.900547
vt 0.809135 0.900913
vt 0.808188 0.921847
vt 0.800635 0.921449
vt 0.949862 0.947460
vt 0.948897 0.940794
vt 0.981653 0.944765
vt 0.977706 0.951585
vt 0.982064 0.890881
vt 0.982130 0.943620
vt 0.950929 0.892615
vt 0.976083 0.834019
vt 0.977950 0.881353
vt 0.951836 0.883439
vt 0.949056 0.834041
vt 0.841007 0.943601
vt 0.841096 0.936003
vt 0.905970 0.946490
vt 0.904368 0.938131
vt 0.841154 0.934909
vt 0.842218 0.889981
vt 0.909498 0.883472
vt 0.907425 0.890485
vt 0.842243 0.888887
vt 0.842734 0.881183
vt 0.940892 0.834430
vt 0.943049 0.883198
vt 0.911188 0.835904
vt 0.943091 0.884291
vt 0.943402 0.891320
vt 0.911260 0.883922
vt 0.943433 0.892411
vt 0.905404 0.938224
vt 0.908228 0.891515
vt 0.907672 0.946159
vt 0.905690 0.939374
vt 0.939748 0.947703
vt 0.838721 0.881931
vt 0.841030 0.889083
vt 0.806731 0.893369
vt 0.841099 0.890175
vt 0.840032 0.934645
vt 0.810227 0.901110
vt 0.839893 0.935727
vt 0.837076 0.942882
vt 0.805462 0.929102
vt 0.808936 0.922563
vt 0.951048 0.891480
vt 0.907775 0.947368
vt 0.906487 0.947490
vt 0.904510 0.939196
vt 0.910538 0.882820
vt 0.911698 0.882857
vt 0.940933 0.833308
vt 0.948787 0.832918
vt 0.941160 0.939506
vt 0.948763 0.939685
vt 0.941000 0.940601
vt 0.907197 0.891529
vt 0.908616 0.890406
vt 0.809904 0.900265
vt 0.809311 0.921740
vt 0.800635 0.921434
vt 0.805940 0.893788
vt 0.838166 0.943244
vt 0.838161 0.943236
vt 0.842739 0.881176
vt 0.948790 0.832917
vt 0.976260 0.832922
vt 0.906487 0.947489
vt 0.907775 0.947367
vt 0.910672 0.834822
vt 0.801388 0.825332
vt 0.790735 0.820176
vn -0.707103 0.000000 0.707110
vn -0.707103 0.000000 0.707110
vn -0.707103 0.000000 0.707110
vn -0.707103 0.000000 0.707110
vn -0.707099 0.707115 0.000000
vn -0.707099 0.707115 0.000000
vn -0.707099 0.707115 0.000000
vn -0.707099 0.707115 0.000000
vn 0.000000 0.707107 0.707106
vn 0.000000 0.707107 0.707106
vn 0.000000 0.707107 0.707106
vn 0.000000 0.707107 0.707106
vn -0.707103 0.000000 -0.707110
vn -0.707103 0.000000 -0.707110
vn -0.707103 0.000000 -0.707110
vn -0.707103 0.000000 -0.707110
vn 0.000000 0.707107 -0.707106
vn 0.000000 0.707107 -0.707106
vn 0.000000 0.707107 -0.707106
vn 0.000000 0.707107 -0.707106
vn 0.000000 0.000000 1.000000
vn 0.000000 0.000000 1.000000
vn 0.000000 0.000000 1.000000
vn 0.000000 0.000000 1.000000
vn 0.000000 1.000000 0.000000
vn 0.000000 1.000000 0.000000
vn 0.000000 1.000000 0.000000
vn 0.000000 1.000000 0.000000
vn 0.000000 0.000000 -1.000000
vn 0.000000 0.000000 -1.000000
vn 0.000000 0.000000 -1.000000
vn 0.000000 0.000000 -1.000000
vn -1.000000 0.000000 0.000000
vn -1.000000 0.000000 0.000000
vn -1.000000 0.000000 0.000000
vn -1.000000 0.000000 0.000000
vn -0.577337 0.577370 0.577344
vn -0.577337 0.577370 0.577344
vn -0.577337 0.577370 0.577344
vn -0.577337 0.577370 -0.577344
vn -0.577337 0.577370 -0.577344
vn -0.577337 0.577370 -0.577344
vn -0.707134 -0.707080 0.000000
vn -0.707134 -0.707080 0.000000
vn -0.707134 -0.707080 0.000000
vn -0.707134 -0.707080 0.000000
vn 0.000000 -0.707112 0.707102
vn 0.000000 -0.707112 0.707102
vn 0.000000 -0.707112 0.707102
vn 0.000000 -0.707112 0.707102
vn -0.707131 0.000000 0.707083
vn -0.707131 0.000000 0.707083
vn -0.707131 0.000000 0.707083
vn -0.707131 0.000000 0.707083
vn 0.707134 -0.707080 0.000000
vn 0.707134 -0.707080 0.000000
vn 0.707134 -0.707080 0.000000
vn 0.707134 -0.707080 0.000000
vn 0.707131 0.000000 0.707083
vn 0.707131 0.000000 0.707083
vn 0.707131 0.000000 0.707083
vn 0.707131 0.000000 0.707083
vn -0.707134 0.707080 0.000000
vn -0.707134 0.707080 0.000000
vn -0.707134 0.707080 0.000000
vn -0.707134 0.707080 0.000000
vn 0.000000 0.707112 0.707102
vn 0.000000 0.707112 0.707102
vn 0.000000 0.707112 0.707102
vn 0.000000 0.707112 0.707102
vn 0.707134 0.707080 0.000000
vn 0.707134 0.707080 0.000000
vn 0.707134 0.707080 0.000000
vn 0.707134 0.707080 0.000000
vn -0.707118 -0.707096 0.000000
vn -0.707118 -0.707096 0.000000
vn -0.707118 -0.707096 0.000000
vn -0.707118 -0.707096 0.000000
vn 0.000000 -0.707106 0.707108
vn 0.000000 -0.707106 0.707108
vn 0.000000 -0.707106 0.707108
vn 0.000000 -0.707106 0.707108
vn -0.707090 0.000000 0.707123
vn -0.707090 0.000000 0.707123
vn -0.707090 0.000000 0.707123
vn -0.707090 0.000000 0.707123
vn 0.707118 -0.707096 0.000000
vn 0.707118 -0.707096 0.000000
vn 0.707118 -0.707096 0.000000
vn 0.707118 -0.707096 0.000000
vn 0.707119 0.000000 0.707095
vn 0.707119 0.000000 0.707095
vn 0.707119 0.000000 0.707095
vn 0.707119 0.000000 0.707095
vn -0.707118 0.707096 0.000000
vn -0.707118 0.707096 0.000000
vn -0.707118 0.707096 0.000000
vn -0.707118 0.707096 0.000000
vn 0.000000 0.707106 0.707108
vn 0.000000 0.707106 0.707108
vn 0.000000 0.707106 0.707108
vn 0.000000 0.707106 0.707108
vn 0.707118 0.707096 0.000000
vn 0.707118 0.707096 0.000000
vn 0.707118 0.707096 0.000000
vn 0.707118 0.707096 0.000000
vn -0.707090 0.000000 -0.707123
vn -0.707090 0.000000 -0.707123
vn -0.707090 0.000000 -0.707123
vn -0.707090 0.000000 -0.707123
vn 0.000000 0.707106 -0.707108
vn 0.000000 0.707106 -0.707108
vn 0.000000 0.707106 -0.707108
vn 0.000000 0.707106 -0.707108
vn 0.707119 0.000000 -0.707095
vn 0.707119 0.000000 -0.707095
vn 0.707119 0.000000 -0.707095
vn 0.707119 0.000000 -0.707095
vn 0.000000 -0.707106 -0.707108
vn 0.000000 -0.707106 -0.707108
vn 0.000000 -0.707106 -0.707108
vn 0.000000 -0.707106 -0.707108
vn 0.000000 0.000000 1.000000
vn 0.000000 0.000000 1.000000
vn 0.000000 0.000000 1.000000
vn 0.000000 0.000000 1.000000
vn 0.000000 1.000000 0.000000
vn 0.000000 1.000000 0.000000
vn 0.000000 1.000000 0.000000
vn 0.000000 1.000000 0.000000
vn 0.000000 -1.000000 0.000000
vn 0.000000 -1.000000 0.000000
vn 0.000000 -1.000000 0.000000
vn 0.000000 -1.000000 0.000000
vn 1.000000 0.000000 0.000000
vn 1.000000 0.000000 0.000000
vn 1.000000 0.000000 0.000000
vn 1.000000 0.000000 0.000000
vn -1.000000 0.000000 0.000000
vn -1.000000 0.000000 0.000000
vn -1.000000 0.000000 0.000000
vn -1.000000 0.000000 0.000000
vn 0.000000 0.000000 1.000000
vn 0.000000 0.000000 1.000000
vn 0.000000 0.000000 1.000000
vn 0.000000 0.000000 1.000000
vn 0.000000 1.000000 0.000000
vn 0.000000 1.000000 0.000000
vn 0.000000 1.000000 0.000000
vn 0.000000 1.000000 0.000000
vn 0.000000 0.000000 -1.000000
vn 0.000000 0.000000 -1.000000
vn 0.000000 0.000000 -1.000000
vn 0.000000 0.000000 -1.000000
vn 0.000000 -1.000000 0.000000
vn 0.000000 -1.000000 0.000000
vn 0.000000 -1.000000 0.000000
vn 0.000000 -1.000000 0.000000
vn 1.000000 0.000000 0.000000
vn 1.000000 0.000000 0.000000
vn 1.000000 0.000000 0.000000
vn 1.000000 0.000000 0.000000
vn -1.000000 0.000000 0.000000
vn -1.000000 0.000000 0.000000
vn -1.000000 0.000000 0.000000
vn -1.000000 0.000000 0.000000
vn -0.577338 -0.577413 0.577300
vn -0.577338 -0.577413 0.577300
vn -0.577338 -0.577413 0.577301
vn 0.577388 -0.577313 0.577350
vn 0.577388 -0.577313 0.577350
vn 0.577388 -0.577313 0.577350
vn -0.577332 0.577406 0.577313
vn -0.577332 0.577406 0.577313
vn -0.577332 0.577406 0.577313
vn 0.577381 0.577307 0.577363
vn 0.577381 0.577307 0.577363
vn 0.577381 0.577307 0.577363
vn -0.577331 -0.577360 0.577360
vn -0.577331 -0.577360 0.577360
vn -0.577331 -0.577360 0.577360
vn 0.577387 -0.577294 0.577370
vn 0.577387 -0.577294 0.577370
vn 0.577387 -0.577294 0.577370
vn -0.577331 0.577360 0.577360
vn -0.577331 0.577360 0.577360
vn -0.577331 0.577360 0.577360
vn 0.577387 0.577294 0.577370
vn 0.577387 0.577294 0.577370
vn 0.577387 0.577294 0.577370
vn -0.577331 0.577360 -0.577360
vn -0.577331 0.577360 -0.577360
vn -0.577331 0.577360 -0.577360
vn 0.577387 0.577294 -0.577370
vn 0.577387 0.577294 -0.577370
vn 0.577387 0.577294 -0.577370
vn -0.577331 -0.577360 -0.577360
vn -0.577331 -0.577360 -0.577360
vn -0.577331 -0.577360 -0.577360
vn 0.577387 -0.577294 -0.577370
vn 0.577387 -0.577294 -0.577370
vn 0.577387 -0.577294 -0.577370
vn 0.000000 0.000000 1.000000
vn 0.000000 0.000000 1.000000
vn 0.000000 0.000000 1.000000
vn 0.000000 0.000000 1.000000
vn 0.000000 1.000000 0.000000
vn 0.000000 1.000000 0.000000
vn 0.000000 1.000000 0.000000
vn 0.000000 1.000000 0.000000
vn 0.000000 0.000000 -1.000000
vn 0.000000 0.000000 -1.000000
vn 0.000000 0.000000 -1.000000
vn 0.000000 0.000000 -1.000000
vn 0.587784 0.809018 0.000000
vn 0.587784 0.809018 0.000000
vn 0.587784 0.809018 0.000000
vn 0.587784 0.809018 0.000000
vn -0.000001 1.000000 0.000000
vn -0.000001 1.000000 0.000000
vn -0.000001 1.000000 0.000000
vn -0.000001 1.000000 0.000000
vn -0.587787 0.809016 0.000000
vn -0.587787 0.809016 0.000000
vn -0.587787 0.809016 0.000000
vn -0.587787 0.809016 0.000000
vn -0.951055 0.309023 0.000000
vn -0.951055 0.309023 0.000000
vn -0.951055 0.309023 0.000000
vn -0.951055 0.309023 0.000000
vn -0.951055 -0.309023 0.000000
vn -0.951055 -0.309023 0.000000
vn -0.951055 -0.309023 0.000000
vn -0.951055 -0.309023 0.000000
vn -0.587787 -0.809016 0.000000
vn -0.587787 -0.809016 0.000000
vn -0.587787 -0.809016 0.000000
vn -0.587787 -0.809016 0.000000
vn 0.587784 -0.809018 0.000000
vn 0.587784 -0.809018 0.000000
vn 0.587784 -0.809018 0.000000
vn 0.587784 -0.809018 0.000000
vn 0.951056 -0.309017 0.000000
vn 0.951056 -0.309017 0.000000
vn 0.951056 -0.309017 0.000000
vn 0.951056 -0.309017 0.000000
vn 0.951056 0.309017 0.000000
vn 0.951056 0.309017 0.000000
vn 0.951056 0.309017 0.000000
vn 0.951056 0.309017 0.000000
vn 0.000000 0.000000 -1.000000
vn 0.000000 0.000000 -1.000000
vn -0.000001 0.000000 -1.000000
vn 0.000000 0.000000 -1.000000
vn 0.000000 0.000000 -1.000000
vn 0.000000 0.000000 -1.000000
vn 0.000000 0.000000 -1.000000
vn 0.000000 0.000000 -1.000000
vn -0.000004 0.000000 -1.000000
vn -0.000004 0.000000 -1.000000
vn 0.000000 0.000000 -1.000000
vn 0.000000 0.000000 1.000000
vn 0.000000 0.000000 1.000000
vn 0.000000 0.000000 1.000000
vn 0.000000 0.000000 1.000000
vn 0.000000 0.000000 1.000000
vn 0.000000 0.000000 1.000000
vn 0.000000 0.000000 1.000000
vn 0.000000 0.000000 1.000000
vn 0.000000 0.000000 1.000000
vn 0.000000 0.000000 1.000000
vn 0.000000 0.000000 1.000000
vn -0.667630 -0.190428 0.719727
vn -0.667630 -0.190428 0.719727
vn -0.620214 -0.268329 0.737112
vn -0.634684 -0.245708 0.732669
vn 0.643795 0.199873 0.738633
vn 0.643795 0.199873 0.738633
vn 0.605201 0.265429 0.750519
vn 0.620184 0.240880 0.746558
vn -0.337825 0.000057 0.941209
vn -0.037113 0.000010 0.999311
vn -0.037113 0.000010 0.999311
vn -0.337825 0.000057 0.941209
vn -0.269948 0.589650 0.761210
vn -0.272639 0.588328 0.761274
vn -0.512912 0.701008 0.495489
vn -0.280203 0.585211 0.760930
vn -0.027547 0.669029 0.742725
vn -0.027314 0.669056 0.742710
vn -0.020612 0.668997 0.742979
vn -0.022208 0.669062 0.742875
vn 0.000000 1.000000 0.000000
vn 0.000000 1.000000 -0.000000
vn 0.000000 1.000000 -0.000000
vn 0.000000 1.000000 0.000000
vn -0.037112 0.000007 -0.999311
vn -0.337833 0.000002 -0.941206
vn -0.337833 0.000002 -0.941206
vn -0.037112 0.000007 -0.999311
vn -0.272616 0.588372 -0.761248
vn -0.269920 0.589700 -0.761182
vn -0.280268 0.585236 -0.760887
vn -0.512678 0.700909 -0.495871
vn -0.027296 0.669073 -0.742696
vn -0.027525 0.669047 -0.742710
vn -0.022212 0.669069 -0.742868
vn -0.020632 0.669003 -0.742973
vn -0.666437 -0.190010 -0.720942
vn -0.666437 -0.190010 -0.720942
vn -0.633659 -0.245436 -0.733647
vn -0.619271 -0.268102 -0.737987
vn 0.645879 0.200338 -0.736686
vn 0.645879 0.200338 -0.736686
vn 0.622226 0.241377 -0.744696
vn 0.607172 0.266010 -0.748719
vn -0.000001 0.000000 1.000000
vn 0.000001 0.000000 1.000000
vn 0.000001 0.000000 1.000000
vn -0.000001 0.000000 1.000000
vn -0.382920 -0.561990 0.733171
vn -0.388198 -0.556502 0.734580
vn -0.346817 -0.592301 0.727254
vn -0.351420 -0.590462 0.726539
vn -0.926316 -0.376746 0.000000
vn -0.568283 -0.822833 -0.000000
vn -0.568281 -0.822834 -0.000000
vn -0.926321 -0.376736 0.000000
vn 0.540800 0.841151 0.000001
vn 0.925784 0.378052 0.000001
vn 0.925788 0.378044 0.000001
vn 0.540812 0.841143 0.000001
vn 0.363470 0.567934 0.738472
vn 0.367700 0.563719 0.739606
vn 0.331246 0.595809 0.731634
vn 0.335061 0.594158 0.731239
vn 0.000000 0.000000 -1.000000
vn -0.034818 0.000007 -0.999394
vn -0.035034 0.000007 -0.999386
vn 0.000000 0.000000 -1.000000
vn -0.351174 -0.590094 -0.726956
vn -0.346595 -0.591918 -0.727671
vn -0.388006 -0.556208 -0.734903
vn -0.382722 -0.561681 -0.733511
vn -0.270081 -0.962838 -0.000006
vn -0.510216 -0.860046 -0.000001
vn -0.510215 -0.860047 -0.000001
vn -0.270081 -0.962838 -0.000006
vn 0.487833 0.872937 -0.000000
vn 0.004752 0.999989 -0.000000
vn 0.004749 0.999989 -0.000000
vn 0.487830 0.872939 -0.000000
vn 0.335744 0.595435 -0.729886
vn 0.331865 0.597048 -0.730342
vn 0.368264 0.565277 -0.738135
vn 0.364301 0.569213 -0.737077
vn -0.034819 0.000010 0.999394
vn -0.000002 0.000000 1.000000
vn -0.000003 0.000000 1.000000
vn -0.035035 0.000010 0.999386
vn 0.000004 0.000000 -1.000000
vn 0.000001 0.000000 -1.000000
vn 0.000001 0.000000 -1.000000
vn 0.000004 0.000000 -1.000000
vn -0.639484 0.000168 0.768805
vn -0.639484 0.000168 0.768805
vn -0.639484 0.000168 0.768805
vn -0.639484 0.000168 0.768805
vn -0.719454 0.694507 0.006794
vn -0.719483 0.694475 -0.006948
vn -0.639493 0.000167 -0.768797
vn -0.639493 0.000167 -0.768797
vn -0.639493 0.000167 -0.768797
vn -0.639493 0.000167 -0.768797
vn 0.000000 0.000000 1.000000
vn 0.000000 0.000000 1.000000
vn -1.000000 0.000000 0.000000
vn -1.000000 0.000000 0.000000
vn -1.000000 0.000000 0.000000
vn -1.000000 0.000000 0.000000
vn 0.000004 0.000000 -1.000000
vn 0.000004 0.000000 -1.000000
vn 0.955009 0.296577 0.000000
vn 0.955009 0.296577 0.000000
vn -0.961624 -0.274371 0.000000
vn -0.961624 -0.274371 0.000000
vn -0.344704 0.000058 0.938712
vn -0.344704 0.000058 0.938712
vn 0.000000 1.000000 0.000000
vn 0.000000 1.000000 0.000000
vn -0.344718 0.000002 -0.938706
vn -0.344718 0.000002 -0.938706
vn -0.152711 -0.653607 -0.741268
vn -0.152711 -0.653607 -0.741268
vn -0.152784 -0.654217 0.740714
vn -0.152784 -0.654217 0.740714
vn 0.587784 0.809018 0.000000
vn 0.587784 0.809018 0.000000
vn 0.587784 0.809018 0.000000
vn 0.587784 0.809018 0.000000
vn -0.000001 1.000000 0.000000
vn -0.000001 1.000000 0.000000
vn -0.000001 1.000000 0.000000
vn -0.000001 1.000000 0.000000
vn -0.587787 0.809016 0.000000
vn -0.587787 0.809016 0.000000
vn -0.587787 0.809016 0.000000
vn -0.587787 0.809016 0.000000
vn -0.951055 0.309023 0.000000
vn -0.951055 0.309023 0.000000
vn -0.951055 0.309023 0.000000
vn -0.951055 0.309023 0.000000
vn -0.951055 -0.309023 0.000000
vn -0.951055 -0.309023 0.000000
vn -0.951055 -0.309023 0.000000
vn -0.951055 -0.309023 0.000000
vn -0.587787 -0.809016 0.000000
vn -0.587787 -0.809016 0.000000
vn -0.587787 -0.809016 0.000000
vn -0.587787 -0.809016 0.000000
vn 0.587784 -0.809018 0.000000
vn 0.587784 -0.809018 0.000000
vn 0.587784 -0.809018 0.000000
vn 0.587784 -0.809018 0.000000
vn 0.951056 -0.309017 0.000000
vn 0.951056 -0.309017 0.000000
vn 0.951056 -0.309017 0.000000
vn 0.951056 -0.309017 0.000000
vn 0.951056 0.309017 0.000000
vn 0.951056 0.309017 0.000000
vn 0.951056 0.309017 0.000000
vn 0.951056 0.309017 0.000000
vn 0.000000 0.000000 -1.000000
vn 0.000000 0.000000 -1.000000
vn 0.000000 0.000000 -1.000000
vn 0.000000 0.000000 -1.000000
vn 0.000000 0.000000 -1.000000
vn 0.000000 0.000000 -1.000000
vn 0.000000 0.000000 -1.000000
vn 0.000000 0.000000 -1.000000
vn 0.000000 0.000000 -1.000000
vn 0.000000 0.000000 -1.000000
vn 0.000000 0.000000 -1.000000
vn 0.000000 0.000000 1.000000
vn -0.000004 0.000000 1.000000
vn -0.000001 0.000000 1.000000
vn -0.000004 0.000000 1.000000
vn 0.000000 0.000000 1.000000
vn 0.000000 0.000000 1.000000
vn 0.000000 0.000000 1.000000
vn 0.000000 0.000000 1.000000
vn 0.000000 0.000000 1.000000
vn 0.000000 0.000000 1.000000
vn 0.000000 0.000000 1.000000
vn -0.707109 0.000000 0.707105
vn -0.707109 0.000000 0.707105
vn -0.707109 0.000000 0.707105
vn -0.707109 0.000000 0.707105
vn 0.707107 0.000000 0.707107
vn 0.707107 0.000000 0.707107
vn 0.707107 0.000000 0.707107
vn 0.707107 0.000000 0.707107
vn -0.707108 0.707106 0.000000
vn -0.707108 0.707106 0.000000
vn -0.707108 0.707106 0.000000
vn -0.707108 0.707106 0.000000
vn 0.000000 0.707106 0.707107
vn 0.000000 0.707106 0.707107
vn 0.000000 0.707106 0.707107
vn 0.000000 0.707106 0.707107
vn 0.707108 0.707106 0.000000
vn 0.707108 0.707106 0.000000
vn 0.707108 0.707106 0.000000
vn 0.707108 0.707106 0.000000
vn -0.707109 0.000000 -0.707105
vn -0.707109 0.000000 -0.707105
vn -0.707109 0.000000 -0.707105
vn -0.707109 0.000000 -0.707105
vn 0.000000 0.707106 -0.707107
vn 0.000000 0.707106 -0.707107
vn 0.000000 0.707106 -0.707107
vn 0.000000 0.707106 -0.707107
vn 0.707107 0.000000 -0.707107
vn 0.707107 0.000000 -0.707107
vn 0.707107 0.000000 -0.707107
vn 0.707107 0.000000 -0.707107
vn 0.000000 0.000000 1.000000
vn 0.000000 0.000000 1.000000
vn 0.000000 0.000000 1.000000
vn 0.000000 0.000000 1.000000
vn 0.000000 1.000000 0.000000
vn 0.000000 1.000000 0.000000
vn 0.000000 1.000000 0.000000
vn 0.000000 1.000000 0.000000
vn 0.000000 0.000000 -1.000000
vn 0.000000 0.000000 -1.000000
vn 0.000000 0.000000 -1.000000
vn 0.000000 0.000000 -1.000000
vn 1.000000 0.000000 0.000000
vn 1.000000 0.000000 0.000000
vn 1.000000 0.000000 0.000000
vn 1.000000 0.000000 0.000000
vn -1.000000 0.000000 0.000000
vn -1.000000 0.000000 0.000000
vn -1.000000 0.000000 0.000000
vn -1.000000 0.000000 0.000000
vn -0.577351 0.577351 0.577349
vn -0.577351 0.577351 0.577349
vn -0.577351 0.577351 0.577349
vn 0.577350 0.577350 0.577351
vn 0.577350 0.577350 0.577351
vn 0.577350 0.577350 0.577351
vn -0.577351 0.577351 -0.577349
vn -0.577351 0.577351 -0.577349
vn -0.577351 0.577351 -0.577349
vn 0.577350 0.577350 -0.577351
vn 0.577350 0.577350 -0.577351
vn 0.577350 0.577350 -0.577351
vn -0.998495 0.001959 0.054801
vn -0.998668 0.051544 0.002441
vn -0.998586 0.053153 0.000898
vn -0.998434 0.000964 0.055943
vn -0.689403 0.002007 0.724376
vn -0.689403 0.002007 0.724376
vn -0.689427 0.002000 0.724352
vn -0.697414 -0.000026 0.716669
vn -0.000133 0.706786 0.707428
vn -0.000133 0.706786 0.707428
vn -0.000133 0.706786 0.707428
vn -0.000133 0.706786 0.707428
vn -0.709226 0.704926 0.008808
vn -0.716828 0.696858 0.023391
vn -0.716378 0.697342 -0.022726
vn -0.708964 0.705193 -0.008532
vn 0.997938 0.064114 0.003140
vn 0.998249 0.001611 0.059126
vn 0.998198 0.000599 0.060002
vn 0.997789 0.066458 0.000967
vn 0.710143 0.703676 0.023152
vn 0.702164 0.711970 0.008007
vn 0.702236 0.711900 -0.007910
vn 0.710663 0.703125 -0.023942
vn 0.689008 0.001902 0.724751
vn 0.689008 0.001902 0.724751
vn 0.699529 -0.000399 0.714604
vn 0.689036 0.001896 0.724725
vn -0.998670 0.051513 -0.002347
vn -0.998497 0.001923 -0.054776
vn -0.998439 0.000965 -0.055847
vn -0.998585 0.053173 -0.000702
vn -0.000155 0.706911 -0.707302
vn -0.000155 0.706911 -0.707302
vn -0.000155 0.706911 -0.707302
vn -0.000155 0.706911 -0.707302
vn -0.693311 0.001937 -0.720636
vn -0.693311 0.001937 -0.720636
vn -0.700764 -0.000217 -0.713393
vn -0.693333 0.001931 -0.720614
vn 0.998239 0.001613 -0.059307
vn 0.997937 0.064121 -0.003123
vn 0.997789 0.066455 -0.000948
vn 0.998187 0.000597 -0.060188
vn 0.685073 0.001966 -0.728472
vn 0.685073 0.001966 -0.728472
vn 0.685103 0.001960 -0.728443
vn 0.696584 -0.000259 -0.717475
vn -0.999976 -0.006960 0.000069
vn -0.999419 -0.002764 0.033961
vn -0.998513 0.000099 0.054511
vn -0.999976 -0.006829 0.001136
vn 0.999400 -0.002688 0.034533
vn 0.999980 -0.006342 0.000081
vn 0.999980 -0.006230 0.001132
vn 0.998321 -0.000384 0.057930
vn -0.999421 -0.002757 -0.033903
vn -0.999976 -0.006960 -0.000092
vn -0.999976 -0.006829 -0.001158
vn -0.998518 0.000088 -0.054427
vn 0.999980 -0.006342 -0.000054
vn 0.999388 -0.002674 -0.034883
vn 0.998307 -0.000378 -0.058156
vn 0.999980 -0.006232 -0.001100
vn 0.129844 0.686555 0.715390
vn 0.129844 0.686555 0.715390
vn 0.129844 0.686555 0.715390
vn 0.129844 0.686555 0.715390
vn 0.747952 0.663510 0.017960
vn 0.747441 0.664128 0.016333
vn 0.747818 0.663703 -0.016332
vn 0.748036 0.663440 -0.017007
vn 0.741697 0.001084 0.670734
vn 0.741697 0.001084 0.670734
vn 0.761024 -0.034077 0.647828
vn 0.750759 -0.015043 0.660405
vn 0.129045 0.683356 -0.718591
vn 0.129045 0.683356 -0.718591
vn 0.129045 0.683356 -0.718591
vn 0.129045 0.683356 -0.718591
vn 0.744960 0.001122 -0.667108
vn 0.744960 0.001122 -0.667108
vn 0.753813 -0.015011 -0.656918
vn 0.763846 -0.034071 -0.644499
vn 0.136822 -0.700467 0.700447
vn 0.136822 -0.700467 0.700447
vn 0.136822 -0.700467 0.700447
vn 0.136822 -0.700467 0.700447
vn 0.777231 -0.629112 0.011412
vn 0.783811 -0.620450 0.026121
vn 0.783714 -0.620569 -0.026212
vn 0.777192 -0.629157 -0.011593
vn 0.134904 -0.702708 -0.698572
vn 0.134904 -0.702708 -0.698572
vn 0.134904 -0.702708 -0.698572
vn 0.134904 -0.702708 -0.698572
vn -0.708115 0.705786 0.020963
vn -0.707796 0.706143 0.019686
vn -0.707671 0.706277 -0.019342
vn -0.708200 0.705687 -0.021412
vn -0.685289 0.003159 0.728265
vn -0.685289 0.003159 0.728265
vn -0.685289 0.003159 0.728265
vn -0.685289 0.003159 0.728265
vn -0.688123 0.005642 -0.725572
vn -0.688123 0.005642 -0.725572
vn -0.688123 0.005642 -0.725572
vn -0.688123 0.005642 -0.725572
vn -0.719333 -0.694665 -0.000746
vn -0.719333 -0.694665 -0.000746
vn -0.719333 -0.694665 -0.000746
vn -0.719333 -0.694665 -0.000746
vn -0.000000 0.000000 1.000000
vn -0.000000 0.000000 1.000000
vn -0.000000 0.000000 1.000000
vn -0.000000 0.000000 1.000000
vn -0.000056 -0.000001 -1.000000
vn -0.000056 -0.000001 -1.000000
vn -0.000056 -0.000001 -1.000000
vn -0.000056 -0.000001 -1.000000
vn 0.092800 0.995685 0.000003
vn 0.092800 0.995685 0.000003
vn 0.092800 0.995685 0.000003
vn 0.092800 0.995685 0.000003
vn 0.088254 -0.000529 0.996098
vn 0.088254 -0.000529 0.996098
vn 0.088254 -0.000529 0.996098
vn 0.088254 -0.000529 0.996098
vn 0.102983 -0.994683 -0.000712
vn 0.102983 -0.994683 -0.000712
vn 0.102983 -0.994683 -0.000712
vn 0.102983 -0.994683 -0.000712
vn 0.084946 0.001179 -0.996385
vn 0.084946 0.001179 -0.996385
vn 0.084946 0.001179 -0.996385
vn 0.084946 0.001179 -0.996385
vn 0.000000 1.000000 -0.000000
vn 0.000000 1.000000 -0.000000
vn 0.000000 1.000000 -0.000000
vn 0.000000 1.000000 -0.000000
vn -0.824776 0.402315 0.397351
vn -0.824776 0.402315 0.397351
vn 0.819709 0.432126 0.375959
vn 0.819709 0.432126 0.375959
vn -0.824123 0.418785 -0.381368
vn -0.824123 0.418785 -0.381368
vn 0.820285 0.421307 -0.386824
vn 0.820285 0.421307 -0.386824
vn -0.707173 -0.002534 0.707036
vn 0.709019 -0.002503 0.705185
vn -0.709752 -0.002846 -0.704446
vn 0.707062 -0.002315 -0.707148
vn 0.798368 0.479282 0.364552
vn 0.798368 0.479282 0.364552
vn 0.801236 0.475800 -0.362816
vn 0.801236 0.475800 -0.362816
vn -0.739541 0.522629 0.424191
vn -0.739541 0.522629 0.424191
vn -0.741728 0.523015 -0.419874
vn -0.741728 0.523015 -0.419874
vn -0.829705 -0.387862 0.401439
vn -0.829705 -0.387862 0.401439
vn -0.829705 -0.387862 0.401439
vn -0.829705 -0.387862 0.401440
vn -0.829848 -0.385111 -0.403784
vn -0.829848 -0.385111 -0.403784
vn -0.829848 -0.385111 -0.403784
vn -0.829848 -0.385111 -0.403784
vn -0.667630 -0.190428 0.719727
vn -0.667631 -0.190428 0.719727
vn -0.620210 -0.268331 0.737115
vn -0.634681 -0.245709 0.732671
vn 0.643755 0.199882 0.738666
vn 0.643755 0.199882 0.738666
vn 0.605177 0.265435 0.750537
vn 0.620154 0.240887 0.746581
vn -0.337826 0.000057 0.941209
vn -0.037113 0.000010 0.999311
vn -0.037113 0.000010 0.999311
vn -0.337825 0.000057 0.941209
vn -0.269949 0.589650 0.761210
vn -0.272639 0.588328 0.761274
vn -0.512912 0.701008 0.495489
vn -0.280203 0.585212 0.760930
vn -0.027547 0.669029 0.742725
vn -0.027314 0.669056 0.742710
vn -0.020612 0.668997 0.742979
vn -0.022208 0.669062 0.742875
vn 0.000000 1.000000 0.000000
vn 0.000000 1.000000 -0.000000
vn 0.000000 1.000000 -0.000000
vn 0.000000 1.000000 0.000000
vn -0.037112 0.000007 -0.999311
vn -0.337833 0.000002 -0.941206
vn -0.337833 0.000002 -0.941206
vn -0.037112 0.000007 -0.999311
vn -0.272617 0.588372 -0.761248
vn -0.269921 0.589700 -0.761181
vn -0.280268 0.585236 -0.760887
vn -0.512679 0.700909 -0.495870
vn -0.027295 0.669073 -0.742696
vn -0.027525 0.669047 -0.742710
vn -0.022212 0.669069 -0.742868
vn -0.020632 0.669003 -0.742973
vn -0.666421 -0.190014 -0.720956
vn -0.666421 -0.190014 -0.720956
vn -0.633643 -0.245440 -0.733659
vn -0.619254 -0.268108 -0.737999
vn 0.645865 0.200341 -0.736697
vn 0.645865 0.200341 -0.736697
vn 0.622214 0.241380 -0.744705
vn 0.607161 0.266013 -0.748728
vn 0.000002 0.000000 1.000000
vn 0.000000 0.000000 1.000000
vn 0.000000 0.000000 1.000000
vn 0.000001 0.000000 1.000000
vn -0.382908 -0.561993 0.733175
vn -0.388186 -0.556505 0.734584
vn -0.346807 -0.592303 0.727256
vn -0.351409 -0.590465 0.726542
vn -0.926317 -0.376746 0.000000
vn -0.568283 -0.822833 -0.000000
vn -0.568282 -0.822834 -0.000000
vn -0.926321 -0.376736 0.000000
vn 0.540800 0.841151 0.000001
vn 0.925784 0.378052 0.000001
vn 0.925788 0.378044 0.000001
vn 0.540812 0.841143 0.000001
vn 0.363469 0.567934 0.738472
vn 0.367700 0.563719 0.739606
vn 0.331235 0.595811 0.731637
vn 0.335051 0.594160 0.731242
vn 0.000002 0.000000 -1.000000
vn -0.034818 0.000007 -0.999394
vn -0.035034 0.000007 -0.999386
vn 0.000002 0.000000 -1.000000
vn -0.351163 -0.590097 -0.726960
vn -0.346584 -0.591921 -0.727674
vn -0.387994 -0.556211 -0.734908
vn -0.382710 -0.561684 -0.733515
vn -0.270081 -0.962838 -0.000006
vn -0.510217 -0.860046 -0.000001
vn -0.510216 -0.860047 -0.000001
vn -0.270081 -0.962838 -0.000006
vn 0.487833 0.872937 -0.000000
vn 0.004752 0.999989 -0.000000
vn 0.004749 0.999989 -0.000000
vn 0.487830 0.872939 -0.000000
vn 0.335744 0.595435 -0.729886
vn 0.331863 0.597049 -0.730342
vn 0.368263 0.565278 -0.738135
vn 0.364300 0.569213 -0.737077
vn -0.034819 0.000010 0.999394
vn 0.000002 0.000000 1.000000
vn 0.000002 0.000000 1.000000
vn -0.035035 0.000010 0.999386
vn -0.000004 0.000000 -1.000000
vn 0.000001 0.000000 -1.000000
vn 0.000001 0.000000 -1.000000
vn -0.000004 0.000000 -1.000000
vn -0.639484 0.000168 0.768805
vn -0.639484 0.000168 0.768805
vn -0.639484 0.000168 0.768805
vn -0.639484 0.000168 0.768805
vn -0.719455 0.694506 0.006794
vn -0.719483 0.694476 -0.006948
vn -0.639475 0.000167 -0.768812
vn -0.639475 0.000167 -0.768812
vn -0.639475 0.000167 -0.768812
vn -0.639475 0.000167 -0.768812
vn 0.000000 0.000000 1.000000
vn 0.000000 0.000000 1.000000
vn -1.000000 0.000000 0.000000
vn -1.000000 0.000000 0.000000
vn -1.000000 0.000000 0.000000
vn -1.000000 0.000000 0.000000
vn -0.000004 0.000000 -1.000000
vn -0.000004 0.000000 -1.000000
vn 0.955009 0.296577 0.000000
vn 0.955009 0.296577 0.000000
vn -0.961624 -0.274371 0.000000
vn -0.961624 -0.274371 0.000000
vn -0.344704 0.000058 0.938711
vn -0.344704 0.000058 0.938711
vn 0.000000 1.000000 0.000000
vn 0.000000 1.000000 0.000000
vn -0.344719 0.000002 -0.938706
vn -0.344719 0.000002 -0.938706
vn -0.152696 -0.653608 -0.741269
vn -0.152696 -0.653608 -0.741269
vn -0.152784 -0.654217 0.740714
vn -0.152784 -0.654217 0.740714
vn 0.000000 0.000000 1.000000
vn 0.000000 0.000000 1.000000
vn 0.000000 0.000000 1.000000
vn 0.000000 0.000000 1.000000
vn 0.000000 1.000000 0.000000
vn 0.000000 1.000000 0.000000
vn 0.000000 1.000000 0.000000
vn 0.000000 1.000000 0.000000
vn 0.000000 0.000000 -1.000000
vn 0.000000 0.000000 -1.000000
vn 0.000000 0.000000 -1.000000
vn 0.000000 0.000000 -1.000000
vn -0.998495 0.001957 0.054801
vn -0.998668 0.051544 0.002441
vn -0.998586 0.053153 0.000898
vn -0.998434 0.000963 0.055943
vn -0.689403 0.002007 0.724376
vn -0.689403 0.002007 0.724376
vn -0.689427 0.002001 0.724352
vn -0.697414 -0.000030 0.716669
vn -0.000133 0.706786 0.707428
vn -0.000133 0.706786 0.707428
vn -0.000133 0.706786 0.707428
vn -0.000133 0.706786 0.707428
vn -0.709226 0.704926 0.008808
vn -0.716828 0.696858 0.023391
vn -0.716378 0.697342 -0.022727
vn -0.708964 0.705193 -0.008532
vn 0.997938 0.064106 0.003140
vn 0.998249 0.001608 0.059126
vn 0.998198 0.000598 0.060002
vn 0.997789 0.066453 0.000967
vn 0.710119 0.703701 0.023152
vn 0.702139 0.711995 0.008007
vn 0.702212 0.711924 -0.007910
vn 0.710640 0.703148 -0.023942
vn 0.689008 0.001902 0.724751
vn 0.689008 0.001902 0.724751
vn 0.699529 -0.000399 0.714604
vn 0.689036 0.001896 0.724725
vn -0.998670 0.051509 -0.002347
vn -0.998497 0.001922 -0.054776
vn -0.998439 0.000966 -0.055847
vn -0.998585 0.053172 -0.000702
vn -0.000155 0.706912 -0.707302
vn -0.000155 0.706912 -0.707302
vn -0.000155 0.706912 -0.707302
vn -0.000155 0.706912 -0.707302
vn -0.693311 0.001938 -0.720636
vn -0.693311 0.001938 -0.720636
vn -0.700764 -0.000217 -0.713393
vn -0.693333 0.001931 -0.720614
vn 0.998239 0.001615 -0.059307
vn 0.997937 0.064122 -0.003123
vn 0.997789 0.066452 -0.000948
vn 0.998187 0.000598 -0.060188
vn 0.685073 0.001966 -0.728472
vn 0.685073 0.001966 -0.728472
vn 0.685103 0.001960 -0.728443
vn 0.696584 -0.000254 -0.717475
vn -0.999976 -0.006960 0.000069
vn -0.999419 -0.002760 0.033961
vn -0.998513 0.000098 0.054511
vn -0.999976 -0.006830 0.001136
vn 0.999400 -0.002683 0.034533
vn 0.999980 -0.006342 0.000081
vn 0.999980 -0.006230 0.001132
vn 0.998321 -0.000383 0.057930
vn -0.999421 -0.002757 -0.033903
vn -0.999976 -0.006960 -0.000092
vn -0.999976 -0.006829 -0.001158
vn -0.998518 0.000089 -0.054427
vn 0.999980 -0.006342 -0.000054
vn 0.999388 -0.002679 -0.034883
vn 0.998307 -0.000378 -0.058156
vn 0.999980 -0.006232 -0.001100
vn 0.129844 0.686552 0.715393
vn 0.129844 0.686552 0.715393
vn 0.129844 0.686552 0.715393
vn 0.129844 0.686552 0.715393
vn 0.747984 0.663474 0.017960
vn 0.747474 0.664091 0.016333
vn 0.747850 0.663666 -0.016332
vn 0.748069 0.663404 -0.017007
vn 0.741697 0.001085 0.670734
vn 0.741697 0.001085 0.670734
vn 0.761024 -0.034079 0.647828
vn 0.750759 -0.015044 0.660405
vn 0.129045 0.683354 -0.718592
vn 0.129045 0.683354 -0.718592
vn 0.129045 0.683354 -0.718592
vn 0.129045 0.683354 -0.718592
vn 0.744960 0.001123 -0.667108
vn 0.744960 0.001123 -0.667108
vn 0.753813 -0.015014 -0.656918
vn 0.763845 -0.034078 -0.644499
vn 0.136822 -0.700467 0.700447
vn 0.136822 -0.700467 0.700447
vn 0.136822 -0.700467 0.700447
vn 0.136822 -0.700467 0.700447
vn 0.777246 -0.629093 0.011412
vn 0.783826 -0.620432 0.026121
vn 0.783726 -0.620553 -0.026212
vn 0.777207 -0.629139 -0.011593
vn 0.134905 -0.702703 -0.698577
vn 0.134905 -0.702703 -0.698577
vn 0.134905 -0.702703 -0.698577
vn 0.134905 -0.702703 -0.698577
vn -0.708151 0.705750 0.020964
vn -0.707832 0.706107 0.019687
vn -0.707707 0.706241 -0.019343
vn -0.708236 0.705651 -0.021413
vn -0.685289 0.003159 0.728265
vn -0.685289 0.003159 0.728265
vn -0.685289 0.003159 0.728265
vn -0.685289 0.003159 0.728265
vn -0.688123 0.005646 -0.725572
vn -0.688123 0.005646 -0.725572
vn -0.688123 0.005646 -0.725572
vn -0.688123 0.005646 -0.725572
vn -0.719297 -0.694703 -0.000746
vn -0.719297 -0.694703 -0.000746
vn -0.719297 -0.694703 -0.000746
vn -0.719297 -0.694703 -0.000746
vn -0.000000 0.000000 1.000000
vn -0.000000 0.000000 1.000000
vn -0.000000 0.000000 1.000000
vn -0.000000 0.000000 1.000000
vn -0.000056 -0.000001 -1.000000
vn -0.000056 -0.000001 -1.000000
vn -0.000056 -0.000001 -1.000000
vn -0.000056 -0.000001 -1.000000
vn 0.092799 0.995685 0.000003
vn 0.092799 0.995685 0.000003
vn 0.092799 0.995685 0.000003
vn 0.092799 0.995685 0.000003
vn 0.088254 -0.000529 0.996098
vn 0.088254 -0.000529 0.996098
vn 0.088254 -0.000529 0.996098
vn 0.088254 -0.000529 0.996098
vn 0.102983 -0.994683 -0.000712
vn 0.102984 -0.994683 -0.000712
vn 0.102983 -0.994683 -0.000712
vn 0.102983 -0.994683 -0.000712
vn 0.084946 0.001180 -0.996385
vn 0.084946 0.001180 -0.996385
vn 0.084946 0.001180 -0.996385
vn 0.084946 0.001180 -0.996385
vn 0.000000 1.000000 -0.000000
vn 0.000000 1.000000 -0.000000
vn 0.000000 1.000000 -0.000000
vn 0.000000 1.000000 -0.000000
vn -0.824776 0.402315 0.397351
vn -0.824776 0.402315 0.397351
vn 0.819701 0.432144 0.375955
vn 0.819701 0.432144 0.375955
vn -0.824123 0.418785 -0.381368
vn -0.824123 0.418785 -0.381368
vn 0.820293 0.421289 -0.386828
vn 0.820293 0.421288 -0.386828
vn -0.707173 -0.002543 0.707036
vn 0.709019 -0.002503 0.705185
vn -0.709752 -0.002846 -0.704446
vn 0.707062 -0.002306 -0.707148
vn 0.798368 0.479282 0.364552
vn 0.798368 0.479282 0.364552
vn 0.801236 0.475800 -0.362816
vn 0.801236 0.475800 -0.362816
vn -0.739541 0.522629 0.424191
vn -0.739541 0.522629 0.424191
vn -0.741728 0.523015 -0.419874
vn -0.741728 0.523015 -0.419874
vn -0.829690 -0.387901 0.401432
vn -0.829690 -0.387901 0.401432
vn -0.829690 -0.387901 0.401432
vn -0.829690 -0.387901 0.401432
vn -0.829841 -0.385131 -0.403780
vn -0.829841 -0.385131 -0.403780
vn -0.829841 -0.385131 -0.403780
vn -0.829841 -0.385131 -0.403780
s off
g closed group4
usemtl lambert2SG
f 2/408/1 1/1/2 5/4/3 4/409/4
f 4/2/5 6/13/6 10/8/7 9/20/8
f 6/13/9 5/4/10 8/5/11 7/14/12
f 9/6/13 11/15/14 15/10/15 14/7/16
f 11/15/17 10/8/18 13/9/19 12/16/20
f 1/1/21 3/12/22 8/5/23 5/4/24
f 6/13/25 7/14/26 13/9/27 10/8/28
f 11/15/29 12/16/30 16/11/31 15/10/32
f 14/17/33 2/18/34 4/2/35 9/20/36
f 4/19/37 5/4/38 6/13/39
f 9/3/40 10/8/41 11/15/42
f 17/21/43 19/22/44 34/23/45 33/24/46
f 18/25/47 17/26/48 22/27/49 21/28/50
f 19/29/51 18/25/52 24/30/53 23/394/54
f 20/32/55 22/33/56 36/34/57 35/35/58
f 21/28/59 20/395/60 28/391/61 27/37/62
f 23/38/63 25/39/64 30/40/65 29/41/66
f 25/39/67 24/30/68 27/37/69 26/42/70
f 26/42/71 28/36/72 32/43/73 31/44/74
f 37/45/75 39/46/76 55/47/77 57/48/78
f 38/49/79 37/50/80 42/51/81 41/52/82
f 39/53/83 38/49/84 44/54/85 43/406/86
f 40/56/87 42/57/88 58/58/89 60/59/90
f 41/52/91 40/403/92 48/399/93 47/62/94
f 43/63/95 45/64/96 50/65/97 49/405/98
f 45/64/99 44/54/100 47/62/101 46/67/102
f 46/67/103 48/61/104 54/68/105 53/69/106
f 49/70/107 51/71/108 56/72/109 55/404/110
f 51/71/111 50/65/112 53/69/113 52/74/114
f 52/74/115 54/75/116 60/400/117 59/77/118
f 57/48/119 56/72/120 59/77/121 58/58/122
f 18/25/123 21/28/124 27/37/125 24/30/126
f 25/39/127 26/42/128 31/44/129 30/40/130
f 17/21/131 33/24/132 36/34/133 22/33/134
f 20/32/135 35/35/136 32/43/137 28/36/138
f 34/78/139 19/392/140 23/38/141 29/41/142
f 38/49/143 41/52/144 47/62/145 44/54/146
f 45/64/147 46/67/148 53/69/149 50/65/150
f 51/71/151 52/74/152 59/77/153 56/72/154
f 57/48/155 58/58/156 42/57/157 37/45/158
f 40/60/159 60/79/160 54/68/161 48/61/162
f 55/80/163 39/397/164 43/63/165 49/405/166
f 17/26/167 18/25/168 19/396/169
f 20/390/170 21/28/171 22/27/172
f 23/31/173 24/30/174 25/39/175
f 26/42/176 27/37/177 28/393/178
f 37/50/179 38/49/180 39/407/181
f 40/398/182 41/52/183 42/51/184
f 43/55/185 44/54/186 45/64/187
f 46/67/188 47/62/189 48/402/190
f 49/66/191 50/65/192 51/71/193
f 52/74/194 53/69/195 54/401/196
f 55/73/197 56/72/198 57/48/199
f 58/58/200 59/77/201 60/76/202
f 61/81/203 62/82/204 64/83/205 63/84/206
f 63/84/207 64/83/208 66/85/209 65/86/210
f 65/86/211 66/85/212 68/87/213 67/88/214
f 69/89/215 70/90/216 80/91/217 79/92/218
f 70/90/219 71/93/220 81/94/221 80/91/222
f 71/93/223 72/95/224 82/96/225 81/94/226
f 72/95/227 73/97/228 83/98/229 82/96/230
f 73/97/231 74/99/232 84/100/233 83/98/234
f 74/99/235 75/101/236 85/102/237 84/100/238
f 76/103/239 77/104/240 87/105/241 86/106/242
f 77/104/243 78/107/244 88/108/245 87/105/246
f 78/107/247 69/89/248 79/92/249 88/108/250
s 1
f 70/109/251 69/110/252 89/111/253
f 71/112/254 70/109/251 89/111/253
f 72/113/255 71/112/254 89/111/253
f 73/114/256 72/113/255 89/111/253
f 74/115/257 73/114/256 89/111/253
f 75/116/258 74/115/257 89/111/253
f 76/117/259 75/116/258 89/111/253
f 77/118/260 76/117/259 89/111/253
f 78/119/261 77/118/260 89/111/253
f 69/110/252 78/119/261 89/111/253
s 2
f 79/120/262 80/121/263 90/122/264
f 80/121/263 81/123/265 90/122/264
f 81/123/265 82/124/266 90/122/264
f 82/124/266 83/125/267 90/122/264
f 83/125/267 84/126/268 90/122/264
f 84/126/268 85/127/269 90/122/264
f 85/127/269 86/128/270 90/122/264
f 86/128/270 87/129/271 90/122/264
f 87/129/271 88/130/272 90/122/264
f 88/130/272 79/120/262 90/122/264
s 3
f 92/430/273 91/416/274 114/418/275 113/431/276
s 4
f 94/417/277 93/427/278 116/429/279 115/464/280
s 5
f 96/455/281 95/442/282 98/441/283 97/456/284
s 4
f 97/456/285 100/458/286 147/459/287 146/471/288
f 99/438/289 98/441/290 140/440/291 139/469/292
s 7
f 100/458/293 99/438/294 104/437/295 103/410/296
s 8
f 102/547/297 101/461/298 106/460/299 105/434/300
s 4
f 103/410/301 106/460/302 150/463/303 149/472/304
f 105/434/305 104/437/306 124/436/307 123/466/308
s 10
f 107/550/309 108/411/310 133/432/311 132/549/312
s 4
f 109/412/313 110/425/314 137/424/315 136/428/316
s 5
f 111/446/317 114/418/318 115/464/319 118/447/320
s 3
f 112/444/321 111/446/322 130/448/323 129/468/324
s 13
f 113/431/325 112/444/326 134/443/327 133/432/328
s 7
f 117/449/329 116/429/330 136/428/331 135/450/332
s 4
f 118/447/333 117/449/334 142/452/335 141/470/336
s 8
f 119/453/337 122/435/338 123/466/339 126/414/340
s 10
f 120/445/341 119/553/342 131/413/343 134/443/344
s 13
f 121/465/345 120/445/346 129/468/347 128/467/348
s 7
f 125/451/349 124/436/350 139/469/351 142/452/352
s 4
f 126/414/353 125/451/354 135/450/355 138/415/356
s 5
f 127/439/357 130/448/358 141/470/359 140/440/360
s 8
f 132/423/361 131/454/362 138/415/363 137/424/364
s off
f 144/545/365 143/457/366 146/471/367 145/420/368
s 4
f 145/420/369 147/459/287 149/472/304 148/421/370
s off
f 148/421/371 150/463/372 152/462/373 151/422/374
s 5
f 91/416/375 94/417/376 115/464/319 114/418/318
s off
f 144/419/377 145/420/378 148/421/379 151/544/380
s 8
f 132/423/361 137/424/364 110/425/381 107/426/382
s 7
f 93/427/383 109/412/384 136/428/331 116/429/330
s 13
f 108/411/385 92/430/386 113/431/325 133/432/328
s 8
f 102/433/297 105/434/300 123/466/339 122/435/338
s 7
f 139/469/351 124/436/350 104/437/295 99/438/294
s 5
f 127/439/357 140/440/360 98/441/283 95/548/282
s 13
f 134/443/327 112/444/326 129/468/347 120/445/346
s 5
f 111/446/317 118/447/320 141/470/359 130/448/358
s 7
f 117/449/329 135/450/332 125/451/349 142/452/352
s 8
f 119/453/337 126/414/340 138/415/363 131/454/362
s 5
f 96/455/281 97/456/284 146/471/387 143/457/388
s 7
f 100/458/293 103/410/296 149/472/389 147/459/390
s 8
f 106/460/299 101/461/298 152/462/391 150/463/392
s 4
f 97/456/285 98/441/290 99/438/289 100/458/286
f 103/410/301 104/437/306 105/434/305 106/460/302
s 3
f 111/446/322 112/444/321 113/431/276 114/418/275
s 4
f 115/464/280 116/429/279 117/449/334 118/447/333
s 10
f 119/453/342 120/552/341 121/551/393 122/435/394
s 4
f 123/466/308 124/436/307 125/451/354 126/414/353
s 3
f 127/439/395 128/467/396 129/468/324 130/448/323
s 10
f 131/413/343 132/549/312 133/432/311 134/443/344
s 4
f 135/450/355 136/428/316 137/424/315 138/415/356
f 139/469/292 140/440/291 141/470/336 142/452/335
f 145/420/369 146/471/288 147/459/287
f 148/421/370 149/472/304 150/463/303
s off
f 153/131/397 154/132/398 164/133/399 163/134/400
f 154/132/401 155/135/402 165/136/403 164/133/404
f 155/135/405 156/137/406 166/138/407 165/136/408
f 156/137/409 157/139/410 167/140/411 166/138/412
f 157/139/413 158/141/414 168/142/415 167/140/416
f 158/141/417 159/143/418 169/144/419 168/142/420
f 160/145/421 161/146/422 171/147/423 170/148/424
f 161/146/425 162/149/426 172/150/427 171/147/428
f 162/149/429 153/131/430 163/134/431 172/150/432
s 16
f 154/151/433 153/152/434 173/153/435
f 155/154/436 154/151/433 173/153/435
f 156/155/437 155/154/436 173/153/435
f 157/156/438 156/155/437 173/153/435
f 158/157/439 157/156/438 173/153/435
f 159/158/440 158/157/439 173/153/435
f 160/159/441 159/158/440 173/153/435
f 161/160/442 160/159/441 173/153/435
f 162/161/443 161/160/442 173/153/435
f 153/152/434 162/161/443 173/153/435
s 17
f 163/162/444 164/163/445 174/164/446
f 164/163/445 165/165/447 174/164/446
f 165/165/447 166/166/448 174/164/446
f 166/166/448 167/167/449 174/164/446
f 167/167/449 168/168/450 174/164/446
f 168/168/450 169/169/451 174/164/446
f 169/169/451 170/170/452 174/164/446
f 170/170/452 171/171/453 174/164/446
f 171/171/453 172/172/454 174/164/446
f 172/172/454 163/162/444 174/164/446
s off
f 176/383/455 175/174/456 180/175/457 179/386/458
f 178/177/459 177/178/460 184/382/461 183/180/462
f 179/181/463 181/182/464 186/183/465 185/198/466
f 181/182/467 180/175/468 183/180/469 182/185/470
f 182/185/471 184/179/472 190/186/473 189/187/474
f 185/188/475 187/189/476 192/190/477 191/191/478
f 187/189/479 186/183/480 189/187/481 188/192/482
f 188/192/483 190/193/484 194/194/485 193/195/486
f 175/174/487 178/177/488 183/180/489 180/175/490
f 181/182/491 182/185/492 189/187/493 186/183/494
f 187/189/495 188/192/496 193/195/497 192/190/498
f 177/381/499 194/196/500 190/186/501 184/179/502
f 191/197/503 176/173/504 179/181/505 185/198/506
f 179/176/507 180/175/508 181/182/509
f 182/185/510 183/180/511 184/385/512
f 185/184/513 186/183/514 187/189/515
f 188/192/516 189/187/517 190/384/518
s 18
f 195/199/519 198/200/520 251/201/521 254/202/522
s 19
f 196/203/523 195/199/524 212/204/525 211/205/526
s off
f 197/206/527 196/203/528 201/378/529 200/208/530
s 20
f 198/200/531 197/206/532 204/209/533 203/210/534
s 21
f 199/211/535 202/377/536 237/370/537 236/214/538
s 22
f 200/208/539 199/211/540 210/215/541 209/216/542
s 23
f 202/212/543 201/207/544 216/217/545 215/218/546
s 18
f 203/210/547 206/219/548 247/220/549 250/221/550
s off
f 205/222/551 204/209/552 209/216/553 208/376/554
s 25
f 206/219/555 205/222/556 219/224/557 218/225/558
s 21
f 207/229/559 210/215/560 233/227/561 232/228/562
s 26
f 208/223/563 207/387/564 221/389/565 220/231/566
s 18
f 213/232/567 212/204/568 243/233/569 246/234/570
s 21
f 215/218/571 214/235/572 229/236/573 228/237/574
s 18
f 218/225/575 217/238/576 239/239/577 242/240/578
s 21
f 222/241/579 221/230/580 225/242/581 224/243/582
s off
f 223/244/583 226/373/584 241/246/585 240/363/586
s 28
f 224/243/587 223/375/588 230/372/589 229/236/590
s 29
f 226/245/591 225/242/592 232/374/593 231/369/594
s off
f 227/380/595 230/248/596 245/251/597 244/252/598
s 29
f 228/237/599 227/371/600 238/365/601 237/213/602
s off
f 231/249/603 234/367/604 249/255/605 248/361/606
s 29
f 234/254/607 233/227/608 236/214/609 235/364/610
s off
f 235/257/611 238/253/612 253/258/613 252/259/614
s 31
f 240/247/615 239/239/616 246/234/617 245/262/618
s off
f 242/240/619 241/362/620 248/256/621 247/220/622
f 244/260/623 243/233/624 254/202/625 253/261/626
f 250/221/627 249/360/628 252/263/629 251/201/630
f 196/203/631 211/205/632 216/217/633 201/207/634
f 205/222/635 208/223/636 220/231/637 219/224/638
s 18
f 243/233/569 212/204/568 195/199/519 254/202/522
s 21
f 229/236/573 214/235/572 222/241/579 224/243/582
f 225/242/581 221/230/580 207/226/559 232/374/562
f 210/215/560 199/211/535 236/214/538 233/227/561
f 202/212/536 215/218/571 228/237/574 237/213/537
s off
f 230/248/639 223/244/640 240/363/641 245/251/642
f 226/373/643 231/249/644 248/361/645 241/246/646
f 234/367/647 235/257/648 252/259/649 249/255/650
f 238/253/651 227/250/652 244/379/653 253/258/654
s 18
f 203/210/547 250/221/550 251/201/521 198/200/520
s off
f 197/206/655 200/208/656 209/216/657 204/209/658
s 18
f 206/219/548 218/225/575 242/240/578 247/220/549
f 239/239/577 217/238/576 213/232/567 246/234/570
s 20
f 195/199/659 196/203/660 197/206/532 198/200/531
s 22
f 199/211/540 200/208/539 201/378/661 202/377/662
s 20
f 203/210/534 204/209/533 205/222/663 206/219/664
s 22
f 207/229/665 208/376/666 209/216/542 210/215/541
s 19
f 211/205/526 212/204/525 213/232/667
s 23
f 214/235/668 215/218/546 216/217/545
s 25
f 217/238/669 218/225/558 219/224/557
s 26
f 220/231/566 221/389/565 222/388/670
s 28
f 223/375/588 224/243/587 225/242/671 226/245/672
f 227/371/673 228/237/674 229/236/590 230/372/589
s 29
f 231/368/594 232/228/593 233/227/608 234/254/607
f 235/364/610 236/214/609 237/370/602 238/366/601
s 31
f 239/239/616 240/247/615 241/362/675 242/240/676
f 243/233/677 244/260/678 245/262/618 246/234/617
s off
f 247/220/679 248/256/680 249/360/681 250/221/682
f 251/201/683 252/263/684 253/261/685 254/202/686
s 32
f 256/494/687 255/479/688 278/481/689 277/495/690
s 33
f 258/480/691 257/490/692 280/492/693 279/529/694
s 34
f 260/519/695 259/473/696 262/505/697 261/520/698
s 33
f 261/520/699 264/522/700 311/524/701 310/542/702
f 263/502/703 262/505/704 304/504/705 303/540/706
s 36
f 264/522/707 263/502/708 268/501/709 267/523/710
s 37
f 266/546/711 265/526/712 270/525/713 269/498/714
s 33
f 267/523/715 270/525/716 314/528/717 313/543/718
f 269/498/719 268/501/720 288/500/721 287/532/722
s 39
f 271/474/723 272/493/724 297/496/725 296/536/726
s 33
f 273/491/727 274/488/728 301/487/729 300/538/730
s 34
f 275/510/731 278/481/732 279/529/733 282/511/734
s 32
f 276/508/735 275/510/736 294/512/737 293/534/738
s 42
f 277/495/739 276/508/740 298/507/741 297/496/742
s 36
f 281/513/743 280/492/744 300/538/745 299/537/746
s 33
f 282/511/747 281/513/748 306/515/749 305/541/750
s 37
f 283/516/751 286/499/752 287/532/753 290/517/754
s 39
f 284/509/755 283/475/756 295/535/757 298/507/758
s 42
f 285/476/759 284/509/760 293/534/761 292/533/762
s 36
f 289/514/763 288/500/764 303/540/765 306/515/766
s 33
f 290/517/767 289/514/768 299/537/769 302/539/770
s 34
f 291/503/771 294/512/772 305/541/773 304/504/774
s 37
f 296/486/775 295/518/776 302/539/777 301/487/778
s off
f 308/477/779 307/521/780 310/542/781 309/483/782
s 33
f 309/483/783 311/524/701 313/543/718 312/484/784
s off
f 312/484/785 314/528/786 316/527/787 315/478/788
s 34
f 255/479/789 258/480/790 279/529/733 278/481/732
s off
f 308/482/791 309/483/792 312/484/793 315/485/794
s 37
f 296/486/775 301/487/778 274/488/795 271/489/796
s 36
f 257/490/797 273/491/798 300/538/745 280/492/744
s 42
f 272/493/799 256/494/800 277/495/739 297/496/742
s 37
f 266/497/711 269/498/714 287/532/753 286/499/752
s 36
f 303/540/765 288/500/764 268/501/709 263/502/708
s 34
f 291/503/771 304/504/774 262/505/697 259/506/696
s 42
f 298/507/741 276/508/740 293/534/761 284/509/760
s 34
f 275/510/731 282/511/734 305/541/773 294/512/772
s 36
f 281/513/743 299/537/746 289/514/763 306/515/766
s 37
f 283/516/751 290/517/754 302/539/777 295/518/776
s 34
f 260/519/695 261/520/698 310/542/801 307/521/802
s 36
f 264/522/707 267/523/710 313/543/803 311/524/804
s 37
f 270/525/713 265/526/712 316/527/805 314/528/806
s 33
f 261/520/699 262/505/704 263/502/703 264/522/700
f 267/523/715 268/501/720 269/498/719 270/525/716
s 32
f 275/510/736 276/508/735 277/495/690 278/481/689
s 33
f 279/529/694 280/492/693 281/513/748 282/511/747
s 39
f 283/516/756 284/530/755 285/531/807 286/499/808
s 33
f 287/532/722 288/500/721 289/514/768 290/517/767
s 32
f 291/503/809 292/533/810 293/534/738 294/512/737
s 39
f 295/535/757 296/536/726 297/496/725 298/507/758
s 33
f 299/537/769 300/538/730 301/487/729 302/539/770
f 303/540/706 304/504/705 305/541/750 306/515/749
f 309/483/783 310/542/702 311/524/701
f 312/484/784 313/543/718 314/528/717
s off
f 317/264/811 318/265/812 320/266/813 319/267/814
f 319/267/815 320/266/816 322/268/817 321/269/818
f 321/269/819 322/268/820 324/270/821 323/271/822
s 45
f 325/272/823 328/273/824 381/274/825 384/275/826
s 46
f 326/276/827 325/272/828 342/277/829 341/278/830
s off
f 327/279/831 326/276/832 331/356/833 330/281/834
s 47
f 328/273/835 327/279/836 334/282/837 333/283/838
s 48
f 329/284/839 332/355/840 367/347/841 366/287/842
s 49
f 330/281/843 329/284/844 340/288/845 339/289/846
s 50
f 332/285/847 331/280/848 346/290/849 345/291/850
s 45
f 333/283/851 336/292/852 377/293/853 380/294/854
s off
f 335/295/855 334/282/856 339/289/857 338/353/858
s 52
f 336/292/859 335/295/860 349/297/861 348/298/862
s 48
f 337/302/863 340/288/864 363/300/865 362/301/866
s 53
f 338/296/867 337/354/868 351/303/869 350/304/870
s 45
f 343/305/871 342/277/872 373/306/873 376/307/874
s 48
f 345/291/875 344/308/876 359/309/877 358/310/878
s 45
f 348/298/879 347/311/880 369/312/881 372/313/882
s 48
f 352/314/883 351/315/884 355/316/885 354/317/886
s off
f 353/318/887 356/350/888 371/320/889 370/357/890
s 55
f 354/317/891 353/352/892 360/349/893 359/309/894
s 56
f 356/319/895 355/316/896 362/351/897 361/346/898
s off
f 357/324/899 360/322/900 375/325/901 374/339/902
s 56
f 358/310/903 357/348/904 368/342/905 367/286/906
s off
f 361/323/907 364/344/908 379/329/909 378/340/910
s 56
f 364/328/911 363/300/912 366/287/913 365/341/914
s off
f 365/331/915 368/327/916 383/332/917 382/333/918
s 58
f 370/321/919 369/312/920 376/307/921 375/358/922
s off
f 372/313/923 371/359/924 378/330/925 377/293/926
f 374/326/927 373/306/928 384/275/929 383/334/930
f 380/294/931 379/338/932 382/337/933 381/274/934
f 326/276/935 341/278/936 346/290/937 331/280/938
f 335/295/939 338/296/940 350/304/941 349/297/942
s 45
f 373/306/873 342/277/872 325/272/823 384/275/826
s 48
f 359/309/877 344/308/876 352/314/883 354/317/886
f 355/316/885 351/315/884 337/299/863 362/351/866
f 340/288/864 329/284/839 366/287/842 363/300/865
f 332/285/840 345/291/875 358/310/878 367/286/841
s off
f 360/322/943 353/318/944 370/357/945 375/325/946
f 356/350/947 361/555/948 378/554/949 371/320/950
f 364/344/951 365/331/952 382/333/953 379/329/954
f 368/327/955 357/324/956 374/339/957 383/332/958
s 45
f 333/283/851 380/294/854 381/274/825 328/273/824
s off
f 327/279/959 330/281/960 339/289/961 334/282/962
s 45
f 336/292/852 348/298/879 372/313/882 377/293/853
f 369/312/881 347/311/880 343/305/871 376/307/874
s 47
f 325/272/963 326/276/964 327/279/836 328/273/835
s 49
f 329/284/844 330/281/843 331/356/965 332/355/966
s 47
f 333/283/838 334/282/837 335/295/967 336/292/968
s 49
f 337/302/969 338/353/970 339/289/846 340/288/845
s 46
f 341/278/830 342/277/829 343/305/971
s 50
f 344/335/972 345/291/850 346/290/849
s 52
f 347/311/973 348/298/862 349/297/861
s 53
f 350/304/870 351/303/869 352/336/974
s 55
f 353/352/892 354/317/891 355/316/975 356/319/976
f 357/348/977 358/310/978 359/309/894 360/349/893
s 56
f 361/345/898 362/301/897 363/300/912 364/328/911
f 365/341/914 366/287/913 367/347/906 368/343/905
s 58
f 369/312/920 370/321/919 371/359/979 372/313/980
f 373/306/981 374/326/982 375/358/922 376/307/921
s off
f 377/293/983 378/330/984 379/338/985 380/294/986
f 381/274/987 382/337/988 383/334/989 384/275/990
